<svg xmlns="http://www.w3.org/2000/svg" width="42.49" height="9" viewBox="0 0 42.49 9">
  <g id="Group_6923" data-name="Group 6923" transform="translate(-140 -30)">
    <g id="Group_2" data-name="Group 2" transform="translate(140 32.622)">
      <g id="Logo_Ay" data-name="Logo Ay" transform="translate(0 0)">
        <g id="Layer_1" data-name="Layer 1">
          <g id="Group_2021" data-name="Group 2021">
            <path id="Path_2256" data-name="Path 2256" d="M9.46,1.188c-1.453.425-2.9.854-4.36,1.27a.98.98,0,0,1-.49,0C3.076,2.049,1.546,1.631,0,1.1.683.922,1.386.794,2.047.555a8.017,8.017,0,0,1,6,.059A11.605,11.605,0,0,0,9.458,1c0,.062,0,.124,0,.185" transform="translate(0 -0.003)" fill="#fff" fill-rule="evenodd"/>
            <path id="Path_2257" data-name="Path 2257" d="M52.684,77.041a6.7,6.7,0,0,1-2.557-.429c-.451-.137-.791-1.55-.462-1.9a.371.371,0,0,1,.25-.077.707.707,0,0,1,.271.077,6.17,6.17,0,0,0,4.956.032c.563-.214.691,0,.688.544-.007,1.232-.005,1.269-1.223,1.552a6.678,6.678,0,0,1-1.925.2" transform="translate(-47.763 -71.972)" fill="#fff" fill-rule="evenodd"/>
            <path id="Path_2258" data-name="Path 2258" d="M8.973,61.79c.136.055.121.174.127.276.045.715.084,1.426.13,2.138.016.24-.011.467-.308.462s-.388-.195-.35-.48c.089-.677.163-1.355.25-2.032.016-.133,0-.286.153-.365" transform="translate(-8.258 -59.582)" fill="#fff" fill-rule="evenodd"/>
          </g>
        </g>
      </g>
    </g>
    <text id="alteryouth" transform="translate(150.489 37)" fill="#fff" font-size="7" font-family="Gilroy-Bold, Gilroy ☞" font-weight="700" letter-spacing="-0.04em"><tspan x="0" y="0">alteryouth</tspan></text>
  </g>
</svg>
