<svg xmlns="http://www.w3.org/2000/svg" xmlns:xlink="http://www.w3.org/1999/xlink" width="171.385" height="69.925" viewBox="0 0 171.385 69.925">
  <defs>
    <filter id="background" x="0" y="0" width="171.385" height="69.925" filterUnits="userSpaceOnUse">
      <feOffset dy="3" input="SourceAlpha"/>
      <feGaussianBlur stdDeviation="3" result="blur"/>
      <feFlood flood-opacity="0.161"/>
      <feComposite operator="in" in2="blur"/>
      <feComposite in="SourceGraphic"/>
    </filter>
  </defs>
  <g id="Group_7007" data-name="Group 7007" transform="translate(9 6)">
    <g id="Page-1">
      <g id="Artboard-1">
        <g id="App-Store">
          <g transform="matrix(1, 0, 0, 1, -9, -6)" filter="url(#background)">
            <path id="background-2" data-name="background" d="M5.231,0H146.154a6.236,6.236,0,0,1,6.231,6.231V45.694a6.236,6.236,0,0,1-6.231,6.231H5.231A6.236,6.236,0,0,1-1,45.694V6.231A6.236,6.236,0,0,1,5.231,0Z" transform="translate(10 6)" fill="#fff"/>
          </g>
          <g id="icon" transform="translate(13.602 9.139)">
            <path id="Fill-2" d="M19.95,76.816a6.7,6.7,0,0,1,3.178-5.608,6.888,6.888,0,0,0-5.39-2.918c-2.264-.239-4.465,1.36-5.618,1.36-1.173,0-2.96-1.329-4.871-1.3a7.161,7.161,0,0,0-6.034,3.687C-1.391,76.557.551,83.2,3.053,86.858c1.257,1.786,2.71,3.791,4.632,3.718,1.869-.073,2.575-1.194,4.829-1.194s2.9,1.194,4.85,1.153c2.015-.031,3.271-1.8,4.486-3.6A14.649,14.649,0,0,0,23.9,82.756a6.477,6.477,0,0,1-3.946-5.94" transform="translate(0.023 -61.176)"/>
            <path id="Fill-3" d="M118.794,4.715A6.588,6.588,0,0,0,120.3,0a6.68,6.68,0,0,0-4.33,2.243,6.318,6.318,0,0,0-1.547,4.538,5.534,5.534,0,0,0,4.372-2.067" transform="translate(-102.509)"/>
          </g>
          <g id="Group_7004" data-name="Group 7004" transform="translate(47.76 22.722)">
            <path id="Fill-4" d="M12.84,18.238H10.223L8.789,13.731H3.8l-1.36,4.507H-.1L4.833,2.9H7.886Zm-4.476-6.4-1.3-4c-.135-.415-.395-1.371-.768-2.887H6.245c-.156.654-.395,1.62-.727,2.887l-1.277,4Z" transform="translate(0.1 -2.682)"/>
            <path id="Fill-5" d="M154.655,47.529a6.229,6.229,0,0,1-1.537,4.455,4.477,4.477,0,0,1-3.406,1.454,3.411,3.411,0,0,1-3.157-1.568v5.805h-2.461V45.763c0-1.184-.031-2.389-.093-3.635h2.16l.135,1.755h.042a4.361,4.361,0,0,1,6.989-.436A6.016,6.016,0,0,1,154.655,47.529Zm-2.5.083a4.514,4.514,0,0,0-.727-2.659,2.517,2.517,0,0,0-2.139-1.09,2.61,2.61,0,0,0-1.651.6,2.781,2.781,0,0,0-.966,1.579,3.363,3.363,0,0,0-.114.748V48.64a2.973,2.973,0,0,0,.737,2.035,2.454,2.454,0,0,0,1.921.831,2.535,2.535,0,0,0,2.16-1.07A4.691,4.691,0,0,0,152.152,47.612Z" transform="translate(-129.035 -37.632)"/>
            <path id="Fill-6" d="M277.055,47.529a6.229,6.229,0,0,1-1.537,4.455,4.477,4.477,0,0,1-3.406,1.454,3.411,3.411,0,0,1-3.157-1.568v5.805h-2.461V45.763c0-1.184-.031-2.389-.094-3.635h2.16l.135,1.755h.042a4.361,4.361,0,0,1,6.989-.436A6.016,6.016,0,0,1,277.055,47.529Zm-2.5.083a4.514,4.514,0,0,0-.727-2.659,2.517,2.517,0,0,0-2.139-1.09,2.609,2.609,0,0,0-1.651.6,2.837,2.837,0,0,0-.966,1.579,3.36,3.36,0,0,0-.114.748V48.64a2.973,2.973,0,0,0,.737,2.035,2.454,2.454,0,0,0,1.921.831,2.523,2.523,0,0,0,2.16-1.07A4.622,4.622,0,0,0,274.552,47.612Z" transform="translate(-238.724 -37.632)"/>
            <path id="Fill-7" d="M424,12.057a4.107,4.107,0,0,1-1.361,3.188,6.039,6.039,0,0,1-4.175,1.34,7.3,7.3,0,0,1-3.967-.955l.571-2.046a6.9,6.9,0,0,0,3.552.955,3.345,3.345,0,0,0,2.16-.623,2.035,2.035,0,0,0,.779-1.672,2.162,2.162,0,0,0-.633-1.568,5.929,5.929,0,0,0-2.118-1.184c-2.71-1.007-4.05-2.472-4.05-4.393A3.9,3.9,0,0,1,416.182,2a5.643,5.643,0,0,1,3.77-1.2,7.41,7.41,0,0,1,3.479.727l-.623,1.994a6.129,6.129,0,0,0-2.949-.706,3.06,3.06,0,0,0-2.036.633,1.843,1.843,0,0,0-.613,1.392,1.865,1.865,0,0,0,.706,1.5,7.924,7.924,0,0,0,2.233,1.184,7.485,7.485,0,0,1,2.908,1.869A3.885,3.885,0,0,1,424,12.057" transform="translate(-371.444 -0.8)"/>
            <path id="Fill-8" d="M526.329,22.2h-2.71v5.369c0,1.36.478,2.046,1.433,2.046a4.56,4.56,0,0,0,1.09-.114l.073,1.869a5.7,5.7,0,0,1-1.911.27,2.94,2.94,0,0,1-2.274-.893,4.335,4.335,0,0,1-.821-2.98V22.19H519.6V20.352h1.61V18.327l2.409-.727v2.752h2.71V22.2" transform="translate(-465.63 -15.855)"/>
            <path id="Fill-9" d="M608.331,47.66a6.076,6.076,0,0,1-1.454,4.185,5.2,5.2,0,0,1-4.05,1.682,4.984,4.984,0,0,1-3.884-1.61,5.847,5.847,0,0,1-1.443-4.071,6.032,6.032,0,0,1,1.485-4.206A5.183,5.183,0,0,1,603,42a5.054,5.054,0,0,1,3.915,1.62A5.772,5.772,0,0,1,608.331,47.66Zm-2.544.052a4.958,4.958,0,0,0-.654-2.607,2.549,2.549,0,0,0-4.466,0,5.624,5.624,0,0,0,0,5.265,2.522,2.522,0,0,0,4.445-.021A5.032,5.032,0,0,0,605.787,47.712Z" transform="translate(-535.44 -37.721)"/>
            <path id="Fill-10" d="M727.63,44.289a4.552,4.552,0,0,0-.779-.062,2.319,2.319,0,0,0-2,.976,3.707,3.707,0,0,0-.613,2.181v5.805h-2.461V45.607c0-1.277-.021-2.44-.073-3.479h2.139l.093,2.119h.073a3.769,3.769,0,0,1,1.226-1.755,2.988,2.988,0,0,1,1.775-.592,5.172,5.172,0,0,1,.613.042l.01,2.347" transform="translate(-646.742 -37.632)"/>
            <path id="Fill-11" d="M799.734,46.865a5.618,5.618,0,0,1-.093,1.111h-7.373a3.207,3.207,0,0,0,1.07,2.5,3.682,3.682,0,0,0,2.409.768,8.273,8.273,0,0,0,2.98-.519l.384,1.7a9.228,9.228,0,0,1-3.708.685,5.372,5.372,0,0,1-4.04-1.516,5.6,5.6,0,0,1-1.464-4.06,6.345,6.345,0,0,1,1.371-4.164,4.705,4.705,0,0,1,3.863-1.776,4.1,4.1,0,0,1,3.614,1.776A6.006,6.006,0,0,1,799.734,46.865Zm-2.347-.633a3.309,3.309,0,0,0-.478-1.89,2.144,2.144,0,0,0-1.953-1.028,2.334,2.334,0,0,0-1.952,1,3.692,3.692,0,0,0-.727,1.911Z" transform="translate(-707.859 -37.363)"/>
          </g>
        </g>
      </g>
    </g>
    <text id="Download_on_the" data-name="Download on the" transform="translate(49.146 13.993)" font-size="8" font-family="Gilroy-Medium, Gilroy ☞" font-weight="500"><tspan x="0" y="0">Download on the</tspan></text>
  </g>
</svg>
