<svg xmlns="http://www.w3.org/2000/svg" xmlns:xlink="http://www.w3.org/1999/xlink" width="198.361" height="79.057" viewBox="0 0 198.361 79.057">
  <defs>
    <filter id="background" x="0" y="0" width="198.361" height="79.057" filterUnits="userSpaceOnUse">
      <feOffset dy="3" input="SourceAlpha"/>
      <feGaussianBlur stdDeviation="3" result="blur"/>
      <feFlood flood-opacity="0.161"/>
      <feComposite operator="in" in2="blur"/>
      <feComposite in="SourceGraphic"/>
    </filter>
  </defs>
  <g id="Group_7007" data-name="Group 7007" transform="translate(9 6)">
    <g id="Page-1">
      <g id="Artboard-1">
        <g id="App-Store">
          <g transform="matrix(1, 0, 0, 1, -9, -6)" filter="url(#background)">
            <path id="background-2" data-name="background" d="M6.327,0H172.035a7.333,7.333,0,0,1,7.327,7.327v46.4a7.333,7.333,0,0,1-7.327,7.327H6.327A7.333,7.333,0,0,1-1,53.73V7.327A7.333,7.333,0,0,1,6.327,0Z" transform="translate(10 6)"/>
          </g>
          <g id="icon" transform="translate(15.994 10.746)">
            <path id="Fill-2" d="M23.462,78.32A7.874,7.874,0,0,1,27.2,71.726a8.1,8.1,0,0,0-6.338-3.431c-2.662-.281-5.251,1.6-6.606,1.6-1.38,0-3.48-1.563-5.727-1.526A8.421,8.421,0,0,0,1.433,72.7C-1.632,78.015.652,85.83,3.594,90.128c1.478,2.1,3.187,4.457,5.446,4.372,2.2-.085,3.028-1.4,5.678-1.4s3.407,1.4,5.7,1.355c2.369-.037,3.847-2.113,5.275-4.237A17.225,17.225,0,0,0,28.1,85.3a7.616,7.616,0,0,1-4.64-6.985" transform="translate(0.023 -59.93)" fill="#fff"/>
            <path id="Fill-3" d="M119.569,5.544A7.747,7.747,0,0,0,121.34,0a7.855,7.855,0,0,0-5.092,2.638,7.429,7.429,0,0,0-1.819,5.336,6.508,6.508,0,0,0,5.141-2.43" transform="translate(-100.419)" fill="#fff"/>
          </g>
          <g id="Group_7004" data-name="Group 7004" transform="translate(56.16 26.719)">
            <path id="Fill-4" d="M15.115,20.936H12.038l-1.685-5.3H4.491l-1.6,5.3H-.1L5.7,2.9h3.59ZM9.852,13.414l-1.526-4.7c-.159-.488-.464-1.612-.9-3.395H7.361c-.183.769-.464,1.9-.855,3.395L5,13.414Z" transform="translate(0.1 -2.644)" fill="#fff"/>
            <path id="Fill-5" d="M156.529,48.519a7.325,7.325,0,0,1-1.807,5.239,5.265,5.265,0,0,1-4.005,1.71A4.011,4.011,0,0,1,147,53.623v6.826H144.11V46.443c0-1.392-.037-2.809-.11-4.274h2.54l.159,2.064h.049a5.128,5.128,0,0,1,8.218-.513A7.074,7.074,0,0,1,156.529,48.519Zm-2.943.1a5.309,5.309,0,0,0-.855-3.126,2.96,2.96,0,0,0-2.516-1.282,3.069,3.069,0,0,0-1.942.708,3.27,3.27,0,0,0-1.136,1.856,3.954,3.954,0,0,0-.134.879v2.174a3.5,3.5,0,0,0,.867,2.393,2.885,2.885,0,0,0,2.259.977,2.981,2.981,0,0,0,2.54-1.258A5.516,5.516,0,0,0,153.586,48.616Z" transform="translate(-126.403 -36.881)" fill="#fff"/>
            <path id="Fill-6" d="M278.929,48.519a7.325,7.325,0,0,1-1.807,5.239,5.265,5.265,0,0,1-4.005,1.71,4.011,4.011,0,0,1-3.712-1.844v6.826H266.51V46.443c0-1.392-.037-2.809-.11-4.274h2.54l.159,2.064h.049a5.128,5.128,0,0,1,8.218-.513A7.075,7.075,0,0,1,278.929,48.519Zm-2.943.1a5.308,5.308,0,0,0-.855-3.126,2.959,2.959,0,0,0-2.515-1.282,3.068,3.068,0,0,0-1.942.708,3.336,3.336,0,0,0-1.136,1.856,3.952,3.952,0,0,0-.134.879v2.174a3.5,3.5,0,0,0,.867,2.393,2.885,2.885,0,0,0,2.259.977,2.966,2.966,0,0,0,2.54-1.258A5.435,5.435,0,0,0,275.986,48.616Z" transform="translate(-233.857 -36.881)" fill="#fff"/>
            <path id="Fill-7" d="M425.673,14.037a4.83,4.83,0,0,1-1.6,3.749,7.1,7.1,0,0,1-4.909,1.575,8.589,8.589,0,0,1-4.665-1.123l.672-2.406a8.111,8.111,0,0,0,4.176,1.123,3.933,3.933,0,0,0,2.54-.733,2.393,2.393,0,0,0,.916-1.966,2.542,2.542,0,0,0-.745-1.844,6.971,6.971,0,0,0-2.491-1.392c-3.187-1.185-4.763-2.906-4.763-5.165a4.581,4.581,0,0,1,1.673-3.639A6.636,6.636,0,0,1,420.911.8,8.714,8.714,0,0,1,425,1.655L424.269,4a7.207,7.207,0,0,0-3.468-.83,3.6,3.6,0,0,0-2.394.745,2.167,2.167,0,0,0-.72,1.636,2.193,2.193,0,0,0,.83,1.758A9.317,9.317,0,0,0,421.143,8.7a8.8,8.8,0,0,1,3.419,2.2,4.569,4.569,0,0,1,1.111,3.138" transform="translate(-363.872 -0.8)" fill="#fff"/>
            <path id="Fill-8" d="M527.513,23.01h-3.187v6.313c0,1.6.562,2.406,1.685,2.406a5.362,5.362,0,0,0,1.282-.134l.085,2.2a6.7,6.7,0,0,1-2.247.317,3.458,3.458,0,0,1-2.674-1.05,5.1,5.1,0,0,1-.965-3.5V23H519.6V20.836h1.893V18.455l2.833-.855v3.236h3.187V23.01" transform="translate(-456.138 -15.548)" fill="#fff"/>
            <path id="Fill-9" d="M610.236,48.655a7.144,7.144,0,0,1-1.71,4.921,6.12,6.12,0,0,1-4.762,1.978,5.861,5.861,0,0,1-4.567-1.893,6.875,6.875,0,0,1-1.7-4.787,7.093,7.093,0,0,1,1.746-4.946A6.1,6.1,0,0,1,603.972,42a5.942,5.942,0,0,1,4.6,1.9A6.788,6.788,0,0,1,610.236,48.655Zm-2.992.061a5.829,5.829,0,0,0-.769-3.065,3,3,0,0,0-5.251,0,6.612,6.612,0,0,0,0,6.191,2.966,2.966,0,0,0,5.226-.024A5.917,5.917,0,0,0,607.245,48.716Z" transform="translate(-524.525 -36.969)" fill="#fff"/>
            <path id="Fill-10" d="M728.673,44.709a5.353,5.353,0,0,0-.916-.073,2.727,2.727,0,0,0-2.357,1.148,4.359,4.359,0,0,0-.72,2.564v6.826h-2.894V46.259c0-1.5-.024-2.87-.085-4.091h2.516l.11,2.491h.086a4.432,4.432,0,0,1,1.441-2.064,3.514,3.514,0,0,1,2.088-.7,6.081,6.081,0,0,1,.721.049l.012,2.76" transform="translate(-633.558 -36.881)" fill="#fff"/>
            <path id="Fill-11" d="M801.464,47.791a6.608,6.608,0,0,1-.11,1.307h-8.67a3.77,3.77,0,0,0,1.258,2.943,4.329,4.329,0,0,0,2.833.9,9.727,9.727,0,0,0,3.5-.611l.452,2a10.851,10.851,0,0,1-4.36.806,6.317,6.317,0,0,1-4.75-1.783,6.583,6.583,0,0,1-1.722-4.775,7.461,7.461,0,0,1,1.612-4.9,5.533,5.533,0,0,1,4.543-2.088,4.826,4.826,0,0,1,4.25,2.088A7.063,7.063,0,0,1,801.464,47.791Zm-2.76-.745a3.892,3.892,0,0,0-.562-2.222,2.521,2.521,0,0,0-2.3-1.209,2.744,2.744,0,0,0-2.3,1.172,4.341,4.341,0,0,0-.855,2.247Z" transform="translate(-693.43 -36.618)" fill="#fff"/>
          </g>
        </g>
      </g>
    </g>
    <text id="Download_on_the" data-name="Download on the" transform="translate(57.789 16.048)" fill="#fff" font-size="9" font-family="Gilroy-Medium, Gilroy ☞" font-weight="500"><tspan x="0" y="0">Download on the</tspan></text>
  </g>
</svg>
