<svg xmlns="http://www.w3.org/2000/svg" width="56.959" height="41.358" viewBox="0 0 56.959 41.358">
  <g id="open-book" transform="translate(0 -67.93)">
    <g id="Group_2702" data-name="Group 2702" transform="translate(0 73.458)">
      <path id="Path_3345" data-name="Path 3345" d="M54.2,116.07H2.756A2.759,2.759,0,0,0,0,118.826v30.317A2.759,2.759,0,0,0,2.756,151.9H54.2a2.759,2.759,0,0,0,2.756-2.756V118.826A2.759,2.759,0,0,0,54.2,116.07Z" transform="translate(0 -116.07)" fill="#ff4f19"/>
    </g>
    <g id="Group_2703" data-name="Group 2703" transform="translate(25.724 104.694)">
      <rect id="Rectangle_3658" data-name="Rectangle 3658" width="5.512" height="4.593" fill="#e3001e"/>
    </g>
    <g id="Group_2704" data-name="Group 2704" transform="translate(3.7 99.181)">
      <path id="Path_3346" data-name="Path 3346" d="M81.829,342.826v2.756a.919.919,0,0,1-.919.919H33.138a.919.919,0,0,1-.919-.919v-2.756l5.487-2.756,22.049.919,18.374-.919Z" transform="translate(-32.219 -340.07)" fill="#e6be8a"/>
    </g>
    <g id="Group_2705" data-name="Group 2705" transform="translate(3.7 67.93)">
      <path id="Path_3347" data-name="Path 3347" d="M33.508,103.206a29.129,29.129,0,0,1,23.516.569V70.7a29.129,29.129,0,0,0-24.259-.25.931.931,0,0,0-.546.849v31.065A.922.922,0,0,0,33.508,103.206Z" transform="translate(-32.219 -67.93)" fill="#ffebb7"/>
    </g>
    <g id="Group_2706" data-name="Group 2706" transform="translate(28.505 67.93)">
      <path id="Path_3348" data-name="Path 3348" d="M248.219,103.775a29.129,29.129,0,0,1,23.516-.569.922.922,0,0,0,1.289-.84V71.3a.931.931,0,0,0-.546-.849,29.129,29.129,0,0,0-24.259.25Z" transform="translate(-248.219 -67.93)" fill="#ffd788"/>
    </g>
    <g id="Group_2708" data-name="Group 2708" transform="translate(31.261 95.218)">
      <g id="Group_2707" data-name="Group 2707" transform="translate(0 0)">
        <path id="Path_3349" data-name="Path 3349" d="M273.137,308.112a.919.919,0,0,1-.275-1.8c.929-.292,1.886-.541,2.843-.742a.919.919,0,1,1,.377,1.8c-.9.188-1.8.423-2.669.7A.925.925,0,0,1,273.137,308.112Z" transform="translate(-272.218 -305.555)" fill="#868491"/>
      </g>
    </g>
    <g id="Group_2710" data-name="Group 2710" transform="translate(37.692 94.598)">
      <g id="Group_2709" data-name="Group 2709">
        <path id="Path_3350" data-name="Path 3350" d="M340.161,303.336a.922.922,0,0,1-.275-.043,28.049,28.049,0,0,0-10.676-1.208.919.919,0,1,1-.145-1.832,29.936,29.936,0,0,1,11.372,1.287.919.919,0,0,1-.276,1.8Z" transform="translate(-328.218 -300.159)" fill="#868491"/>
      </g>
    </g>
    <g id="Group_2712" data-name="Group 2712" transform="translate(31.261 90.906)">
      <g id="Group_2711" data-name="Group 2711">
        <path id="Path_3351" data-name="Path 3351" d="M290.593,271.2a.922.922,0,0,1-.275-.043,28.071,28.071,0,0,0-16.9,0,.919.919,0,0,1-.551-1.753,29.9,29.9,0,0,1,18.006,0,.919.919,0,0,1-.276,1.8Z" transform="translate(-272.219 -268.012)" fill="#868491"/>
      </g>
    </g>
    <g id="Group_2714" data-name="Group 2714" transform="translate(31.261 87.249)">
      <g id="Group_2713" data-name="Group 2713" transform="translate(0 0)">
        <path id="Path_3352" data-name="Path 3352" d="M273.137,239.342a.919.919,0,0,1-.275-1.8,30.009,30.009,0,0,1,10.425-1.347.919.919,0,0,1-.088,1.836,28.148,28.148,0,0,0-9.786,1.265A.924.924,0,0,1,273.137,239.342Z" transform="translate(-272.218 -236.166)" fill="#868491"/>
      </g>
    </g>
    <g id="Group_2716" data-name="Group 2716" transform="translate(45.041 87.69)">
      <g id="Group_2715" data-name="Group 2715" transform="translate(0 0)">
        <path id="Path_3353" data-name="Path 3353" d="M396.806,242.741a.921.921,0,0,1-.275-.043,28.307,28.307,0,0,0-3.56-.869.919.919,0,0,1,.319-1.81,30.219,30.219,0,0,1,3.791.925.919.919,0,0,1-.276,1.8Z" transform="translate(-392.212 -240.005)" fill="#868491"/>
      </g>
    </g>
    <g id="Group_2718" data-name="Group 2718" transform="translate(31.261 83.557)">
      <g id="Group_2717" data-name="Group 2717" transform="translate(0 0)">
        <path id="Path_3354" data-name="Path 3354" d="M290.593,207.2a.921.921,0,0,1-.275-.043,28.072,28.072,0,0,0-16.9,0,.919.919,0,0,1-.551-1.753,29.9,29.9,0,0,1,18.006,0,.919.919,0,0,1-.276,1.8Z" transform="translate(-272.219 -204.012)" fill="#868491"/>
      </g>
    </g>
    <g id="Group_2720" data-name="Group 2720" transform="translate(31.261 80.066)">
      <g id="Group_2719" data-name="Group 2719" transform="translate(0 0)">
        <path id="Path_3355" data-name="Path 3355" d="M273.137,176.614a.919.919,0,0,1-.275-1.8,30.084,30.084,0,0,1,5.687-1.2.918.918,0,1,1,.2,1.826,28.27,28.27,0,0,0-5.339,1.124A.926.926,0,0,1,273.137,176.614Z" transform="translate(-272.218 -173.615)" fill="#868491"/>
      </g>
    </g>
    <g id="Group_2722" data-name="Group 2722" transform="translate(40.449 79.891)">
      <g id="Group_2721" data-name="Group 2721">
        <path id="Path_3356" data-name="Path 3356" d="M361.412,175.264a.921.921,0,0,1-.275-.043,28.159,28.159,0,0,0-8.006-1.293.919.919,0,0,1,.029-1.837,30.02,30.02,0,0,1,8.529,1.377.919.919,0,0,1-.275,1.8Z" transform="translate(-352.226 -172.089)" fill="#868491"/>
      </g>
    </g>
    <g id="Group_2724" data-name="Group 2724" transform="translate(31.261 76.222)">
      <g id="Group_2723" data-name="Group 2723">
        <path id="Path_3357" data-name="Path 3357" d="M273.137,143.321a.919.919,0,0,1-.275-1.8,29.844,29.844,0,0,1,12.32-1.2.919.919,0,0,1,.812,1.014.907.907,0,0,1-1.015.811,28.041,28.041,0,0,0-11.566,1.124A.921.921,0,0,1,273.137,143.321Z" transform="translate(-272.218 -140.142)" fill="#868491"/>
      </g>
    </g>
    <g id="Group_2726" data-name="Group 2726" transform="translate(46.878 77.051)">
      <g id="Group_2725" data-name="Group 2725" transform="translate(0 0)">
        <path id="Path_3358" data-name="Path 3358" d="M410.973,149.713a.921.921,0,0,1-.275-.043c-.583-.184-1.182-.35-1.78-.5a.919.919,0,0,1,.436-1.785c.636.155,1.273.333,1.895.528a.919.919,0,0,1-.276,1.8Z" transform="translate(-408.216 -147.363)" fill="#868491"/>
      </g>
    </g>
    <g id="Group_2728" data-name="Group 2728" transform="translate(31.261 73.366)">
      <g id="Group_2727" data-name="Group 2727" transform="translate(0 0)">
        <path id="Path_3359" data-name="Path 3359" d="M273.137,117.62a.919.919,0,0,1-.275-1.8c.632-.2,1.269-.376,1.894-.528a.919.919,0,0,1,.434,1.785c-.587.143-1.185.309-1.779.5A.92.92,0,0,1,273.137,117.62Z" transform="translate(-272.218 -115.27)" fill="#868491"/>
      </g>
    </g>
    <g id="Group_2730" data-name="Group 2730" transform="translate(36.773 72.537)">
      <g id="Group_2729" data-name="Group 2729" transform="translate(0 0)">
        <path id="Path_3360" data-name="Path 3360" d="M333.079,111.228a.921.921,0,0,1-.275-.043,28.049,28.049,0,0,0-11.566-1.124.918.918,0,1,1-.2-1.826,29.848,29.848,0,0,1,12.32,1.2.919.919,0,0,1-.275,1.8Z" transform="translate(-320.217 -108.049)" fill="#868491"/>
      </g>
    </g>
    <g id="Group_2732" data-name="Group 2732" transform="translate(6.456 95.218)">
      <g id="Group_2731" data-name="Group 2731" transform="translate(0 0)">
        <path id="Path_3361" data-name="Path 3361" d="M57.137,308.112a.919.919,0,0,1-.275-1.8c.929-.292,1.886-.541,2.843-.742a.919.919,0,1,1,.377,1.8c-.9.188-1.8.423-2.669.7A.925.925,0,0,1,57.137,308.112Z" transform="translate(-56.218 -305.555)" fill="#b4b6bc"/>
      </g>
    </g>
    <g id="Group_2734" data-name="Group 2734" transform="translate(12.887 94.598)">
      <g id="Group_2733" data-name="Group 2733">
        <path id="Path_3362" data-name="Path 3362" d="M124.161,303.336a.922.922,0,0,1-.275-.043,28.047,28.047,0,0,0-10.676-1.208.919.919,0,1,1-.145-1.832,29.938,29.938,0,0,1,11.372,1.287.919.919,0,0,1-.275,1.8Z" transform="translate(-112.218 -300.159)" fill="#b4b6bc"/>
      </g>
    </g>
    <g id="Group_2736" data-name="Group 2736" transform="translate(6.456 90.906)">
      <g id="Group_2735" data-name="Group 2735">
        <path id="Path_3363" data-name="Path 3363" d="M74.593,271.2a.922.922,0,0,1-.275-.043,28.071,28.071,0,0,0-16.9,0,.919.919,0,0,1-.551-1.753,29.9,29.9,0,0,1,18.006,0,.919.919,0,0,1-.276,1.8Z" transform="translate(-56.219 -268.012)" fill="#b4b6bc"/>
      </g>
    </g>
    <g id="Group_2738" data-name="Group 2738" transform="translate(6.456 87.249)">
      <g id="Group_2737" data-name="Group 2737" transform="translate(0 0)">
        <path id="Path_3364" data-name="Path 3364" d="M57.137,239.342a.919.919,0,0,1-.275-1.8A30.017,30.017,0,0,1,67.286,236.2a.919.919,0,0,1-.088,1.836,28.145,28.145,0,0,0-9.786,1.265A.924.924,0,0,1,57.137,239.342Z" transform="translate(-56.218 -236.166)" fill="#b4b6bc"/>
      </g>
    </g>
    <g id="Group_2740" data-name="Group 2740" transform="translate(20.236 87.69)">
      <g id="Group_2739" data-name="Group 2739" transform="translate(0 0)">
        <path id="Path_3365" data-name="Path 3365" d="M180.806,242.741a.922.922,0,0,1-.275-.043,28.306,28.306,0,0,0-3.56-.869.919.919,0,0,1,.319-1.81,30.219,30.219,0,0,1,3.791.925.919.919,0,0,1-.276,1.8Z" transform="translate(-176.212 -240.005)" fill="#b4b6bc"/>
      </g>
    </g>
    <g id="Group_2742" data-name="Group 2742" transform="translate(6.456 83.564)">
      <g id="Group_2741" data-name="Group 2741">
        <path id="Path_3366" data-name="Path 3366" d="M57.137,207.251a.919.919,0,0,1-.275-1.8,30.053,30.053,0,0,1,16.11-.528.919.919,0,1,1-.434,1.785,28.2,28.2,0,0,0-15.125.5A.925.925,0,0,1,57.137,207.251Z" transform="translate(-56.218 -204.075)" fill="#b4b6bc"/>
      </g>
    </g>
    <g id="Group_2744" data-name="Group 2744" transform="translate(6.456 80.066)">
      <g id="Group_2743" data-name="Group 2743" transform="translate(0 0)">
        <path id="Path_3367" data-name="Path 3367" d="M57.137,176.614a.919.919,0,0,1-.275-1.8,30.084,30.084,0,0,1,5.687-1.2.918.918,0,1,1,.2,1.826,28.27,28.27,0,0,0-5.339,1.124A.926.926,0,0,1,57.137,176.614Z" transform="translate(-56.218 -173.615)" fill="#b4b6bc"/>
      </g>
    </g>
    <g id="Group_2746" data-name="Group 2746" transform="translate(15.644 79.891)">
      <g id="Group_2745" data-name="Group 2745" transform="translate(0 0)">
        <path id="Path_3368" data-name="Path 3368" d="M143.576,174.751a.929.929,0,0,1-.218-.026,28.218,28.218,0,0,0-6.227-.8.919.919,0,0,1-.9-.933.893.893,0,0,1,.933-.9,30.093,30.093,0,0,1,6.633.85.919.919,0,0,1-.216,1.811Z" transform="translate(-136.226 -172.088)" fill="#b4b6bc"/>
      </g>
    </g>
    <g id="Group_2748" data-name="Group 2748" transform="translate(6.456 76.222)">
      <g id="Group_2747" data-name="Group 2747">
        <path id="Path_3369" data-name="Path 3369" d="M57.137,143.321a.919.919,0,0,1-.275-1.8,29.847,29.847,0,0,1,12.32-1.2.919.919,0,0,1,.812,1.014.909.909,0,0,1-1.015.811,28.041,28.041,0,0,0-11.566,1.124A.921.921,0,0,1,57.137,143.321Z" transform="translate(-56.218 -140.142)" fill="#b4b6bc"/>
      </g>
    </g>
    <g id="Group_2750" data-name="Group 2750" transform="translate(6.456 73.366)">
      <g id="Group_2749" data-name="Group 2749" transform="translate(0 0)">
        <path id="Path_3370" data-name="Path 3370" d="M57.137,117.62a.919.919,0,0,1-.275-1.8c.632-.2,1.269-.376,1.894-.528a.919.919,0,0,1,.434,1.785c-.587.143-1.185.309-1.779.5A.92.92,0,0,1,57.137,117.62Z" transform="translate(-56.218 -115.27)" fill="#b4b6bc"/>
      </g>
    </g>
    <g id="Group_2752" data-name="Group 2752" transform="translate(11.968 72.538)">
      <g id="Group_2751" data-name="Group 2751" transform="translate(0 0)">
        <path id="Path_3371" data-name="Path 3371" d="M115.243,110.726a.929.929,0,0,1-.218-.026,28.143,28.143,0,0,0-9.787-.628.918.918,0,1,1-.2-1.826,29.944,29.944,0,0,1,10.424.669.919.919,0,0,1-.216,1.811Z" transform="translate(-104.217 -108.06)" fill="#b4b6bc"/>
      </g>
    </g>
  </g>
</svg>
