<svg xmlns="http://www.w3.org/2000/svg" width="44.271" height="40.557" viewBox="0 0 44.271 40.557">
  <g id="burger" transform="translate(0 -21.472)">
    <path id="Path_3428" data-name="Path 3428" d="M68.09,271.2a2.895,2.895,0,0,1-2.9,2.9H31.7a2.9,2.9,0,1,1,0-5.791h33.5a2.892,2.892,0,0,1,2.9,2.9Z" transform="translate(-26.31 -225.488)" fill="#884d00"/>
    <path id="Path_3429" data-name="Path 3429" d="M70.57,270a2.9,2.9,0,0,1-2.636,1.695h-33.5a1.767,1.767,0,1,1,0-3.39h33.5A2.9,2.9,0,0,1,70.57,270Z" transform="translate(-29.049 -225.489)" fill="#aa6100"/>
    <path id="Path_3430" data-name="Path 3430" d="M44.271,332.835a9.563,9.563,0,0,1-4.519,8.341,20.018,20.018,0,0,1-10.911,2.746H15.429C6.908,343.922,0,340.3,0,332.835a2.481,2.481,0,0,1,.291-1.165,2.807,2.807,0,0,1,.643-.807,3.416,3.416,0,0,1,2.253-.817h37.9a3.239,3.239,0,0,1,2.9,1.625A2.483,2.483,0,0,1,44.271,332.835Z" transform="translate(0 -281.892)" fill="#ffa733"/>
    <path id="Path_3431" data-name="Path 3431" d="M47.051,331.672a9.575,9.575,0,0,1-4.228,5.816,20.018,20.018,0,0,1-10.911,2.746H18.5c-7.5,0-13.745-2.806-15.139-8.562A2.808,2.808,0,0,1,4,330.864a3.416,3.416,0,0,1,2.253-.817h37.9A3.239,3.239,0,0,1,47.051,331.672Z" transform="translate(-3.071 -281.893)" fill="#ffb655"/>
    <path id="Path_3432" data-name="Path 3432" d="M179.222,254.252l-7.49,7.49a4.076,4.076,0,0,1-5.764,0l-7.49-7.49Z" transform="translate(-144.775 -212.652)" fill="#eebf00"/>
    <path id="Path_3433" data-name="Path 3433" d="M222.324,254.252l-7.49,7.49a4.1,4.1,0,0,1-.6.5,4.043,4.043,0,0,1-1.563-.976l-7.01-7.01Z" transform="translate(-187.877 -212.652)" fill="#ffd422"/>
    <path id="Path_3434" data-name="Path 3434" d="M52.307,236.2a3.508,3.508,0,0,1-.205,1.185c-.55,1.535-2.022,2.13-3.17,1.282l-1.376-1.016a1.94,1.94,0,0,0-2.88.684l-.059.093a1.945,1.945,0,0,1-2.779.754l-3.082-2.015a1.842,1.842,0,0,0-2.236.134l-2.47,2.009a1.847,1.847,0,0,1-2.341.062l-2.817-2.088a1.843,1.843,0,0,0-2.319.045l-2.565,2.037a1.843,1.843,0,0,1-2.266.084l-3.321-2.308a1.83,1.83,0,0,0-2.1-.033l-3.1,2.026a3.232,3.232,0,0,1-3.066-1.249,3.457,3.457,0,0,1-.276-2.731,2.311,2.311,0,0,1,2.088-1.807H50.06a2.321,2.321,0,0,1,2.087,1.8A3.485,3.485,0,0,1,52.307,236.2Z" transform="translate(-8.877 -193.559)" fill="#6dc82a"/>
    <path id="Path_3435" data-name="Path 3435" d="M53.844,235.153c-.013.045-.029.089-.045.134-.55,1.535-2.022,2.131-3.17,1.283l-1.376-1.017a1.942,1.942,0,0,0-2.88.684l-.059.094a1.945,1.945,0,0,1-2.779.754l-3.082-2.015a1.84,1.84,0,0,0-2.236.134l-2.47,2.009a1.847,1.847,0,0,1-2.341.061l-2.817-2.088a1.844,1.844,0,0,0-2.319.045l-2.565,2.038a1.844,1.844,0,0,1-2.266.084l-3.321-2.308a1.827,1.827,0,0,0-2.1-.033l-3.1,2.025a3.23,3.23,0,0,1-3.066-1.249,3.22,3.22,0,0,1-.276-.63,2.311,2.311,0,0,1,2.088-1.807H51.757A2.321,2.321,0,0,1,53.844,235.153Z" transform="translate(-10.574 -193.557)" fill="#7ed63e"/>
    <path id="Path_3436" data-name="Path 3436" d="M59.647,181.9a2.9,2.9,0,0,1-2.9,2.962c-5.2,0-19.057-.117-21.147-.048l-.139,0c-2.639.1-3.24.523-3.24,1.93V191.9a.959.959,0,0,1-.958.959.959.959,0,0,0-.959.959v2.242a2.759,2.759,0,0,1-.079.661,2.8,2.8,0,0,1-2.731,2.136H27.42a2.728,2.728,0,0,1-2.728-2.737l.013-4.058a1.131,1.131,0,0,1,1.131-1.128,1.132,1.132,0,0,0,1.131-1.131v-3.05a1.886,1.886,0,0,0-1.886-1.886h-3.53a2.939,2.939,0,0,1-2.957-2.842,2.9,2.9,0,0,1,2.9-2.962H56.688A2.939,2.939,0,0,1,59.647,181.9Z" transform="translate(-16.986 -143.962)" fill="#ff3501"/>
    <path id="Path_3437" data-name="Path 3437" d="M93.877,181.9a2.923,2.923,0,0,1-.111.861c-5.507-.005-18.666-.114-20.7-.048-2.758.091-3.379.5-3.379,1.935v.17c-2.639.1-3.24.523-3.24,1.93V191.9a.959.959,0,0,1-.958.959.959.959,0,0,0-.959.959v2.242a2.759,2.759,0,0,1-.079.661,2.728,2.728,0,0,1-2.29-2.7l.013-4.057a1.131,1.131,0,0,1,1.131-1.128,1.132,1.132,0,0,0,1.131-1.131v-3.05a1.886,1.886,0,0,0-1.886-1.886h-3.53a2.939,2.939,0,0,1-2.957-2.842,2.9,2.9,0,0,1,.112-.862H90.918A2.939,2.939,0,0,1,93.877,181.9Z" transform="translate(-51.216 -143.962)" fill="#ff5023"/>
    <path id="Path_3438" data-name="Path 3438" d="M80.3,144.94l-6.421,6.424a5.712,5.712,0,0,1-8.078,0l-6.424-6.424Z" transform="translate(-54.247 -112.792)" fill="#eebf00"/>
    <path id="Path_3439" data-name="Path 3439" d="M118.966,144.94l-6.421,6.424a5.668,5.668,0,0,1-2.21,1.372,5.661,5.661,0,0,1-2.209-1.372L101.7,144.94Z" transform="translate(-92.907 -112.792)" fill="#ffd422"/>
    <path id="Path_3440" data-name="Path 3440" d="M44.271,33.052c0,.048,0,.095,0,.141a2.39,2.39,0,0,1-2.387,2.25H2.391A2.392,2.392,0,0,1,0,33.052a8.278,8.278,0,0,1,3.334-6.646,18.481,18.481,0,0,1,5.876-2.992,47.218,47.218,0,0,1,12.925-1.942S44.271,21.353,44.271,33.052Z" fill="#ffa733"/>
    <path id="Path_3441" data-name="Path 3441" d="M95.617,33.052c0,.048,0,.095,0,.141H58.6A2.392,2.392,0,0,1,56.206,30.8a8.277,8.277,0,0,1,3.334-6.646q.483-.392,1.016-.742a47.219,47.219,0,0,1,12.925-1.942S95.617,21.353,95.617,33.052Z" transform="translate(-51.346)" fill="#ffb655"/>
    <g id="Group_2757" data-name="Group 2757" transform="translate(10.093 24.428)">
      <path id="Path_3442" data-name="Path 3442" d="M369.542,60.238a1.012,1.012,0,1,1-1.471,1.39c-.384-.406-1.09-1.814-.684-2.2S369.158,59.832,369.542,60.238Z" transform="translate(-345.602 -59.011)" fill="#fff5cc"/>
      <path id="Path_3443" data-name="Path 3443" d="M309.808,110.912a1.012,1.012,0,1,1-1.889.726c-.2-.522-.318-2.092.2-2.292S309.608,110.39,309.808,110.912Z" transform="translate(-291.232 -104.683)" fill="#fff5cc"/>
      <path id="Path_3444" data-name="Path 3444" d="M246.321,57.721a1.012,1.012,0,1,1-2.024,0c0-.559.453-2.067,1.012-2.067S246.321,57.162,246.321,57.721Z" transform="translate(-233.267 -55.654)" fill="#fff5cc"/>
      <path id="Path_3445" data-name="Path 3445" d="M182.308,111.1a1.012,1.012,0,0,1-1.96-.506c.14-.541.956-1.888,1.5-1.748S182.448,110.563,182.308,111.1Z" transform="translate(-174.818 -104.24)" fill="#fff5cc"/>
      <path id="Path_3446" data-name="Path 3446" d="M118.653,59.384a1.012,1.012,0,0,1-1.821-.882c.244-.5,1.309-1.663,1.812-1.419S118.9,58.881,118.653,59.384Z" transform="translate(-116.731 -56.929)" fill="#fff5cc"/>
    </g>
  </g>
</svg>
