<svg id="birthday-cake" xmlns="http://www.w3.org/2000/svg" width="17.426" height="17.709" viewBox="0 0 17.426 17.709">
  <path id="Path_3105" data-name="Path 3105" d="M17.818,135.631v-2.614a1.454,1.454,0,0,0-1.452-1.452H15.2v-2.9a.29.29,0,0,0-.29-.29H13.171a.29.29,0,0,0-.29.29v2.9H10.267v-3.485a.29.29,0,0,0-.29-.29H8.234a.29.29,0,0,0-.29.29v3.485H5.33v-2.9a.29.29,0,0,0-.29-.29H3.3a.29.29,0,0,0-.29.29v2.9H1.844a1.454,1.454,0,0,0-1.452,1.452v2.614a1.685,1.685,0,0,0,.871,1.5v3.145H.683a.29.29,0,0,0,0,.581H17.527a.29.29,0,0,0,0-.581h-.581v-3.14A1.748,1.748,0,0,0,17.818,135.631Zm-4.356-6.68h1.162v2.614H13.461Zm-4.937-.581H9.686v3.195H8.524Zm-4.937.581H4.749v2.614H3.587ZM.973,133.017a.871.871,0,0,1,.871-.871H16.366a.871.871,0,0,1,.871.871v2.614a1.169,1.169,0,0,1-.7,1.066,1.188,1.188,0,0,1-1.288-.242,1.166,1.166,0,0,1-.34-.824v-1.162a1.159,1.159,0,0,0-.643-1.034l-.018-.01a1.111,1.111,0,0,0-.144-.056c-.029-.01-.055-.019-.084-.026a1.124,1.124,0,0,0-.113-.02c-.026,0-.05-.011-.076-.013s-.027,0-.041,0-.029,0-.044,0c-.032,0-.063.007-.1.009s-.066,0-.1.01a1.159,1.159,0,0,0-.148.038c-.026.008-.053.014-.078.024a1.113,1.113,0,0,0-.157.078c-.018.01-.038.018-.056.029a1.167,1.167,0,0,0-.188.152,1.154,1.154,0,0,0-.341.822v.581a1.162,1.162,0,1,1-2.323,0v-.581a1.159,1.159,0,0,0-.643-1.034l-.018-.01a1.114,1.114,0,0,0-.144-.056c-.029-.01-.055-.019-.084-.026a1.124,1.124,0,0,0-.113-.02c-.026,0-.05-.011-.076-.013s-.027,0-.041,0-.029,0-.044,0c-.032,0-.063.007-.1.009s-.066,0-.1.01a1.161,1.161,0,0,0-.148.038c-.027.008-.053.014-.079.024a1.13,1.13,0,0,0-.156.078c-.019.01-.038.018-.056.029a1.156,1.156,0,0,0-.529.974v1.743a1.162,1.162,0,1,1-2.323,0v-1.743a1.159,1.159,0,0,0-.643-1.034l-.018-.01a1.114,1.114,0,0,0-.144-.056c-.029-.01-.055-.019-.084-.026a1.124,1.124,0,0,0-.113-.02c-.026,0-.05-.011-.076-.013s-.056,0-.085,0A1.162,1.162,0,0,0,3.3,134.469v1.162a1.164,1.164,0,0,1-.338.822,1.2,1.2,0,0,1-1.085.308,1.159,1.159,0,0,1-.2-.063,1.2,1.2,0,0,1-.357-.243,1.166,1.166,0,0,1-.34-.824Zm.871,7.261v-2.928c.029,0,.058.006.087.01l.022,0a1.749,1.749,0,0,0,.752-.087,1.772,1.772,0,0,0,.215-.092l.045-.023a1.779,1.779,0,0,0,.164-.1l.05-.034a1.694,1.694,0,0,0,.7-1.392v-1.162a.577.577,0,0,1,.17-.41.59.59,0,0,1,.1-.077l.019-.01a.574.574,0,0,1,.089-.045l.027-.008a.551.551,0,0,1,.087-.022l.043,0a.631.631,0,0,1,.073,0,.75.75,0,0,1,.119.017l.021.006a.635.635,0,0,1,.417.6v1.694a1.743,1.743,0,1,0,3.485,0v-1.743a.579.579,0,0,1,.266-.487l.016-.008a.578.578,0,0,1,.093-.046l.025-.008a.613.613,0,0,1,.087-.023l.042,0a.579.579,0,0,1,.074,0,.75.75,0,0,1,.119.017l.021.006a.635.635,0,0,1,.419.6v.532a1.743,1.743,0,1,0,3.485,0v-.581a.577.577,0,0,1,.17-.41.591.591,0,0,1,.1-.077l.019-.01a.6.6,0,0,1,.089-.044l.029-.008a.54.54,0,0,1,.086-.022l.043,0a.631.631,0,0,1,.073,0,.75.75,0,0,1,.119.017l.021.006a.635.635,0,0,1,.417.6v1.113a1.744,1.744,0,0,0,.51,1.235,1.77,1.77,0,0,0,.184.156c.019.014.038.026.058.039.049.033.1.064.149.092l.061.032a1.781,1.781,0,0,0,.18.077l.037.014a1.765,1.765,0,0,0,.494.093h0a1.736,1.736,0,0,0,.243-.007l.029,0c.029,0,.058,0,.087-.009v2.928Zm0,0" transform="translate(-0.392 -123.15)" fill="#1dc468"/>
  <path id="Path_3106" data-name="Path 3106" d="M201.85,4.058A1.454,1.454,0,0,0,203.3,2.606,7.141,7.141,0,0,0,202.089.118a.3.3,0,0,0-.478,0A7.139,7.139,0,0,0,200.4,2.606,1.454,1.454,0,0,0,201.85,4.058Zm0-3.251a5.652,5.652,0,0,1,.871,1.8.871.871,0,1,1-1.743,0A5.652,5.652,0,0,1,201.85.808Zm0,0" transform="translate(-193.137 0)" fill="#1dc468"/>
  <path id="Path_3107" data-name="Path 3107" d="M337.85,20.058a1.454,1.454,0,0,0,1.452-1.452,7.142,7.142,0,0,0-1.213-2.489.3.3,0,0,0-.478,0,7.139,7.139,0,0,0-1.213,2.489A1.454,1.454,0,0,0,337.85,20.058Zm0-3.251a5.651,5.651,0,0,1,.871,1.8.871.871,0,1,1-1.743,0A5.652,5.652,0,0,1,337.85,16.808Zm0,0" transform="translate(-324.2 -15.419)" fill="#1dc468"/>
  <path id="Path_3108" data-name="Path 3108" d="M65.85,20.058A1.454,1.454,0,0,0,67.3,18.606a7.141,7.141,0,0,0-1.213-2.489.3.3,0,0,0-.478,0A7.139,7.139,0,0,0,64.4,18.606,1.454,1.454,0,0,0,65.85,20.058Zm0-3.251a5.651,5.651,0,0,1,.871,1.8.871.871,0,1,1-1.743,0A5.652,5.652,0,0,1,65.85,16.808Zm0,0" transform="translate(-62.074 -15.419)" fill="#1dc468"/>
</svg>
