<svg id="Group_2677" data-name="Group 2677" xmlns="http://www.w3.org/2000/svg" width="44.317" height="45.845" viewBox="0 0 44.317 45.845">
  <g id="birthday-cake" transform="translate(0 0)">
    <path id="Path_3115" data-name="Path 3115" d="M98.762,283.276c.042-.028.089-.047.134-.076C98.851,283.23,98.8,283.25,98.762,283.276Zm0,0" transform="translate(-90.093 -256.15)" fill="#ffcd00"/>
    <path id="Path_3116" data-name="Path 3116" d="M231.055,281.247c.057-.023.118-.037.177-.056C231.173,281.21,231.112,281.223,231.055,281.247Zm0,0" transform="translate(-209.751 -254.334)" fill="#ffcd00"/>
    <path id="Path_3117" data-name="Path 3117" d="M235.809,280.228c.066-.012.134-.015.2-.021C235.943,280.214,235.875,280.217,235.809,280.228Zm0,0" transform="translate(-214.051 -253.444)" fill="#ffcd00"/>
    <path id="Path_3118" data-name="Path 3118" d="M373.809,280.8c.045.012.088.028.132.041A1.09,1.09,0,0,0,373.809,280.8Zm0,0" transform="translate(-338.87 -253.981)" fill="#ffcd00"/>
    <path id="Path_3119" data-name="Path 3119" d="M354.762,283.276c.042-.028.089-.047.133-.076C354.851,283.23,354.8,283.25,354.762,283.276Zm0,0" transform="translate(-321.642 -256.15)" fill="#ffcd00"/>
    <path id="Path_3120" data-name="Path 3120" d="M103.055,281.247c.057-.023.118-.037.176-.056C103.173,281.21,103.112,281.223,103.055,281.247Zm0,0" transform="translate(-93.976 -254.334)" fill="#ffcd00"/>
    <path id="Path_3121" data-name="Path 3121" d="M369.038,280.063h-.076a1.621,1.621,0,0,1,.217.022C369.129,280.082,369.086,280.066,369.038,280.063Zm0,0" transform="translate(-334.485 -253.314)" fill="#ffcd00"/>
    <path id="Path_3122" data-name="Path 3122" d="M363.809,280.228c.066-.012.134-.015.2-.021C363.943,280.214,363.875,280.217,363.809,280.228Zm0,0" transform="translate(-329.825 -253.444)" fill="#ffcd00"/>
    <path id="Path_3123" data-name="Path 3123" d="M359.055,281.247c.057-.023.118-.037.177-.056C359.173,281.21,359.112,281.223,359.055,281.247Zm0,0" transform="translate(-325.525 -254.334)" fill="#ffcd00"/>
    <path id="Path_3124" data-name="Path 3124" d="M245.809,280.8c.045.012.088.028.132.041A1.1,1.1,0,0,0,245.809,280.8Zm0,0" transform="translate(-223.096 -253.981)" fill="#ffcd00"/>
    <path id="Path_3125" data-name="Path 3125" d="M107.809,280.228c.066-.012.134-.015.2-.021C107.943,280.214,107.875,280.217,107.809,280.228Zm0,0" transform="translate(-98.276 -253.444)" fill="#ffcd00"/>
    <path id="Path_3126" data-name="Path 3126" d="M226.762,283.276c.042-.028.089-.047.134-.076C226.851,283.23,226.8,283.25,226.762,283.276Zm0,0" transform="translate(-205.868 -256.15)" fill="#ffcd00"/>
    <path id="Path_3127" data-name="Path 3127" d="M113.038,280.063h-.076a1.62,1.62,0,0,1,.217.022C113.129,280.082,113.086,280.066,113.038,280.063Zm0,0" transform="translate(-102.936 -253.314)" fill="#ffcd00"/>
    <path id="Path_3128" data-name="Path 3128" d="M117.809,280.8c.045.012.088.028.132.041A1.1,1.1,0,0,0,117.809,280.8Zm0,0" transform="translate(-107.321 -253.981)" fill="#ffcd00"/>
    <path id="Path_3129" data-name="Path 3129" d="M241.038,280.063h-.076a1.62,1.62,0,0,1,.217.022C241.129,280.082,241.086,280.066,241.038,280.063Zm0,0" transform="translate(-218.711 -253.314)" fill="#ffcd00"/>
    <path id="Path_3130" data-name="Path 3130" d="M67.5,288.134a3.837,3.837,0,0,1-1.116-2.7V282.5a2.427,2.427,0,0,0-1.6-2.305c-.044-.014-.087-.03-.132-.041a2.436,2.436,0,0,0-.248-.044c-.072-.009-.144-.018-.217-.021a2.234,2.234,0,0,0-.288.01c-.068.006-.137.009-.2.021a2.4,2.4,0,0,0-.278.076c-.059.019-.12.033-.176.056a2.209,2.209,0,0,0-.276.141,1.153,1.153,0,0,0-.134.076,2.283,2.283,0,0,0-1.029,1.9V283.9a3.82,3.82,0,1,1-7.641,0v-1.4a2.427,2.427,0,0,0-1.6-2.305c-.044-.014-.087-.03-.132-.041a2.453,2.453,0,0,0-.248-.044c-.072-.009-.144-.018-.217-.021a2.245,2.245,0,0,0-.288.01c-.068.006-.137.009-.2.021a2.4,2.4,0,0,0-.278.076c-.059.019-.12.033-.176.056a2.216,2.216,0,0,0-.276.141,1.153,1.153,0,0,0-.134.076,2.282,2.282,0,0,0-1.029,1.9v4.585a3.82,3.82,0,0,1-7.641,0V282.5a2.427,2.427,0,0,0-1.6-2.305c-.044-.014-.087-.03-.132-.041a2.452,2.452,0,0,0-.248-.044c-.072-.009-.144-.018-.217-.021a2.245,2.245,0,0,0-.288.01c-.068.006-.137.009-.2.021a2.4,2.4,0,0,0-.278.076c-.059.019-.12.033-.176.056a2.217,2.217,0,0,0-.276.141,1.152,1.152,0,0,0-.134.076,2.283,2.283,0,0,0-1.029,1.9v3.056a3.809,3.809,0,0,1-3.82,3.82A3.9,3.9,0,0,1,32,288.936v9.483H71.733v-9.483a3.9,3.9,0,0,1-1.528.313A3.837,3.837,0,0,1,67.5,288.134Zm0,0" transform="translate(-29.708 -253.337)" fill="#f6e6c6"/>
    <path id="Path_3131" data-name="Path 3131" d="M49.261,232h-38.2A3.057,3.057,0,0,0,8,235.056v6.877a3.837,3.837,0,0,0,1.116,2.7,3.82,3.82,0,0,0,6.525-2.7v-3.056a2.281,2.281,0,0,1,1.028-1.909c.042-.028.089-.047.134-.077a2.267,2.267,0,0,1,.276-.141c.057-.024.118-.037.176-.056a2.4,2.4,0,0,1,.278-.077c.066-.012.134-.015.2-.02s.13-.013.2-.013c.031,0,.06.008.09.009a.479.479,0,0,1,.076,0,1.117,1.117,0,0,1,.139.024,2.444,2.444,0,0,1,.248.044c.045.012.088.027.132.041a2.28,2.28,0,0,1,1.607,2.173v4.585a3.82,3.82,0,1,0,7.641,0v-4.585a2.281,2.281,0,0,1,1.028-1.909c.042-.028.089-.047.134-.076a2.267,2.267,0,0,1,.276-.141c.057-.024.118-.037.176-.056a2.4,2.4,0,0,1,.278-.077c.066-.012.134-.015.2-.02s.13-.013.2-.013c.031,0,.06.008.09.009a.479.479,0,0,1,.076,0,1.117,1.117,0,0,1,.139.024,2.444,2.444,0,0,1,.248.044c.045.012.088.027.132.041a2.28,2.28,0,0,1,1.607,2.173v1.528a3.82,3.82,0,1,0,7.641,0v-1.528a2.281,2.281,0,0,1,1.028-1.909c.042-.028.089-.047.134-.076a2.267,2.267,0,0,1,.276-.141c.057-.024.118-.037.176-.056a2.386,2.386,0,0,1,.278-.076c.066-.012.134-.015.2-.021s.13-.013.2-.013c.031,0,.06.007.09.009a.479.479,0,0,1,.076,0,1.106,1.106,0,0,1,.139.024,2.428,2.428,0,0,1,.248.044c.045.012.088.027.132.041a2.28,2.28,0,0,1,1.607,2.173v3.056a3.809,3.809,0,0,0,3.82,3.82,3.9,3.9,0,0,0,1.528-.313,3.842,3.842,0,0,0,2.292-3.507v-6.877A3.057,3.057,0,0,0,49.261,232Zm0,0" transform="translate(-8 -209.841)" fill="#ff3051"/>
    <path id="Path_3132" data-name="Path 3132" d="M14.525,338.7a3.837,3.837,0,0,0,1.116-2.7v1.528a3.82,3.82,0,1,1-7.641,0V336a3.837,3.837,0,0,0,1.116,2.7,3.79,3.79,0,0,0,2.7,1.116A3.837,3.837,0,0,0,14.525,338.7Zm0,0" transform="translate(-8 -303.908)" fill="#e52b49"/>
    <path id="Path_3133" data-name="Path 3133" d="M142.525,354.7A3.837,3.837,0,0,0,143.641,352v1.528a3.82,3.82,0,0,1-7.641,0V352a3.825,3.825,0,0,0,6.525,2.705Zm0,0" transform="translate(-123.774 -318.38)" fill="#e52b49"/>
    <path id="Path_3134" data-name="Path 3134" d="M270.525,322.7a3.837,3.837,0,0,0,1.116-2.7v1.528a3.82,3.82,0,0,1-7.641,0V320a3.825,3.825,0,0,0,6.525,2.7Zm0,0" transform="translate(-239.549 -289.436)" fill="#e52b49"/>
    <path id="Path_3135" data-name="Path 3135" d="M399.641,336v1.528a3.842,3.842,0,0,1-2.292,3.507,3.9,3.9,0,0,1-1.528.313,3.809,3.809,0,0,1-3.82-3.82V336a3.809,3.809,0,0,0,3.82,3.82,3.9,3.9,0,0,0,1.528-.313A3.842,3.842,0,0,0,399.641,336Zm0,0" transform="translate(-355.323 -303.908)" fill="#e52b49"/>
    <path id="Path_3136" data-name="Path 3136" d="M39.071,468.113H.662c-.366,0-.662-.921-.662-2.056S.3,464,.662,464H39.071c.366,0,.662.921.662,2.057S39.436,468.113,39.071,468.113Zm0,0" transform="translate(2.292 -422.267)" fill="#e7a561"/>
    <g id="Group_2676" data-name="Group 2676" transform="translate(8.313 26.743)">
      <path id="Path_3137" data-name="Path 3137" d="M351.039,284.3a2.3,2.3,0,0,1,.355-.289A2.3,2.3,0,0,0,351.039,284.3Zm0,0" transform="translate(-326.588 -283.632)" fill="#ffcd00"/>
      <path id="Path_3138" data-name="Path 3138" d="M120.8,283.521v-.129a2.28,2.28,0,0,0-1.6-2.176A2.427,2.427,0,0,1,120.8,283.521Zm0,0" transform="translate(-116.892 -281.099)" fill="#ffcd00"/>
      <path id="Path_3139" data-name="Path 3139" d="M243.2,280.32a2.388,2.388,0,0,1,.248.044A2.388,2.388,0,0,0,243.2,280.32Zm0,0" transform="translate(-229.048 -280.289)" fill="#ffcd00"/>
      <path id="Path_3140" data-name="Path 3140" d="M248.8,283.521v-.129a2.28,2.28,0,0,0-1.6-2.176A2.427,2.427,0,0,1,248.8,283.521Zm0,0" transform="translate(-232.666 -281.099)" fill="#ffcd00"/>
      <path id="Path_3141" data-name="Path 3141" d="M376.8,283.521v-.129a2.28,2.28,0,0,0-1.6-2.176A2.427,2.427,0,0,1,376.8,283.521Zm0,0" transform="translate(-348.441 -281.099)" fill="#ffcd00"/>
      <path id="Path_3142" data-name="Path 3142" d="M232.9,280.467a2.467,2.467,0,0,1,.278-.077A2.467,2.467,0,0,0,232.9,280.467Zm0,0" transform="translate(-219.734 -280.353)" fill="#ffcd00"/>
      <path id="Path_3143" data-name="Path 3143" d="M110.127,280c-.068,0-.131.015-.2.02a2.256,2.256,0,0,1,.288-.01C110.187,280.007,110.158,280,110.127,280Zm0,0" transform="translate(-108.507 -280)" fill="#ffcd00"/>
      <path id="Path_3144" data-name="Path 3144" d="M115.2,280.32a2.387,2.387,0,0,1,.248.044A2.387,2.387,0,0,0,115.2,280.32Zm0,0" transform="translate(-113.273 -280.289)" fill="#ffcd00"/>
      <path id="Path_3145" data-name="Path 3145" d="M366.127,280c-.068,0-.131.015-.2.02a2.256,2.256,0,0,1,.288-.01C366.187,280.007,366.158,280,366.127,280Zm0,0" transform="translate(-340.057 -280)" fill="#ffcd00"/>
      <path id="Path_3146" data-name="Path 3146" d="M100.16,281.919a2.226,2.226,0,0,1,.276-.141A2.226,2.226,0,0,0,100.16,281.919Zm0,0" transform="translate(-99.671 -281.608)" fill="#ffcd00"/>
      <path id="Path_3147" data-name="Path 3147" d="M356.16,281.919a2.224,2.224,0,0,1,.276-.141A2.224,2.224,0,0,0,356.16,281.919Zm0,0" transform="translate(-331.22 -281.608)" fill="#ffcd00"/>
      <path id="Path_3148" data-name="Path 3148" d="M360.9,280.467a2.465,2.465,0,0,1,.278-.077A2.465,2.465,0,0,0,360.9,280.467Zm0,0" transform="translate(-335.509 -280.353)" fill="#ffcd00"/>
      <path id="Path_3149" data-name="Path 3149" d="M95.039,284.3a2.3,2.3,0,0,1,.356-.289A2.3,2.3,0,0,0,95.039,284.3Zm0,0" transform="translate(-95.039 -283.632)" fill="#ffcd00"/>
      <path id="Path_3150" data-name="Path 3150" d="M104.9,280.467a2.468,2.468,0,0,1,.278-.077A2.468,2.468,0,0,0,104.9,280.467Zm0,0" transform="translate(-103.96 -280.353)" fill="#ffcd00"/>
      <path id="Path_3151" data-name="Path 3151" d="M238.127,280c-.068,0-.131.015-.2.02a2.256,2.256,0,0,1,.288-.01C238.187,280.007,238.158,280,238.127,280Zm0,0" transform="translate(-224.282 -280)" fill="#ffcd00"/>
      <path id="Path_3152" data-name="Path 3152" d="M223.039,284.3a2.3,2.3,0,0,1,.356-.289A2.3,2.3,0,0,0,223.039,284.3Zm0,0" transform="translate(-210.814 -283.632)" fill="#ffcd00"/>
      <path id="Path_3153" data-name="Path 3153" d="M371.2,280.32a2.387,2.387,0,0,1,.248.044A2.387,2.387,0,0,0,371.2,280.32Zm0,0" transform="translate(-344.823 -280.289)" fill="#ffcd00"/>
      <path id="Path_3154" data-name="Path 3154" d="M228.16,281.919a2.227,2.227,0,0,1,.276-.141A2.227,2.227,0,0,0,228.16,281.919Zm0,0" transform="translate(-215.445 -281.608)" fill="#ffcd00"/>
    </g>
    <path id="Path_3155" data-name="Path 3155" d="M216,128h4.585v9.933H216Zm0,0" transform="translate(-196.134 -115.775)" fill="#ff9811"/>
    <path id="Path_3156" data-name="Path 3156" d="M208,6.113a3.056,3.056,0,0,0,6.113,0c0-1.688-3.056-6.113-3.056-6.113S208,4.425,208,6.113Zm0,0" transform="translate(-188.898 0)" fill="#ffe227"/>
    <path id="Path_3157" data-name="Path 3157" d="M352,144h4.585v8.405H352Zm0,0" transform="translate(-319.144 -130.246)" fill="#ff9811"/>
    <path id="Path_3158" data-name="Path 3158" d="M344,22.113a3.056,3.056,0,1,0,6.113,0c0-1.688-3.056-6.113-3.056-6.113S344,20.425,344,22.113Zm0,0" transform="translate(-311.908 -14.472)" fill="#ffe227"/>
    <path id="Path_3159" data-name="Path 3159" d="M80,144h4.585v8.405H80Zm0,0" transform="translate(-73.123 -130.246)" fill="#ff9811"/>
    <path id="Path_3160" data-name="Path 3160" d="M78.113,22.113a3.061,3.061,0,0,1-2.667,3.034h-.007a3.116,3.116,0,0,1-.382.023A3.057,3.057,0,0,1,72,22.113C72,20.424,75.056,16,75.056,16s.153.222.382.573c.825,1.253,2.674,4.225,2.674,5.54Zm0,0" transform="translate(-65.887 -14.472)" fill="#ffe227"/>
    <path id="Path_3161" data-name="Path 3161" d="M75.438,25.147a3.117,3.117,0,0,1-.382.023A3.057,3.057,0,0,1,72,22.113C72,20.424,75.056,16,75.056,16s.153.222.382.573c-.825,1.253-2.674,4.225-2.674,5.54A3.062,3.062,0,0,0,75.438,25.147Zm0,0" transform="translate(-65.887 -14.472)" fill="#eed220"/>
    <path id="Path_3162" data-name="Path 3162" d="M211.438,9.146a3.116,3.116,0,0,1-.382.023A3.057,3.057,0,0,1,208,6.113C208,4.424,211.056,0,211.056,0s.153.222.382.573c-.825,1.253-2.674,4.225-2.674,5.54a3.062,3.062,0,0,0,2.674,3.034Zm0,0" transform="translate(-188.898 0)" fill="#eed220"/>
    <path id="Path_3163" data-name="Path 3163" d="M347.438,25.147a3.118,3.118,0,0,1-.382.023A3.057,3.057,0,0,1,344,22.113c0-1.689,3.056-6.113,3.056-6.113s.153.222.382.573c-.825,1.253-2.674,4.225-2.674,5.54A3.062,3.062,0,0,0,347.438,25.147Zm0,0" transform="translate(-311.908 -14.472)" fill="#eed220"/>
    <path id="Path_3164" data-name="Path 3164" d="M80,144h4.585v1.528H80Zm0,0" transform="translate(-73.123 -130.246)" fill="#e5890f"/>
    <path id="Path_3165" data-name="Path 3165" d="M216,128h4.585v1.528H216Zm0,0" transform="translate(-196.134 -115.775)" fill="#e5890f"/>
    <path id="Path_3166" data-name="Path 3166" d="M352,144h4.585v1.528H352Zm0,0" transform="translate(-319.144 -130.246)" fill="#e5890f"/>
  </g>
</svg>
