<svg xmlns="http://www.w3.org/2000/svg" width="40.296" height="40.406" viewBox="0 0 72.032 55.406"
   status="complete">
   <g id="Group_7626" data-name="Group 7626" transform="translate(-7549.792 -3625.655)">
      <g id="calendar-60" transform="translate(7550.042 3625.655)">
         <path id="Path_2259" data-name="Path 2259"
            d="M1,50.971c0,1.324,1.392,2.4,3.11,2.4H69.422c1.718,0,3.11-1.074,3.11-2.4V15H1Z"
            transform="translate(-1 1.787)" fill="#fff" stroke="#e8e8e8" stroke-width="0.5"></path>
         <path id="Path_2260" data-name="Path 2260"
            d="M69.422,5H4.11C2.392,5,1,6.074,1,7.4V16.99H72.532V7.4C72.532,6.074,71.14,5,69.422,5Z"
            transform="translate(-1 -0.204)" fill="#f5f5f5" stroke="#e8e8e8" stroke-width="0.5"></path>
         <path id="Path_2261" data-name="Path 2261"
            d="M10,11.791V2.2A1.241,1.241,0,0,1,11.279,1h2.557a1.241,1.241,0,0,1,1.279,1.2v9.592a1.241,1.241,0,0,1-1.279,1.2H11.279A1.241,1.241,0,0,1,10,11.791Z"
            transform="translate(4.232 -1)" fill="#444"></path>
         <path id="Path_2262" data-name="Path 2262"
            d="M34,11.791V2.2A1.241,1.241,0,0,1,35.279,1h2.557a1.241,1.241,0,0,1,1.279,1.2v9.592a1.241,1.241,0,0,1-1.279,1.2H35.279A1.241,1.241,0,0,1,34,11.791Z"
            transform="translate(18.186 -1)" fill="#444"></path>
      </g>
      <text fill="black" id="TK_1_000" data-name="TK 1,000" transform="translate(7557.309 3666.277)"
         font-size="16" font-family="Gilroy-Bold" font-weight="700">
         <tspan x="0" y="0">TK 1000</tspan>
      </text>
   </g>
</svg>