<svg id="checked" xmlns="http://www.w3.org/2000/svg" width="384.97" height="384.97" viewBox="0 0 384.97 384.97">
  <g id="Check_Circle">
    <path id="Path_5173" data-name="Path 5173" d="M192.485,0C86.173,0,0,86.173,0,192.485S86.173,384.97,192.485,384.97,384.97,298.785,384.97,192.485,298.785,0,192.485,0Zm0,360.909A168.424,168.424,0,1,1,360.909,192.485,168.424,168.424,0,0,1,192.485,360.909Z" fill="#1dc468"/>
    <path id="Path_5174" data-name="Path 5174" d="M280.306,125.031,156.538,247.692l-51.5-50.479a12.22,12.22,0,0,0-17.179,0,11.931,11.931,0,0,0,0,17.011L148,273.16c4.932,4.343,12.307,4.824,17.179,0L297.5,142.042a11.952,11.952,0,0,0,0-17.011A12.256,12.256,0,0,0,280.306,125.031Z" fill="#1dc468"/>
  </g>
</svg>
