<svg xmlns="http://www.w3.org/2000/svg" width="384.967" height="203.263" viewBox="0 0 384.967 203.263">
  <g id="check" transform="translate(0 -90.853)">
    <g id="Double_Check">
      <path id="Path_5165" data-name="Path 5165" d="M273.347,94.381Z" fill="#1dc468"/>
      <path id="Path_5166" data-name="Path 5166" d="M381.4,94.381Z" fill="#1dc468"/>
      <path id="Path_5167" data-name="Path 5167" d="M273.347,94.381Z" fill="#1dc468"/>
      <path id="Path_5168" data-name="Path 5168" d="M273.347,94.381h0a12.235,12.235,0,0,0-17.191,0L84.278,265.127,20.734,202.654a12.22,12.22,0,0,0-17.179,0,11.952,11.952,0,0,0,0,17.011l72.17,70.967a12.348,12.348,0,0,0,17.191,0l180.43-179.239A11.943,11.943,0,0,0,273.347,94.381Z" fill="#1dc468"/>
      <path id="Path_5169" data-name="Path 5169" d="M273.347,94.381Z" fill="#1dc468"/>
      <path id="Path_5170" data-name="Path 5170" d="M381.4,94.381h0C379.033,92.035,380.224,93.2,381.4,94.381Z" fill="#1dc468"/>
      <path id="Path_5171" data-name="Path 5171" d="M381.4,94.381Z" fill="#1dc468"/>
      <path id="Path_5172" data-name="Path 5172" d="M381.4,94.381h0a12.235,12.235,0,0,0-17.191,0L192.334,265.127l-15.423-14.352a12.22,12.22,0,0,0-17.179,0,11.952,11.952,0,0,0,0,17.011l24.049,22.846a12.348,12.348,0,0,0,17.191,0L381.4,111.393A11.932,11.932,0,0,0,381.4,94.381Z" fill="#1dc468"/>
    </g>
  </g>
</svg>
