<svg id="crayons" xmlns="http://www.w3.org/2000/svg" width="54.027" height="46.991" viewBox="0 0 54.027 46.991">
  <path id="Path_3372" data-name="Path 3372" d="M15.668,0H13.7a.755.755,0,0,0-.718.521l-2.514,7.69v6.3H18.9v-6.3L16.386.521A.756.756,0,0,0,15.668,0Zm0,0" transform="translate(-9.512)" fill="#fc7371"/>
  <path id="Path_3373" data-name="Path 3373" d="M12.987.521l-2.514,7.69H18.9L16.386.521A.756.756,0,0,0,15.668,0H13.7a.755.755,0,0,0-.718.521Zm0,0" transform="translate(-9.512 0)" fill="#d84444"/>
  <path id="Path_3374" data-name="Path 3374" d="M9.465,162.9H.885A.884.884,0,0,1,0,162.015V128.506a.884.884,0,0,1,.884-.884H9.465a.884.884,0,0,1,.884.884v33.509A.884.884,0,0,1,9.465,162.9Zm0,0" transform="translate(0 -115.909)" fill="#fc7371"/>
  <path id="Path_3375" data-name="Path 3375" d="M55.6,127.621H50.8V162.9h4.8a.884.884,0,0,0,.884-.884V128.505a.884.884,0,0,0-.884-.884Zm0,0" transform="translate(-46.138 -115.908)" fill="#d84444"/>
  <path id="Path_3376" data-name="Path 3376" d="M10.35,128.506a.884.884,0,0,0-.884-.884H.885a.884.884,0,0,0-.884.884v3.961H10.35Zm0,0" transform="translate(0 -115.908)" fill="#45748c"/>
  <path id="Path_3377" data-name="Path 3377" d="M55.6,127.621H50.8v4.845h5.687v-3.961A.884.884,0,0,0,55.6,127.621Zm0,0" transform="translate(-46.138 -115.908)" fill="#236575"/>
  <path id="Path_3378" data-name="Path 3378" d="M0,459.207v3.961a.884.884,0,0,0,.884.884H9.465a.884.884,0,0,0,.884-.884v-3.961Zm0,0" transform="translate(0 -417.062)" fill="#45748c"/>
  <path id="Path_3379" data-name="Path 3379" d="M56.488,463.168v-3.961H50.8v4.845h4.8a.884.884,0,0,0,.884-.884Zm0,0" transform="translate(-46.139 -417.061)" fill="#236575"/>
  <path id="Path_3380" data-name="Path 3380" d="M36.492,254.189c0-3.356-1-6.076-2.236-6.076s-2.236,2.72-2.236,6.076,1,6.076,2.236,6.076S36.492,257.545,36.492,254.189Zm0,0" transform="translate(-29.081 -225.342)" fill="#f3e8d6"/>
  <path id="Path_3381" data-name="Path 3381" d="M174.3,0h-1.964a.755.755,0,0,0-.718.521l-2.514,7.69v6.3h8.427v-6.3L175.023.521A.755.755,0,0,0,174.3,0Zm0,0" transform="translate(-153.589)" fill="#ffe169"/>
  <path id="Path_3382" data-name="Path 3382" d="M171.623.521l-2.514,7.69h8.427L175.022.521A.755.755,0,0,0,174.3,0h-1.964a.755.755,0,0,0-.718.521Zm0,0" transform="translate(-153.589 0)" fill="#efb525"/>
  <path id="Path_3383" data-name="Path 3383" d="M168.1,162.9h-8.581a.884.884,0,0,1-.884-.884V128.506a.884.884,0,0,1,.884-.884H168.1a.884.884,0,0,1,.884.884v33.509A.885.885,0,0,1,168.1,162.9Zm0,0" transform="translate(-144.074 -115.909)" fill="#ffe169"/>
  <path id="Path_3384" data-name="Path 3384" d="M214.241,127.621h-4.8V162.9h4.8a.884.884,0,0,0,.884-.884V128.505a.884.884,0,0,0-.884-.884Zm0,0" transform="translate(-190.216 -115.908)" fill="#efb525"/>
  <path id="Path_3385" data-name="Path 3385" d="M158.637,459.207v3.961a.884.884,0,0,0,.884.884H168.1a.884.884,0,0,0,.884-.884v-3.961Zm0,0" transform="translate(-144.077 -417.062)" fill="#45748c"/>
  <path id="Path_3386" data-name="Path 3386" d="M168.982,128.506a.884.884,0,0,0-.884-.884h-8.581a.884.884,0,0,0-.884.884v3.961h10.35Zm0,0" transform="translate(-144.073 -115.908)" fill="#45748c"/>
  <path id="Path_3387" data-name="Path 3387" d="M215.124,463.168v-3.961h-5.687v4.845h4.8A.884.884,0,0,0,215.124,463.168Zm0,0" transform="translate(-190.215 -417.061)" fill="#236575"/>
  <path id="Path_3388" data-name="Path 3388" d="M215.124,132.466v-3.961a.884.884,0,0,0-.884-.884h-4.8v4.845Zm0,0" transform="translate(-190.215 -115.908)" fill="#236575"/>
  <path id="Path_3389" data-name="Path 3389" d="M195.125,254.189c0-3.356-1-6.076-2.236-6.076s-2.236,2.72-2.236,6.076,1,6.076,2.236,6.076S195.125,257.545,195.125,254.189Zm0,0" transform="translate(-173.155 -225.342)" fill="#f3e8d6"/>
  <path id="Path_3390" data-name="Path 3390" d="M332.941,0h-1.963a.755.755,0,0,0-.718.521l-2.514,7.69v6.3h8.427v-6.3L333.659.521A.756.756,0,0,0,332.941,0Zm0,0" transform="translate(-297.666)" fill="#32d692"/>
  <path id="Path_3403" data-name="Path 3403" d="M332.941,0h-1.963a.755.755,0,0,0-.718.521l-2.514,7.69v6.3h8.427v-6.3L333.659.521A.756.756,0,0,0,332.941,0Zm0,0" transform="translate(-283.107)" fill="#32c0d6"/>
  <path id="Path_3391" data-name="Path 3391" d="M330.256.521l-2.514,7.69h8.427L333.655.521A.755.755,0,0,0,332.938,0h-1.963a.756.756,0,0,0-.718.521Zm0,0" transform="translate(-297.663 0)" fill="#21c17e"/>
  <path id="Path_3404" data-name="Path 3404" d="M330.256.521l-2.514,7.69h8.427L333.655.521A.755.755,0,0,0,332.938,0h-1.963a.756.756,0,0,0-.718.521Zm0,0" transform="translate(-283.103 0)" fill="#2196c1"/>
  <path id="Path_3392" data-name="Path 3392" d="M326.734,162.9h-8.581a.884.884,0,0,1-.884-.884V128.506a.884.884,0,0,1,.884-.884h8.581a.884.884,0,0,1,.884.884v33.509A.884.884,0,0,1,326.734,162.9Zm0,0" transform="translate(-288.151 -115.909)" fill="#32d692"/>
  <path id="Path_3399" data-name="Path 3399" d="M326.734,162.9h-8.581a.884.884,0,0,1-.884-.884V128.506a.884.884,0,0,1,.884-.884h8.581a.884.884,0,0,1,.884.884v33.509A.884.884,0,0,1,326.734,162.9Zm0,0" transform="translate(-273.591 -115.909)" fill="#32c0d6"/>
  <path id="Path_3393" data-name="Path 3393" d="M373.757,162.015V128.506a.884.884,0,0,0-.884-.884h-4.8V162.9h4.8a.884.884,0,0,0,.884-.884Zm0,0" transform="translate(-334.289 -115.908)" fill="#21c17e"/>
  <path id="Path_3400" data-name="Path 3400" d="M373.757,162.015V128.506a.884.884,0,0,0-.884-.884h-4.8V162.9h4.8a.884.884,0,0,0,.884-.884Zm0,0" transform="translate(-319.73 -115.908)" fill="#2196c1"/>
  <path id="Path_3394" data-name="Path 3394" d="M327.619,128.506a.884.884,0,0,0-.884-.884h-8.581a.884.884,0,0,0-.884.884v3.961h10.35Zm0,0" transform="translate(-288.151 -115.908)" fill="#45748c"/>
  <path id="Path_3401" data-name="Path 3401" d="M327.619,128.506a.884.884,0,0,0-.884-.884h-8.581a.884.884,0,0,0-.884.884v3.961h10.35Zm0,0" transform="translate(-273.592 -115.908)" fill="#45748c"/>
  <path id="Path_3395" data-name="Path 3395" d="M373.757,132.466v-3.961a.884.884,0,0,0-.884-.884h-4.8v4.845Zm0,0" transform="translate(-334.289 -115.908)" fill="#236575"/>
  <path id="Path_3402" data-name="Path 3402" d="M373.757,132.466v-3.961a.884.884,0,0,0-.884-.884h-4.8v4.845Zm0,0" transform="translate(-319.73 -115.908)" fill="#236575"/>
  <path id="Path_3396" data-name="Path 3396" d="M317.27,459.207v3.961a.884.884,0,0,0,.884.884h8.581a.884.884,0,0,0,.884-.884v-3.961Zm0,0" transform="translate(-288.151 -417.062)" fill="#45748c"/>
  <path id="Path_3406" data-name="Path 3406" d="M317.27,459.207v3.961a.884.884,0,0,0,.884.884h8.581a.884.884,0,0,0,.884-.884v-3.961Zm0,0" transform="translate(-273.592 -417.062)" fill="#45748c"/>
  <path id="Path_3397" data-name="Path 3397" d="M373.757,463.168v-3.961H368.07v4.845h4.8A.884.884,0,0,0,373.757,463.168Zm0,0" transform="translate(-334.289 -417.061)" fill="#236575"/>
  <path id="Path_3407" data-name="Path 3407" d="M373.757,463.168v-3.961H368.07v4.845h4.8A.884.884,0,0,0,373.757,463.168Zm0,0" transform="translate(-319.73 -417.061)" fill="#236575"/>
  <path id="Path_3398" data-name="Path 3398" d="M353.761,254.189c0-3.356-1-6.076-2.236-6.076s-2.236,2.72-2.236,6.076,1,6.076,2.236,6.076S353.761,257.545,353.761,254.189Zm0,0" transform="translate(-317.232 -225.342)" fill="#f3e8d6"/>
  <path id="Path_3405" data-name="Path 3405" d="M353.761,254.189c0-3.356-1-6.076-2.236-6.076s-2.236,2.72-2.236,6.076,1,6.076,2.236,6.076S353.761,257.545,353.761,254.189Zm0,0" transform="translate(-302.673 -225.342)" fill="#f3e8d6"/>
</svg>
