<svg xmlns="http://www.w3.org/2000/svg" width="36.116" height="22.572" viewBox="0 0 36.116 22.572">
  <g id="surface1" transform="translate(0 -0.301)">
    <path id="Path_3141" data-name="Path 3141" d="M0,19.863V3.31A3.01,3.01,0,0,1,3.014.3h30.1a3.01,3.01,0,0,1,3.01,3.01V19.863a3.01,3.01,0,0,1-3.01,3.01H3.014A3.01,3.01,0,0,1,0,19.863Zm0,0" transform="translate(-0.004 0)" fill="#4297cf"/>
    <path id="Path_3142" data-name="Path 3142" d="M125.29.3h-3.2L99.52,22.873h25.77a3.01,3.01,0,0,0,3.01-3.01V3.31A3.01,3.01,0,0,0,125.29.3Zm0,0" transform="translate(-92.184 0)" fill="#3d8ac7"/>
    <path id="Path_3143" data-name="Path 3143" d="M40.832,163.609h3.01v1.5h-3.01Zm0,0" transform="translate(-37.822 -151.27)" fill="#5cb3cf"/>
    <path id="Path_3144" data-name="Path 3144" d="M40.832,224.852h3.01v1.5h-3.01Zm0,0" transform="translate(-37.822 -207.998)" fill="#5cb3cf"/>
    <path id="Path_3145" data-name="Path 3145" d="M224.555,224.852h3.01v1.5h-3.01Zm0,0" transform="translate(-208.002 -207.998)" fill="#5cb3cf"/>
    <path id="Path_3146" data-name="Path 3146" d="M102.074,163.609h3.009v1.5h-3.009Zm0,0" transform="translate(-94.55 -151.27)" fill="#5cb3cf"/>
    <path id="Path_3147" data-name="Path 3147" d="M163.313,163.609h3.01v1.5h-3.01Zm0,0" transform="translate(-151.275 -151.27)" fill="#5cb3cf"/>
    <path id="Path_3148" data-name="Path 3148" d="M224.555,163.609h3.01v1.5h-3.01Zm0,0" transform="translate(-208.002 -151.27)" fill="#5cb3cf"/>
    <path id="Path_3149" data-name="Path 3149" d="M418.484,41.129h1.5v2.257h-1.5Zm0,0" transform="translate(-387.635 -37.818)" fill="#5cb3cf"/>
    <path id="Path_3150" data-name="Path 3150" d="M377.656,41.129h1.5v2.257h-1.5Zm0,0" transform="translate(-349.817 -37.818)" fill="#5cb3cf"/>
    <path id="Path_3151" data-name="Path 3151" d="M336.828,41.129h1.5v2.257h-1.5Zm0,0" transform="translate(-311.999 -37.818)" fill="#5cb3cf"/>
    <path id="Path_3152" data-name="Path 3152" d="M296,41.129h1.5v2.257H296Zm0,0" transform="translate(-274.184 -37.818)" fill="#5cb3cf"/>
    <path id="Path_3156" data-name="Path 3156" d="M40.832,45.944V42.333a1.2,1.2,0,0,1,1.2-1.2h3.611a1.2,1.2,0,0,1,1.2,1.2v3.612a1.2,1.2,0,0,1-1.2,1.2H42.036A1.2,1.2,0,0,1,40.832,45.944Zm0,0" transform="translate(-37.822 -37.818)" fill="#fdb52e"/>
    <path id="Path_3157" data-name="Path 3157" d="M40.832,71.75h2.257v1.5H40.832Zm0,0" transform="translate(-37.822 -66.182)" fill="#fd7a2e"/>
    <path id="Path_3158" data-name="Path 3158" d="M91.867,71.75h2.257v1.5H91.867Zm0,0" transform="translate(-85.095 -66.182)" fill="#fd7a2e"/>
  </g>
</svg>
