<svg id="danger-symbol" xmlns="http://www.w3.org/2000/svg" width="295.428" height="295.428" viewBox="0 0 295.428 295.428">
  <path id="Path_5165" data-name="Path 5165" d="M147.714,0C66.264,0,0,66.264,0,147.714S66.264,295.428,147.714,295.428s147.714-66.264,147.714-147.714S229.164,0,147.714,0Zm0,265.428A117.714,117.714,0,1,1,265.428,147.714,117.848,117.848,0,0,1,147.714,265.428Z" fill="#eb242a"/>
  <path id="Path_5166" data-name="Path 5166" d="M147.714,61.68a15,15,0,0,0-15,15v79a15,15,0,0,0,30,0v-79A15,15,0,0,0,147.714,61.68Z" fill="#eb242a"/>
  <circle id="Ellipse_630" data-name="Ellipse 630" cx="15" cy="15" r="15" transform="translate(132.714 202.68)" fill="#eb242a"/>
</svg>
