<svg xmlns="http://www.w3.org/2000/svg" width="97" height="97" viewBox="0 0 97 97">
  <g id="Group_6909" data-name="Group 6909" transform="translate(-1125 -1458.861)">
    <rect id="Rectangle_6230" data-name="Rectangle 6230" width="97" height="97" rx="10" transform="translate(1125 1458.861)" fill="#f5f5f5"/>
    <g id="Group_6875" data-name="Group 6875" transform="translate(718.621 -588.542)">
      <g id="sister-and-brother" transform="translate(464.977 2083.757)">
        <circle id="Ellipse_601" data-name="Ellipse 601" cx="3.078" cy="3.078" r="3.078" transform="translate(18.582 0.675)" fill="#1dc468"/>
        <path id="Path_3805" data-name="Path 3805" d="M29.5,123.821l-4.737-8.131a1.353,1.353,0,0,0-1.035-.665H19.7a1.353,1.353,0,0,0-1.035.665l-3.569,6.127-3.962-6.8a1.354,1.354,0,0,0-1.175-.672H6.1a1.354,1.354,0,0,0-1.175.672L.184,123.147a1.355,1.355,0,1,0,2.342,1.365l2.09-3.587v1.536L3.681,129.2a.944.944,0,0,0,.935,1.074h0V134.4a1.453,1.453,0,0,0,1.378,1.464,1.43,1.43,0,0,0,1.483-1.429v-4.159h1.13V134.4a1.453,1.453,0,0,0,1.378,1.464,1.43,1.43,0,0,0,1.482-1.429v-4.159h0A.944.944,0,0,0,12.4,129.2l-.935-6.739v-1.486l2.061,3.537a4.348,4.348,0,0,0,.888,1.163,1.355,1.355,0,0,0,1.853-.489L18.3,121.7l-.02,12a1.43,1.43,0,0,0,1.43,1.43h.02a1.43,1.43,0,0,0,1.43-1.43l-.02-7.239a.578.578,0,0,1,.527-.583.565.565,0,0,1,.6.564v7.224a1.453,1.453,0,0,0,1.378,1.464,1.43,1.43,0,0,0,1.483-1.429v-12l2.031,3.486a1.355,1.355,0,0,0,2.342-1.365Z" transform="translate(0 -107.662)" fill="#1dc468"/>
        <path id="Path_3806" data-name="Path 3806" d="M37.26,17.561l.762-.068a.74.74,0,0,0,.661-.88,2.427,2.427,0,0,1,.372-2.141c0,.024,0,.047,0,.071a3.078,3.078,0,1,0,6.156,0c0-.024,0-.048,0-.071a2.427,2.427,0,0,1,.371,2.141.74.74,0,0,0,.661.88l.762.068a.741.741,0,0,0,.8-.659c.1-.976.087-2.441-.465-3.022a2.64,2.64,0,0,0-2.474-.749,3.077,3.077,0,0,0-5.468,0,2.64,2.64,0,0,0-2.474.749c-.552.582-.57,2.046-.466,3.022A.741.741,0,0,0,37.26,17.561Z" transform="translate(-34.043 -11.466)" fill="#1dc468"/>
      </g>
      <g id="Group_6874" data-name="Group 6874" transform="translate(416 2074.931)">
        <g id="disability_1_" data-name="disability (1)" transform="translate(0 0)">
          <g id="Group_6871" data-name="Group 6871" transform="translate(0 9.664)">
            <g id="Group_6870" data-name="Group 6870" transform="translate(0)">
              <path id="Path_3807" data-name="Path 3807" d="M89.33,158l-2.415-10.463a2.411,2.411,0,0,0-2.343-1.829H79.882a10.072,10.072,0,0,0-2.552-2.814v-6.844a2.43,2.43,0,0,0-3.495-2.16L69.006,136.3a2.394,2.394,0,0,0-1.327,2.16v3.088c-.015.005-.03.007-.045.013a10.06,10.06,0,1,0,13.7,8.972h1.352l1.957,8.635A2.415,2.415,0,1,0,89.33,158Zm-18.037.586a7.638,7.638,0,0,1-3.614-14.371v3.1a2.411,2.411,0,1,0,4.821,0v-3.952a1.2,1.2,0,0,0,.184.053,7.647,7.647,0,0,1-1.391,15.166Z" transform="translate(-61.233 -133.638)" fill="#1dc468"/>
            </g>
          </g>
          <g id="Group_6873" data-name="Group 6873" transform="translate(10.463)">
            <g id="Group_6872" data-name="Group 6872" transform="translate(0)">
              <path id="Path_3808" data-name="Path 3808" d="M209.54,0a3.622,3.622,0,1,0,3.622,3.622A3.626,3.626,0,0,0,209.54,0Z" transform="translate(-205.918)" fill="#1dc468"/>
            </g>
          </g>
        </g>
        <g id="Ellipse_602" data-name="Ellipse 602" transform="translate(3.508 20.619)" fill="none" stroke="#fff" stroke-width="1">
          <ellipse cx="6.665" cy="6.315" rx="6.665" ry="6.315" stroke="none"/>
          <ellipse cx="6.665" cy="6.315" rx="6.165" ry="5.815" fill="none"/>
        </g>
      </g>
      <g id="woman" transform="translate(442.398 2068.054)">
        <path id="Path_3811" data-name="Path 3811" d="M97.262,82.4,92.768,69.568A1.983,1.983,0,0,0,90.825,68.3H81.345A1.983,1.983,0,0,0,79.4,69.568L74.908,82.4a1.939,1.939,0,0,0,.982,2.41,1.9,1.9,0,0,0,2.587-1.1L80.7,77.361v1.311l-2.829,9.613a1.382,1.382,0,0,0,.745,1.418,1.4,1.4,0,0,0,.644.146h1.478v10.276a2.323,2.323,0,0,0,2.171,2.343,2.281,2.281,0,0,0,2.391-2.278V90.633a.785.785,0,0,1,.785-.785h0a.785.785,0,0,1,.785.785v9.49a2.323,2.323,0,0,0,2.171,2.343,2.281,2.281,0,0,0,2.391-2.278V89.848H92.91a1.4,1.4,0,0,0,.644-.146,1.382,1.382,0,0,0,.745-1.418L91.47,78.671V77.361l2.223,6.345a1.9,1.9,0,0,0,2.587,1.1A1.938,1.938,0,0,0,97.262,82.4Z" transform="translate(-74.795 -58.567)" fill="#1dc468"/>
        <circle id="Ellipse_604" data-name="Ellipse 604" cx="4.133" cy="4.133" r="4.133" transform="translate(7.186 0)" fill="#1dc468"/>
      </g>
    </g>
  </g>
</svg>
