<svg xmlns="http://www.w3.org/2000/svg" width="49.782" height="57.139" viewBox="0 0 49.782 57.139">
  <g id="exercise" transform="translate(-24 -24.057)">
    <circle id="Ellipse_8" data-name="Ellipse 8" cx="3.941" cy="3.941" r="3.941" transform="translate(57.5 29.962)" fill="#e8c8b3"/>
    <path id="Path_3408" data-name="Path 3408" d="M230.177,112a6.5,6.5,0,0,1,4.593,1.9l5.98,5.98-1.971,3.941-2.956-1.971-1.971,5.912h-8.868l3.941-11.823L224,117.912v-3.941l3.765-1.506a6.5,6.5,0,0,1,2.412-.465Z" transform="translate(-175.368 -77.112)" fill="#04957c"/>
    <path id="Path_3409" data-name="Path 3409" d="M257.735,246.443v.238a3.7,3.7,0,0,1-.707,2.173l-2.993,4.116-4.183,5.75L246.9,256.75l3.659-6.1,2.253-3.754h-8.868A3.94,3.94,0,0,1,240,242.956V240h7.882l4.926,1.971,2.6,1.042a3.693,3.693,0,0,1,2.323,3.43Z" transform="translate(-189.397 -189.347)" fill="#e8c8b3"/>
    <path id="Path_3410" data-name="Path 3410" d="M146.72,274.956l-2.956,4.926-1.6,2.394a3.924,3.924,0,0,1-.915.967l-6.313,4.736-4.97,3.727L128,288.75l9.853-7.882,1.713-3.084L142.779,272Z" transform="translate(-91.191 -217.406)" fill="#e8c8b3"/>
    <path id="Path_3411" data-name="Path 3411" d="M273.864,379.075a1.309,1.309,0,0,0,.424,1.436l4.214,3.371h.687a2.269,2.269,0,0,0,1.888-3.527l-1.59-2.384L276.532,376A5.318,5.318,0,0,0,273.864,379.075Z" transform="translate(-219.032 -308.597)" fill="#e4e4e2"/>
    <path id="Path_3412" data-name="Path 3412" d="M104.285,410.956v2.956l.526,2.1a1.478,1.478,0,0,1-1.434,1.836h-2.048L99.359,414.9l-.6-3.01a2.559,2.559,0,0,1,1.366-2.791l2.192-1.1Z" transform="translate(-65.506 -336.656)" fill="#e4e4e2"/>
    <path id="Path_3413" data-name="Path 3413" d="M157.428,131.941l-6.9,3.227a1.76,1.76,0,0,1-1.409-3.227L157.428,128Z" transform="translate(-108.796 -91.141)" fill="#e8c8b3"/>
    <path id="Path_3414" data-name="Path 3414" d="M346.387,142.606l4.887-4.162a2.118,2.118,0,0,1,2.763,3.21l-5.738,5.163a2.769,2.769,0,0,1-3.8-.112.245.245,0,0,1-.046-.282l1.869-3.738A.246.246,0,0,1,346.387,142.606Z" transform="translate(-280.966 -99.868)" fill="#e8c8b3"/>
    <path id="Path_3415" data-name="Path 3415" d="M229.064,274.956l-2.956,4.926-3.941-1.971-.257-.128L225.123,272Z" transform="translate(-173.535 -217.406)" fill="#f3af3e"/>
    <path id="Path_3416" data-name="Path 3416" d="M299.3,28.329c-.041.007-.082.015-.123.023a3.937,3.937,0,1,0-2.335,3.246c0,.041.01.083.017.124a2.956,2.956,0,1,0,2.441-3.394Z" transform="translate(-234.398)" fill="#533222"/>
    <path id="Path_3417" data-name="Path 3417" d="M303.138,328.8l-4.182,5.75L296,332.579l3.659-6.1Z" transform="translate(-238.5 -265.176)" fill="#dc4d41"/>
    <path id="Path_3418" data-name="Path 3418" d="M134.94,379.17l-4.97,3.727L128,379.941,132.926,376l1.971,2.956Z" transform="translate(-91.191 -308.597)" fill="#dc4d41"/>
    <g id="Group_2753" data-name="Group 2753" transform="translate(24 46.712)">
      <path id="Path_3419" data-name="Path 3419" d="M148.926,265.971h-3.941a.985.985,0,1,1,0-1.971h3.941a.985.985,0,1,1,0,1.971Z" transform="translate(-129.221 -257.103)" fill="#aedee2"/>
      <path id="Path_3420" data-name="Path 3420" d="M98.956,265.971H96.985a.985.985,0,1,1,0-1.971h1.971a.985.985,0,1,1,0,1.971Z" transform="translate(-87.132 -257.103)" fill="#aedee2"/>
      <path id="Path_3421" data-name="Path 3421" d="M78.9,209.971H72.985a.985.985,0,1,1,0-1.971H78.9a.985.985,0,1,1,0,1.971Z" transform="translate(-66.088 -208)" fill="#aedee2"/>
      <path id="Path_3422" data-name="Path 3422" d="M26.956,209.971H24.985a.985.985,0,1,1,0-1.971h1.971a.985.985,0,1,1,0,1.971Z" transform="translate(-24 -208)" fill="#aedee2"/>
      <path id="Path_3423" data-name="Path 3423" d="M94.9,313.971H88.985a.985.985,0,1,1,0-1.971H94.9a.985.985,0,1,1,0,1.971Z" transform="translate(-80.118 -299.191)" fill="#aedee2"/>
      <path id="Path_3424" data-name="Path 3424" d="M42.956,313.971H40.985a.985.985,0,1,1,0-1.971h1.971a.985.985,0,1,1,0,1.971Z" transform="translate(-38.029 -299.191)" fill="#aedee2"/>
    </g>
    <path id="Path_3425" data-name="Path 3425" d="M252.809,241.971l-1.971,4.926h-6.9A3.94,3.94,0,0,1,240,242.956V240h7.882Z" transform="translate(-189.397 -189.347)" fill="#fbb540"/>
  </g>
</svg>
