<svg xmlns="http://www.w3.org/2000/svg" width="70.895" height="92.772" viewBox="0 0 70.895 92.772">
  <g id="Group_2034" data-name="Group 2034" transform="translate(-1256.999 -1489.373)">
    <g id="Group_2809" data-name="Group 2809" transform="translate(1256.999 1489.373)">
      <g id="Group_2800" data-name="Group 2800">
        <path id="Path_3274" data-name="Path 3274" d="M402.372,263.343l-3.839-5.226a8.726,8.726,0,0,0-6.993-3.092H378.853V243.756h0v-1.42a8.727,8.727,0,0,0-3.092-6.993l-5.226-3.838a4.376,4.376,0,0,0-5.41.012l-5.21,3.869a8.708,8.708,0,0,0-3.057,7.005v12.633H344.17a8.725,8.725,0,0,0-6.993,3.092l-3.839,5.226a4.375,4.375,0,0,0,.013,5.41l3.868,5.21a8.709,8.709,0,0,0,7.006,3.057h12.632v12.633a8.709,8.709,0,0,0,3.057,7.005l5.21,3.868a4.375,4.375,0,0,0,5.41.013l5.226-3.839a8.726,8.726,0,0,0,3.092-6.993V277.02h12.633a8.709,8.709,0,0,0,7.006-3.057l3.869-5.21a4.376,4.376,0,0,0,.013-5.41" transform="translate(-332.407 -230.574)" fill="#f0b323"/>
        <path id="Path_3275" data-name="Path 3275" d="M415.529,313.7v12.688a10.592,10.592,0,0,1-.251,2.26,7.929,7.929,0,0,0,5.3,1.333l6.419-.949a4.376,4.376,0,0,0,3.835-3.817l.981-6.41a7.971,7.971,0,0,0-1.338-5.356,10.585,10.585,0,0,1-2.314.251Z" transform="translate(-369.084 -267.251)" fill="#e57200"/>
        <path id="Path_3276" data-name="Path 3276" d="M352.026,261.454h11.267V248.82a10.549,10.549,0,0,1,.251-2.314,7.968,7.968,0,0,0-5.356-1.338l-6.41.98a4.375,4.375,0,0,0-3.817,3.835l-.948,6.42a7.924,7.924,0,0,0,1.333,5.3,10.54,10.54,0,0,1,2.259-.25Z" transform="translate(-338.843 -237.003)" fill="#e57200"/>
        <path id="Path_3277" data-name="Path 3277" d="M407,313.9h-6.442L396,318.451l8.933,8.933a10.6,10.6,0,0,0,1.814,1.459,10.59,10.59,0,0,0,.251-2.26Z" transform="translate(-360.552 -267.45)" fill="#e95527"/>
        <path id="Path_3278" data-name="Path 3278" d="M376.27,251.242v11.327h6.443l4.556-4.555-7.968-7.968h0l-1-1a10.576,10.576,0,0,0-1.775-1.421,10.586,10.586,0,0,0-.251,2.314Z" transform="translate(-351.82 -238.119)" fill="#e95527"/>
        <path id="Path_3279" data-name="Path 3279" d="M420.284,294.167l-4.556,4.555v6.442h12.633a10.549,10.549,0,0,0,2.314-.251,10.552,10.552,0,0,0-1.421-1.775Z" transform="translate(-369.283 -258.719)" fill="#e95527"/>
        <path id="Path_3280" data-name="Path 3280" d="M351.838,277.425l8.009,8.009,4.555-4.555v-6.443H351.715a10.544,10.544,0,0,0-2.259.25,10.544,10.544,0,0,0,1.459,1.814Z" transform="translate(-339.953 -249.986)" fill="#e95527"/>
      </g>
      <path id="Path_3281" data-name="Path 3281" d="M410.613,308.782v-6.442l-6.442,6.442Z" transform="translate(-364.169 -262.336)" fill="#e13523"/>
      <path id="Path_3282" data-name="Path 3282" d="M376.27,274.437v6.443l6.443-6.443Z" transform="translate(-351.82 -249.987)" fill="#e13523"/>
      <g id="Group_2801" data-name="Group 2801" transform="translate(8.098 8.098)">
        <path id="Path_3283" data-name="Path 3283" d="M415.529,250.186h0v11.269h12.688a10.575,10.575,0,0,1,2.259.25,7.923,7.923,0,0,0,1.333-5.3l-.948-6.42a4.375,4.375,0,0,0-3.817-3.835l-6.41-.98a7.969,7.969,0,0,0-5.356,1.338,10.546,10.546,0,0,1,.25,2.259Z" transform="translate(-377.183 -245.101)" fill="#e57200"/>
        <path id="Path_3284" data-name="Path 3284" d="M363.287,313.7H350.655a10.552,10.552,0,0,1-2.314-.251A7.967,7.967,0,0,0,347,318.8l.981,6.41a4.374,4.374,0,0,0,3.835,3.816l6.42.949a7.924,7.924,0,0,0,5.3-1.333,10.591,10.591,0,0,1-.251-2.314Z" transform="translate(-346.935 -275.349)" fill="#e57200"/>
        <path id="Path_3285" data-name="Path 3285" d="M396,258.015l4.555,4.555H407V251.3h0v-1.42a10.612,10.612,0,0,0-.25-2.259,10.546,10.546,0,0,0-1.775,1.42Z" transform="translate(-368.65 -246.217)" fill="#e95527"/>
        <path id="Path_3286" data-name="Path 3286" d="M379.259,326.46l8.009-8.009-4.555-4.555H376.27v12.633a10.561,10.561,0,0,0,.251,2.314,10.573,10.573,0,0,0,1.814-1.459Z" transform="translate(-359.918 -275.548)" fill="#e95527"/>
      </g>
      <path id="Path_3287" data-name="Path 3287" d="M392.384,266.266l-4.555,4.555h9.111Z" transform="translate(-356.936 -246.37)" fill="#e13523"/>
      <path id="Path_3288" data-name="Path 3288" d="M392.383,318.452l4.555-4.555h-9.11Z" transform="translate(-356.935 -267.451)" fill="#e13523"/>
      <g id="Group_2802" data-name="Group 2802" transform="translate(9.503 24.451)">
        <path id="Path_3289" data-name="Path 3289" d="M353.076,305.164H364.4v-6.443l-4.555-4.555-7.968,7.968h0l-1,1a10.606,10.606,0,0,0-1.421,1.775,10.558,10.558,0,0,0,2.314.251Z" transform="translate(-349.455 -283.169)" fill="#e95527"/>
        <path id="Path_3290" data-name="Path 3290" d="M415.729,274.438v6.442l4.555,4.555,8.933-8.933a10.536,10.536,0,0,0,1.459-1.813,10.579,10.579,0,0,0-2.259-.251Z" transform="translate(-378.787 -274.438)" fill="#e95527"/>
      </g>
      <path id="Path_3291" data-name="Path 3291" d="M376.27,308.781h6.443l-6.443-6.443Z" transform="translate(-351.82 -262.335)" fill="#e13523"/>
      <path id="Path_3292" data-name="Path 3292" d="M410.614,274.438h-6.442l6.442,6.442Z" transform="translate(-364.169 -249.987)" fill="#e13523"/>
      <path id="Path_3293" data-name="Path 3293" d="M415.728,295.106l4.556-4.555-4.556-4.556Z" transform="translate(-369.284 -255.102)" fill="#e13523"/>
      <path id="Path_3294" data-name="Path 3294" d="M368.1,290.55l4.555,4.555V286Z" transform="translate(-348.203 -255.102)" fill="#e13523"/>
      <path id="Path_3295" data-name="Path 3295" d="M391.823,274.438h-9.11l-6.443,6.443v9.11l6.443,6.443h9.11l6.442-6.442V280.88Z" transform="translate(-351.82 -249.987)" fill="#d41a21"/>
      <path id="Path_3296" data-name="Path 3296" d="M370.772,277.9h5.713v1.635h-3.692v1.449h3.248l.21,1.635h-3.458v1.589H376.6v1.635h-5.829Z" transform="translate(-349.387 -251.519)" fill="#fff"/>
      <path id="Path_3297" data-name="Path 3297" d="M385.7,283.084l-1.741,2.675h-2.173l2.8-4.124-2.6-3.715,2.219-.21,1.682,2.477,1.484-2.371h2.184l-2.523,3.808,2.862,4.031-2.22.21Z" transform="translate(-354.26 -251.435)" fill="#fff"/>
      <g id="Group_2803" data-name="Group 2803" transform="translate(36.132 26.262)">
        <path id="Path_3298" data-name="Path 3298" d="M401.935,280.609c0-.643-.467-1.075-1.261-1.075h-1.425v2.149h1.425c.794,0,1.261-.444,1.261-1.075m2.08,0c0,1.624-1.192,2.71-3.248,2.71h-1.518v2.523h-2.021V277.9h3.54c2.056,0,3.248,1.086,3.248,2.71" transform="translate(-397.227 -277.781)" fill="#fff"/>
        <path id="Path_3299" data-name="Path 3299" d="M411.95,281.777a2.231,2.231,0,1,0,2.22-2.453,2.154,2.154,0,0,0-2.22,2.453m-2.068,0a4.3,4.3,0,1,1,4.3,4.089,3.963,3.963,0,0,1-4.3-4.089" transform="translate(-402.828 -277.688)" fill="#fff"/>
      </g>
      <path id="Path_3300" data-name="Path 3300" d="M370.772,296.024l2.021-.21v6.414h3.716l.221,1.635h-5.958Z" transform="translate(-349.387 -259.448)" fill="#fff"/>
      <path id="Path_3301" data-name="Path 3301" d="M382.547,303.863v-7.839l2.021-.21v8.049Z" transform="translate(-354.598 -259.448)" fill="#fff"/>
      <path id="Path_3302" data-name="Path 3302" d="M389.178,295.814l2.138,6.157,2.138-6.051h2.056l-3.037,8h-2.418l-2.9-7.9Z" transform="translate(-356.638 -259.448)" fill="#fff"/>
      <path id="Path_3303" data-name="Path 3303" d="M403.082,296h5.712v1.636H405.1v1.449h3.248l.21,1.635H405.1v1.589h3.809v1.635h-5.829Z" transform="translate(-363.687 -259.531)" fill="#fff"/>
    </g>
    <g id="Group_2810" data-name="Group 2810" transform="translate(1269.155 1569.112)">
      <path id="Path_3304" data-name="Path 3304" d="M337.383,383.623l-1.117-2.632-1.111,2.632Zm.171.4h-2.57l-.486,1.158h-.48l1.995-4.654.507-.082,2,4.7-.459.082Z" transform="translate(-333.719 -380.449)" fill="#4e3524"/>
      <g id="Group_2804" data-name="Group 2804" transform="translate(5.53 1.241)">
        <path id="Path_3305" data-name="Path 3305" d="M351.132,385.058v2.248h-.445v-2.248a.835.835,0,0,0-.946-.891,1.384,1.384,0,0,0-1.1.589v2.55h-.446v-3.427h.418l.027.534a1.493,1.493,0,0,1,1.241-.6,1.139,1.139,0,0,1,1.254,1.248" transform="translate(-348.191 -383.81)" fill="#4e3524"/>
      </g>
      <path id="Path_3306" data-name="Path 3306" d="M363.7,380.653H366.9v.4h-2.735v1.672h2.515l.082.4h-2.6v1.789h2.8v.4H363.7Z" transform="translate(-352.448 -380.578)" fill="#4e3524"/>
      <path id="Path_3307" data-name="Path 3307" d="M375.36,385.963l-1.131,1.46h-.493l1.371-1.775L373.839,384h.493l1.042,1.351L376.4,384h.493l-1.254,1.645L377,387.423h-.507Z" transform="translate(-358.777 -382.686)" fill="#4e3524"/>
      <g id="Group_2805" data-name="Group 2805" transform="translate(0 0.007)">
        <path id="Path_3308" data-name="Path 3308" d="M384.787,384.777v1.631a1.536,1.536,0,0,0,1.193.6,1.429,1.429,0,0,0,0-2.845,1.543,1.543,0,0,0-1.193.61m0,1.995V388.8l-.445.082v-5h.418l.027.535a1.783,1.783,0,1,1,0,2.358" transform="translate(-365.469 -382.577)" fill="#4e3524"/>
        <path id="Path_3309" data-name="Path 3309" d="M398.581,385.592a1.362,1.362,0,1,0-1.357,1.419,1.337,1.337,0,0,0,1.357-1.419m.453,0a1.81,1.81,0,1,1-1.809-1.782,1.719,1.719,0,0,1,1.809,1.782" transform="translate(-372.454 -382.576)" fill="#4e3524"/>
        <path id="Path_3310" data-name="Path 3310" d="M413.168,380.467c.85,0,1.6.4,1.6,1.248,0,1.508-2.721,1.679-2.721,3.084h2.735l.082.4h-3.3V384.9c0-1.81,2.741-1.892,2.741-3.167,0-.617-.548-.877-1.165-.877a2.547,2.547,0,0,0-1.33.446l-.11-.377a2.957,2.957,0,0,1,1.473-.46" transform="translate(-382.639 -380.467)" fill="#4e3524"/>
        <path id="Path_3311" data-name="Path 3311" d="M423.014,382.866c0,1.2.548,2.008,1.556,2.008s1.549-.809,1.549-2.008-.548-2.008-1.549-2.008-1.556.816-1.556,2.008m-.459,0c0-1.357.692-2.4,2.008-2.4s2.022,1.042,2.022,2.4-.706,2.4-2.022,2.4-2.008-1.042-2.008-2.4" transform="translate(-389.577 -380.467)" fill="#4e3524"/>
        <path id="Path_3312" data-name="Path 3312" d="M437.113,380.467c.85,0,1.6.4,1.6,1.248,0,1.508-2.721,1.679-2.721,3.084h2.735l.082.4h-3.3V384.9c0-1.81,2.741-1.892,2.741-3.167,0-.617-.548-.877-1.165-.877a2.547,2.547,0,0,0-1.329.446l-.11-.377a2.957,2.957,0,0,1,1.473-.46" transform="translate(-397.746 -380.467)" fill="#4e3524"/>
        <path id="Path_3313" data-name="Path 3313" d="M446.959,382.866c0,1.2.548,2.008,1.556,2.008s1.549-.809,1.549-2.008-.548-2.008-1.549-2.008-1.556.816-1.556,2.008m-.459,0c0-1.357.692-2.4,2.008-2.4s2.022,1.042,2.022,2.4-.706,2.4-2.022,2.4-2.008-1.042-2.008-2.4" transform="translate(-404.684 -380.467)" fill="#4e3524"/>
        <path id="Path_3314" data-name="Path 3314" d="M336.794,405.276a1.809,1.809,0,0,0-1.954-1.933h-1.172v3.866h1.172a1.809,1.809,0,0,0,1.954-1.933m-3.585-2.33h1.631a2.332,2.332,0,1,1,0,4.661h-1.631Z" transform="translate(-333.209 -394.649)" fill="#4e3524"/>
        <path id="Path_3315" data-name="Path 3315" d="M349.563,406.171V409.6h-.418l-.027-.534a1.484,1.484,0,0,1-1.241.6,1.139,1.139,0,0,1-1.255-1.248v-2.235l.445-.082v2.31a.832.832,0,0,0,.946.891,1.378,1.378,0,0,0,1.1-.583v-2.55Z" transform="translate(-341.671 -396.641)" fill="#4e3524"/>
        <path id="Path_3316" data-name="Path 3316" d="M360.46,405.307a1.278,1.278,0,0,0-1.3-1.425,1.544,1.544,0,0,0-1.193.61v1.632a1.535,1.535,0,0,0,1.193.6,1.273,1.273,0,0,0,1.3-1.419m.453,0a1.663,1.663,0,0,1-2.941,1.179l-.027.535h-.418V402.1l.446-.083v2.111a1.663,1.663,0,0,1,2.941,1.179" transform="translate(-348.551 -394.063)" fill="#4e3524"/>
        <path id="Path_3317" data-name="Path 3317" d="M371.191,408.68v-.685a6.091,6.091,0,0,0-.932-.062c-.864,0-1.152.3-1.152.7s.323.672.843.672a1.545,1.545,0,0,0,1.241-.624m1.076.576v.343a1.482,1.482,0,0,1-.411.068.582.582,0,0,1-.658-.61,1.742,1.742,0,0,1-1.351.61c-.74,0-1.193-.425-1.193-.994,0-.8.72-1.09,1.59-1.09a7.418,7.418,0,0,1,.946.062v-.363c0-.446-.3-.822-1.035-.822a2.649,2.649,0,0,0-1.248.308l-.1-.37a3.346,3.346,0,0,1,1.392-.295c.973,0,1.44.507,1.44,1.207v1.61c0,.226.062.391.335.391a.7.7,0,0,0,.295-.055" transform="translate(-355.572 -396.641)" fill="#4e3524"/>
      </g>
      <path id="Path_3318" data-name="Path 3318" d="M379.58,407.279h.446v-3.427h-.446Zm-.151-4.483.377.363.37-.363-.37-.37Z" transform="translate(-362.369 -394.314)" fill="#4e3524"/>
      <path id="Path_3319" data-name="Path 3319" d="M388.68,402.917v4.62h.459v-4.7Z" transform="translate(-368.205 -394.572)" fill="#4e3524"/>
      <g id="Group_2806" data-name="Group 2806" transform="translate(22.113 9.469)">
        <path id="Path_3320" data-name="Path 3320" d="M396.06,407.35V409.6h-.446V407.35a.835.835,0,0,0-.946-.891,1.384,1.384,0,0,0-1.1.59v2.55h-.445v-3.427h.418l.027.534a1.493,1.493,0,0,1,1.241-.6,1.139,1.139,0,0,1,1.254,1.248" transform="translate(-393.119 -406.102)" fill="#4e3524"/>
      </g>
      <path id="Path_3321" data-name="Path 3321" d="M403.674,407.279h.446v-3.427h-.446Zm-.151-4.483.377.363.37-.363-.37-.37Z" transform="translate(-377.57 -394.314)" fill="#4e3524"/>
      <g id="Group_2807" data-name="Group 2807" transform="translate(27.331 8.304)">
        <path id="Path_3322" data-name="Path 3322" d="M408.271,404.18h1.309v.357h-1.309v2.186c0,.391.247.59.706.59a1.514,1.514,0,0,0,.59-.11l.082.336a2.177,2.177,0,0,1-.774.137c-.761,0-1.049-.425-1.049-.946v-2.193h-.569v-.357h.569v-1.145l.445-.089Z" transform="translate(-407.257 -402.946)" fill="#4e3524"/>
      </g>
      <path id="Path_3323" data-name="Path 3323" d="M414.839,407.279h.445v-3.427h-.445Zm-.151-4.483.377.363.37-.363-.37-.37Z" transform="translate(-384.614 -394.314)" fill="#4e3524"/>
      <g id="Group_2808" data-name="Group 2808" transform="translate(31.583 8.304)">
        <path id="Path_3324" data-name="Path 3324" d="M421.311,408.68v-.685a6.09,6.09,0,0,0-.932-.062c-.864,0-1.152.3-1.152.7s.323.672.843.672a1.545,1.545,0,0,0,1.241-.624m1.076.576v.343a1.482,1.482,0,0,1-.411.068.582.582,0,0,1-.658-.61,1.742,1.742,0,0,1-1.351.61c-.74,0-1.193-.425-1.193-.994,0-.8.719-1.09,1.59-1.09a7.416,7.416,0,0,1,.946.062v-.363c0-.446-.3-.822-1.035-.822a2.649,2.649,0,0,0-1.248.308l-.1-.37a3.345,3.345,0,0,1,1.392-.295c.973,0,1.439.507,1.439,1.207v1.61c0,.226.062.391.335.391a.7.7,0,0,0,.295-.055" transform="translate(-418.775 -404.938)" fill="#4e3524"/>
        <path id="Path_3325" data-name="Path 3325" d="M430.1,404.18h1.309v.357H430.1v2.186c0,.391.247.59.706.59a1.514,1.514,0,0,0,.59-.11l.082.336a2.177,2.177,0,0,1-.774.137c-.761,0-1.049-.425-1.049-.946v-2.193h-.569v-.357h.569v-1.145l.446-.089Z" transform="translate(-425.28 -402.946)" fill="#4e3524"/>
      </g>
      <path id="Path_3326" data-name="Path 3326" d="M436.666,407.279h.446v-3.427h-.446Zm-.151-4.483.377.363.37-.363-.37-.37Z" transform="translate(-398.384 -394.314)" fill="#4e3524"/>
      <path id="Path_3327" data-name="Path 3327" d="M443.122,406.288l-1.254,2.872-1.282-2.872H440.1l1.576,3.489h.357l1.576-3.489Z" transform="translate(-400.646 -396.751)" fill="#4e3524"/>
      <path id="Path_3328" data-name="Path 3328" d="M453.516,407.666c-.021-.631-.206-1.213-1.131-1.213a1.218,1.218,0,0,0-1.254,1.213Zm.438.35h-2.831a1.283,1.283,0,0,0,1.4,1.3,2.494,2.494,0,0,0,1.186-.288l.089.329a2.7,2.7,0,0,1-1.3.308,1.783,1.783,0,0,1-.109-3.564,1.458,1.458,0,0,1,1.569,1.666c0,.075-.007.171-.007.247" transform="translate(-407.315 -396.634)" fill="#4e3524"/>
    </g>
  </g>
</svg>
