<svg xmlns="http://www.w3.org/2000/svg" width="23.739" height="32.37" viewBox="0 0 23.739 32.37">
  <g id="Group_2687" data-name="Group 2687" transform="translate(0)">
    <path id="Path_2717" data-name="Path 2717" d="M384.785,146.793c.11.031.22.063.33.092a2.934,2.934,0,1,1-1.328-.023c.081-.017.159-.046.239-.069Z" transform="translate(-376.582 -146.793)" fill="#1dc468"/>
    <path id="Path_2718" data-name="Path 2718" d="M378.049,194c0,.9.024,1.811,0,2.714-.077,2.42-.176,4.84-.268,7.26-.017.442-.048.883-.068,1.325a.376.376,0,0,1-.419.4c-1.014.041-1,.037-1.051-.975-.086-1.883-.191-3.765-.289-5.647,0-.082-.017-.164-.028-.263h-.451c-.016.193-.037.387-.047.582q-.14,2.808-.278,5.616c-.005.105-.013.211-.027.315-.047.344-.112.368-.858.371-.279,0-.547,0-.569-.376-.035-.589-.063-1.178-.1-1.766q-.312-4.921-.251-9.852a.488.488,0,0,0-.145-.345,10.761,10.761,0,0,1-1.994-2.188.65.65,0,0,0-.37-.229,1.285,1.285,0,0,1-1.121-1.287,11.354,11.354,0,0,0-.854-4.085,3.843,3.843,0,0,0-.447-.781c-.006.1-.016.192-.016.288,0,2.423.023,4.846-.011,7.268-.021,1.526-.122,3.051-.2,4.576-.114,2.293-.236,4.585-.355,6.878-.023.442-.041.884-.067,1.325a.549.549,0,0,1-.585.57c-.358.009-.716.007-1.074,0a.553.553,0,0,1-.606-.582q-.225-4.4-.447-8.8c-.057-1.115-.117-2.229-.176-3.37h-.79c-.036.648-.075,1.3-.108,1.945q-.215,4.165-.427,8.33c-.031.61-.058,1.22-.085,1.83-.02.455-.216.648-.67.652-.337,0-.674.007-1.011,0a.544.544,0,0,1-.588-.565q-.161-3.06-.316-6.121c-.1-1.893-.23-3.785-.283-5.679-.052-1.852-.025-3.707-.03-5.561,0-.989,0-1.979-.055-3-.059.1-.123.195-.176.3a10.252,10.252,0,0,0-1.039,3.811c-.025.262-.038.525-.05.788a1.3,1.3,0,0,1-1.3,1.282,1.285,1.285,0,0,1-1.294-1.315,12.476,12.476,0,0,1,1.6-6.162,7.271,7.271,0,0,1,2.477-2.606,7.184,7.184,0,0,1,10,2.677,13.02,13.02,0,0,1,1.572,6.049.877.877,0,0,0,.178.509c.341.4.709.776,1.086,1.141a.407.407,0,0,0,.352.061,4.319,4.319,0,0,1,5.779,2.349,7.782,7.782,0,0,1,.689,3.058.783.783,0,0,1-.759.9.792.792,0,0,1-.8-.862,6.394,6.394,0,0,0-.569-2.506c-.042-.091-.1-.176-.145-.264Z" transform="translate(-356.658 -173.342)" fill="#1dc468"/>
    <path id="Path_2719" data-name="Path 2719" d="M442.562,214.712a2.126,2.126,0,1,1,2.119,2.125A2.1,2.1,0,0,1,442.562,214.712Z" transform="translate(-425.646 -199.628)" fill="#1dc468"/>
  </g>
</svg>
