<svg xmlns="http://www.w3.org/2000/svg" width="17.783" height="41.859" viewBox="0 0 17.783 41.859">
  <g id="Featurephone" style="isolation: isolate">
    <g id="Layer_1" data-name="Layer 1" transform="translate(0 0)">
      <path id="Path_2274" data-name="Path 2274" d="M17.158,1.519a6.782,6.782,0,0,1,.59,3.123q-.054,16.162-.107,32.313a8.446,8.446,0,0,1-.306,2.216,3.305,3.305,0,0,1-2.592,2.415,9.364,9.364,0,0,1-2.291.274H5.176a7.646,7.646,0,0,1-3.252-.649C.352,40.207.1,38.635.094,36.945c0-3.922,0-7.845-.027-11.773Q.035,14.757-.013,4.336A4.829,4.829,0,0,1,.926,1.074a1.883,1.883,0,0,1,1-.655A9.75,9.75,0,0,1,4.28.081C7.639.028,11-.107,14.368.172a3.161,3.161,0,0,1,2.581,1.073c0,.032,0,.054.048.054a.585.585,0,0,0,.043-.08c-.075.166,0,.236.156.279h-.038ZM1.72,13.415v8.306c0,.537.091.74.692.74q6.471-.038,12.942,0c.537,0,.687-.156.687-.692V5.1c0-.537-.123-.7-.676-.7q-6.5.032-13.007,0c-.537,0-.644.156-.639.649C1.731,7.819,1.72,10.609,1.72,13.415Zm10.1,13.415a3,3,0,1,0-.858,2.143A2.994,2.994,0,0,0,11.824,26.83Zm2.146-1.572a1.551,1.551,0,0,0-1.567,1.61,1.578,1.578,0,0,0,1.61,1.61,1.61,1.61,0,1,0-.048-3.22Zm-10.678,0a1.545,1.545,0,0,0-1.61,1.61,1.561,1.561,0,0,0,1.61,1.61,1.572,1.572,0,0,0,1.572-1.61,1.556,1.556,0,0,0-1.551-1.6ZM8.819,37.6H8c-1.331,0-1.331,0-1.229,1.331v.064c0,.284.134.381.392.381h3.407c.156,0,.338,0,.343-.209a3.756,3.756,0,0,0-.048-1.4c-.145-.365-.655-.123-1-.156a9.427,9.427,0,0,0-1.03.016Zm-4.636,0H2.536c-.188,0-.381-.038-.478.215a1.127,1.127,0,0,0,1.014,1.551H5.063c1.347,0,1.164.236,1.191-1.256,0-.381-.113-.537-.537-.537a9.421,9.421,0,0,1-1.513.059Zm9.428,0H11.942c-.376,0-.488.14-.483.494,0,1.567-.15,1.256,1.229,1.288h.451c.58,0,1.164,0,1.733-.038s.826-.537.778-1.331c-.043-.644-.537-.365-.816-.4a11.633,11.633,0,0,0-1.2.021ZM4.178,32.373h.9c1.309-.032,1.154.3,1.175-1.272,0-.365-.14-.488-.494-.483H3.19c-1.261,0-1.132-.268-1.154,1.24,0,.392.145.537.537.537C3.1,32.357,3.641,32.373,4.178,32.373Zm-.07,4.652h.966c1.325-.032,1.154.284,1.18-1.272,0-.365-.129-.494-.488-.483H3.255c-1.315,0-1.309,0-1.218,1.3,0,.327.134.461.467.451Zm.054-4.078H3.207c-1.266.038-1.143-.3-1.164,1.223,0,.386.129.537.537.537H5.085c1.3,0,1.288,0,1.186-1.32,0-.3-.118-.424-.419-.413-.574.005-1.132-.005-1.69-.005Zm4.684-.6h.9c1.363-.032,1.164.279,1.2-1.234,0-.386-.107-.537-.537-.537H7.971c-1.406,0-1.2-.284-1.229,1.266,0,.354.107.5.472.488.563.021,1.095.038,1.631.038Zm4.69,0h.9c1.4-.038,1.207.3,1.234-1.272,0-.36-.123-.488-.483-.483H12.683c-1.293,0-1.282,0-1.2,1.3,0,.322.118.461.451.451.537.011,1.073.021,1.6.021Zm-4.7,2.35h.9c1.245,0,1.223,0,1.213-1.218,0-.445-.177-.537-.569-.537H7.945c-1.347,0-1.143-.258-1.18,1.18,0,.408.107.58.537.537S8.326,34.7,8.841,34.7Zm4.7,0h.96c1.32-.038,1.143.3,1.17-1.261,0-.37-.134-.483-.488-.478h-2.5c-1.293,0-1.282,0-1.2,1.3,0,.327.123.451.456.44C12.468,34.686,13,34.7,13.541,34.7ZM8.83,37.025h.9c1.384-.038,1.18.306,1.213-1.282,0-.376-.145-.478-.494-.472H7.95c-1.347,0-1.148-.284-1.186,1.25,0,.408.15.537.537.5Zm4.711-1.749H12.7c-1.293,0-1.282,0-1.223,1.277,0,.365.14.483.494.478H14.48c1.358-.027,1.159.268,1.191-1.25,0-.4-.145-.537-.537-.5-.526.038-1.057.021-1.594.021ZM8.8,2.533h2.146c.263,0,.563,0,.58-.354s-.274-.381-.537-.381H6.7c-.274,0-.563,0-.537.376s.306.36.574.36Z" transform="translate(0.028 -0.002)" />
    </g>
  </g>
</svg>
