<svg xmlns="http://www.w3.org/2000/svg" width="9.413" height="11.5" viewBox="0 0 9.413 11.5">
  <g id="file" transform="translate(-86.9)">
    <path id="Path_5212" data-name="Path 5212" d="M205.148,108.4h-.336v8.261a1,1,0,0,1-1,1H197.7v.306a.636.636,0,0,0,.635.635h6.812a.636.636,0,0,0,.635-.635v-8.928A.634.634,0,0,0,205.148,108.4Z" transform="translate(-109.469 -107.098)" fill="#fff"/>
    <path id="Path_5213" data-name="Path 5213" d="M90.94,10.2h3.406a.636.636,0,0,0,.635-.635V.635A.636.636,0,0,0,94.346,0H89.807V.21a.618.618,0,0,1,0,.067v1.74a.9.9,0,0,1-.895.895h-1.74l-.055,0H86.9V9.563a.636.636,0,0,0,.635.635h3.4Zm.128-2.159H88.848a.3.3,0,0,1,0-.6H91.07a.3.3,0,1,1,0,.6ZM93.29,6.507H88.848a.3.3,0,0,1,0-.6H93.29a.3.3,0,0,1,0,.6ZM88.848,4.279H93.29a.3.3,0,0,1,0,.6H88.848a.3.3,0,0,1,0-.6Z" transform="translate(0)" fill="#fff"/>
    <path id="Path_5214" data-name="Path 5214" d="M87.814,3.342h1.745a.533.533,0,0,0,.528-.528V1.068A.267.267,0,0,0,89.819.8a.26.26,0,0,0-.187.079L87.625,2.886A.267.267,0,0,0,87.814,3.342Z" transform="translate(-0.638 -0.79)" fill="#fff"/>
  </g>
</svg>
