<svg xmlns="http://www.w3.org/2000/svg" width="30.457" height="25.177" viewBox="0 0 30.457 25.177">
  <g id="Group_2697" data-name="Group 2697" transform="translate(0)">
    <path id="Path_3109" data-name="Path 3109" d="M714.891,336.715c0,.983,0,1.852,0,2.721q0,6.249,0,12.5c0,.617-.25.955-.727,1a.826.826,0,0,1-.971-.8c-.141-1.69-.269-3.38-.4-5.071q-.12-1.517-.245-3.035a2.019,2.019,0,0,0-.061-.271h-.963c-.041.417-.084.822-.118,1.228q-.266,3.226-.527,6.452c-.018.218-.014.437-.036.654a.834.834,0,0,1-.9.851.818.818,0,0,1-.817-.921c-.008-1.98-.006-3.961,0-5.941q0-4.456.007-8.911a.642.642,0,0,0-.081-.342l-1.5,3.019c-.1.2-.188.394-.29.586a.833.833,0,1,1-1.517-.69c.2-.513.423-1.018.635-1.527.648-1.549,1.306-3.095,1.938-4.651a1,1,0,0,1,1.054-.708c1.787.018,3.575.011,5.362,0a.922.922,0,0,1,.947.633c.855,2.06,1.723,4.116,2.582,6.174a.847.847,0,0,1-.359,1.189.838.838,0,0,1-1.166-.486c-.55-1.1-1.092-2.207-1.638-3.31C715.058,336.97,715,336.892,714.891,336.715Z" transform="translate(-705.669 -327.763)" fill="#1dc468"/>
    <path id="Path_3110" data-name="Path 3110" d="M952.286,342.546h-1.855l1.923-8.667-.084-.028c-.11.254-.223.507-.33.762-.55,1.313-1.094,2.628-1.648,3.939a.854.854,0,0,1-.873.565.807.807,0,0,1-.743-.717,1.142,1.142,0,0,1,.1-.553c.985-2.2,1.984-4.4,2.97-6.6a.4.4,0,0,1,.429-.282q2.353.016,4.707,0a.373.373,0,0,1,.4.262c.993,2.212,2,4.418,2.992,6.628a.841.841,0,1,1-1.53.675c-.651-1.534-1.29-3.074-1.934-4.611a.47.47,0,0,0-.163-.228l1.963,8.844h-1.862v.556q0,3.569,0,7.137c0,.66-.326.989-.923.964a.788.788,0,0,1-.795-.777c-.081-1.811-.165-3.622-.227-5.434-.027-.794,0-1.591,0-2.41l-.441-.027c-.031.613-.065,1.2-.09,1.789q-.124,2.967-.242,5.935c-.023.59-.317.921-.847.925a.817.817,0,0,1-.885-.93c-.009-1.4,0-2.8,0-4.205Z" transform="translate(-929.917 -326.023)" fill="#1dc468"/>
    <path id="Path_3111" data-name="Path 3111" d="M862.365,427.59q0,1.572,0,3.144,0,3.278,0,6.557c0,.42-.164.62-.5.638a.507.507,0,0,1-.58-.482c-.108-1.228-.206-2.457-.308-3.686-.048-.576-.1-1.151-.149-1.752H860.2c-.05.516-.106,1.047-.151,1.578-.1,1.241-.2,2.483-.305,3.724-.037.446-.21.63-.566.621s-.527-.213-.528-.656q0-4.725,0-9.449V427.5c-.093.144-.151.215-.19.3-.326.654-.646,1.311-.974,1.964-.195.389-.46.511-.766.366s-.391-.422-.226-.821c.539-1.3,1.086-2.6,1.624-3.905a.652.652,0,0,1,.68-.45q1.7.018,3.394,0a.671.671,0,0,1,.707.466c.531,1.292,1.077,2.579,1.615,3.868.175.42.094.7-.235.848-.307.138-.555.016-.756-.385-.31-.619-.614-1.24-.923-1.86-.054-.108-.117-.211-.176-.317Z" transform="translate(-844.78 -412.755)" fill="#1dc468"/>
    <path id="Path_3112" data-name="Path 3112" d="M760.588,271.378a2.247,2.247,0,1,1,2.282-2.173A2.257,2.257,0,0,1,760.588,271.378Z" transform="translate(-754.281 -266.884)" fill="#1dc468"/>
    <path id="Path_3113" data-name="Path 3113" d="M997.354,266.895a2.246,2.246,0,1,1-2.245,2.255A2.26,2.26,0,0,1,997.354,266.895Z" transform="translate(-972.771 -266.894)" fill="#1dc468"/>
    <path id="Path_3114" data-name="Path 3114" d="M888.336,373.258a1.932,1.932,0,1,1-1.929-1.943A1.958,1.958,0,0,1,888.336,373.258Z" transform="translate(-870.674 -363.255)" fill="#1dc468"/>
  </g>
</svg>
