<svg id="Group_6946" data-name="Group 6946" xmlns="http://www.w3.org/2000/svg" width="18.139" height="9.599" viewBox="0 0 14.139 7.599">
  <g id="Logo_Ay" data-name="Logo Ay" transform="translate(0 0)">
    <g id="Layer_1" data-name="Layer 1">
      <g id="Group_2021" data-name="Group 2021">
        <path id="Path_2256" data-name="Path 2256" d="M14.139,1.774C11.966,2.41,9.8,3.05,7.622,3.672a1.465,1.465,0,0,1-.732-.007C4.6,3.061,2.311,2.437,0,1.643c1.021-.267,2.071-.458,3.059-.815a11.983,11.983,0,0,1,8.964.089,17.345,17.345,0,0,0,2.113.58c0,.092,0,.185,0,.277" transform="translate(0 -0.003)" fill="#fff" fill-rule="evenodd"/>
        <path id="Path_2257" data-name="Path 2257" d="M54.241,78.228a10.006,10.006,0,0,1-3.821-.641c-.674-.205-1.182-2.317-.69-2.834a.555.555,0,0,1,.374-.115,1.057,1.057,0,0,1,.405.115,9.222,9.222,0,0,0,7.407.048c.841-.32,1.033.007,1.029.813-.01,1.842-.007,1.9-1.828,2.32a9.981,9.981,0,0,1-2.876.294" transform="translate(-46.888 -70.652)" fill="#fff" fill-rule="evenodd"/>
        <path id="Path_2258" data-name="Path 2258" d="M9.175,61.79c.2.082.181.26.189.412.067,1.068.126,2.131.195,3.2.024.358-.017.7-.46.691s-.58-.291-.523-.717c.134-1.011.244-2.025.374-3.037.025-.2.006-.427.228-.545" transform="translate(-8.107 -58.49)" fill="#fff" fill-rule="evenodd"/>
      </g>
    </g>
  </g>
</svg>
