<svg xmlns="http://www.w3.org/2000/svg" width="66.296" height="55.406" viewBox="0 0 66.296 55.406">
  <g id="Group_7625" data-name="Group 7625" transform="translate(-7285.102 -3625.655)">
    <g id="calendar-60" transform="translate(7285.352 3625.655)">
      <path id="Path_2259" data-name="Path 2259" d="M1,50.971a2.66,2.66,0,0,0,2.861,2.4H63.935a2.66,2.66,0,0,0,2.861-2.4V15H1Z" transform="translate(-1 1.787)" fill="#fff" stroke="#e8e8e8" stroke-width="0.5"/>
      <path id="Path_2260" data-name="Path 2260" d="M63.935,5H3.861A2.66,2.66,0,0,0,1,7.4V16.99H66.8V7.4A2.66,2.66,0,0,0,63.935,5Z" transform="translate(-1 -0.204)" fill="#ffbe00" stroke="#e8e8e8" stroke-width="0.5"/>
      <path id="Path_2261" data-name="Path 2261" d="M10,11.791V2.2A1.241,1.241,0,0,1,11.279,1h2.557a1.241,1.241,0,0,1,1.279,1.2v9.592a1.241,1.241,0,0,1-1.279,1.2H11.279A1.241,1.241,0,0,1,10,11.791Z" transform="translate(3.003 -1)" fill="#444"/>
      <path id="Path_2262" data-name="Path 2262" d="M34,11.791V2.2A1.241,1.241,0,0,1,35.279,1h2.557a1.241,1.241,0,0,1,1.279,1.2v9.592a1.241,1.241,0,0,1-1.279,1.2H35.279A1.241,1.241,0,0,1,34,11.791Z" transform="translate(13.679 -1)" fill="#444"/>
    </g>
    <text id="TK_500" data-name="TK 500" transform="translate(7291.503 3666.277)" font-size="16" font-family="Gilroy-Bold, Gilroy ☞" font-weight="700"><tspan x="0" y="0">TK 500</tspan></text>
  </g>
</svg>
