<svg xmlns="http://www.w3.org/2000/svg" width="39.414" height="39.562" viewBox="0 0 39.414 39.562">
  <g id="Group_1626" data-name="Group 1626" transform="translate(-467 -541)" style="isolation: isolate">
    <path id="Path_2686" data-name="Path 2686" d="M476.581,541H493.89c2.459,2.446,4.91,4.9,7.384,7.331a1.679,1.679,0,0,1,.649,1.551c-.084.477.185.61.574.711.893.233,1.777.5,2.667.747,1.157.322,1.452.833,1.128,1.988-.969,3.456-1.865,6.935-2.936,10.359a25.511,25.511,0,0,0-1.415,10.13c.075.788-.217.967-.928.892-.264-.028-.671-.235-.812.294-.493,1.857-1.011,3.707-1.519,5.559h-.464c-.065-.19-.247-.15-.385-.19q-6.96-1.97-13.92-3.941a2.082,2.082,0,0,0-.99-.012q-4.347.845-8.692,1.7c-1.208.237-1.707-.091-1.946-1.31-1.455-7.433-2.895-14.869-4.371-22.3a23.663,23.663,0,0,0-.913-4.086v-1.391a3.034,3.034,0,0,1,1.657-.8c2.25-.405,4.483-.909,6.734-1.309.535-.1.587-.319.579-.754-.021-1.107.029-2.216-.02-3.321A2.174,2.174,0,0,1,476.581,541Zm26.4,19.306c.656-2.321,1.3-4.645,1.977-6.959.147-.5.063-.759-.473-.87-.552-.114-1.091-.288-1.636-.435-.921-.378-.924-.378-.924.622q0,4.25,0,8.5v2.51l.166.027Zm-15.711,15.731c3.257.92,6.518,1.828,9.768,2.77.539.156.773.084.889-.5.159-.8.415-1.585.629-2.377.1-.261.192-.523.295-.782.131-.332.028-.469-.332-.458-3.3.106-6.621-.341-9.873.565a17.26,17.26,0,0,0-2.267.546Zm-9.159.017,6.472-1.216c-2.308-.147-4.6-.144-6.884-.148-1.328,0-1.739-.419-1.74-1.763q-.005-4.709,0-9.417c0-.964,0-.964-.927-.721-.408-.01-.5-.317-.529-.624-.044-.4.226-.591.567-.7.755.076.95-.294.9-1-.057-.888-.013-1.783-.014-2.675,0-.926,0-.926-.921-.652-.251.044-.5.094-.754.13-.4.057-.726-.034-.8-.49a.626.626,0,0,1,.567-.765c.323-.074.65-.133.975-.2.72.061.97-.239.951-.983-.051-1.948-.016-3.9-.017-5.847,0-.94,0-.94-.919-.664-1.939.38-3.87.8-5.82,1.118-.8.129-.92.418-.773,1.159q2.548,12.8,5.031,25.612c.108.556.29.735.86.606C475.593,576.53,476.856,576.3,478.115,576.054Zm-.914-18.289q0,7.453-.006,14.907c0,.49.008.8.671.794q11.084-.036,22.168-.006c.493,0,.666-.129.664-.645q-.042-10.619-.04-21.239c0-.51-.159-.66-.661-.654-2.085.024-4.171.01-6.256.01-1.406,0-1.745-.332-1.746-1.71q0-2.935,0-5.87c0-1.1,0-1.111-1.069-1.112-4.325,0-8.651.012-12.976-.017-.634,0-.762.206-.759.789C477.21,547.93,477.2,552.847,477.2,557.765Zm23.045-8.113-6.973-6.97c0,2.032,0,4.27,0,6.507,0,.308.068.471.424.469C495.95,549.646,498.208,549.652,500.246,549.652Z" fill="#1dc468"/>
    <path id="Path_2687" data-name="Path 2687" d="M565.115,632.982q3.55,0,7.1,0c.463,0,.937.012.925.635s-.5.607-.954.606q-7.062,0-14.123,0c-.45,0-.95.026-.964-.6-.015-.68.517-.645.992-.644Q561.6,632.984,565.115,632.982Z" transform="translate(-76.176 -77.766)" fill="#1dc468"/>
    <path id="Path_2688" data-name="Path 2688" d="M565.12,670.224q-3.55,0-7.1,0c-.463,0-.938-.013-.927-.635s.5-.607.954-.607q7.062,0,14.123,0c.449,0,.949-.03.963.6.015.682-.516.645-.99.645Z" transform="translate(-76.17 -108.205)" fill="#1dc468"/>
    <path id="Path_2689" data-name="Path 2689" d="M565.12,706.224q-3.55,0-7.1,0c-.464,0-.938-.014-.927-.635s.5-.607.954-.607q7.061,0,14.123,0c.449,0,.949-.029.963.6.015.682-.516.645-.991.645Z" transform="translate(-76.17 -138.642)" fill="#1dc468"/>
    <path id="Path_2690" data-name="Path 2690" d="M560.9,598.212c-.927,0-1.854-.007-2.781,0-.447,0-.876-.048-.892-.6s.386-.646.849-.644q2.9.011,5.794,0c.437,0,.8.1.808.6.011.557-.377.65-.842.645C562.858,598.2,561.879,598.212,560.9,598.212Z" transform="translate(-76.283 -47.32)" fill="#1dc468"/>
  </g>
</svg>
