<svg xmlns="http://www.w3.org/2000/svg" width="39.64" height="39.64" viewBox="0 0 39.64 39.64">
  <g id="Group_6823" data-name="Group 6823" transform="translate(-122 -3427)">
    <circle id="Ellipse_600" data-name="Ellipse 600" cx="19.82" cy="19.82" r="19.82" transform="translate(122 3427)" fill="#1dc468"/>
    <g id="instagram" transform="translate(130.551 3436)">
      <path id="Path_3776" data-name="Path 3776" d="M22.16,6.4a7.955,7.955,0,0,0-.506-2.641A5.577,5.577,0,0,0,18.469.574,7.976,7.976,0,0,0,15.828.068C14.662.013,14.292,0,11.336,0S8.011.013,6.849.064A7.958,7.958,0,0,0,4.208.57,5.312,5.312,0,0,0,2.277,1.829,5.36,5.36,0,0,0,1.023,3.756,7.977,7.977,0,0,0,.517,6.4C.461,7.562.449,7.932.449,10.888s.013,3.326.064,4.487a7.955,7.955,0,0,0,.506,2.641A5.576,5.576,0,0,0,4.2,21.2a7.977,7.977,0,0,0,2.641.506c1.161.051,1.531.064,4.487.064s3.326-.013,4.487-.064A7.953,7.953,0,0,0,18.46,21.2a5.569,5.569,0,0,0,3.186-3.185,7.982,7.982,0,0,0,.506-2.641c.051-1.161.064-1.531.064-4.487s0-3.326-.055-4.487ZM20.2,15.29a5.967,5.967,0,0,1-.374,2.02,3.611,3.611,0,0,1-2.067,2.067,5.988,5.988,0,0,1-2.02.374c-1.148.051-1.493.064-4.4.064s-3.254-.013-4.4-.064a5.964,5.964,0,0,1-2.02-.374,3.35,3.35,0,0,1-1.25-.812,3.385,3.385,0,0,1-.812-1.25,5.99,5.99,0,0,1-.374-2.02c-.051-1.148-.064-1.493-.064-4.4s.013-3.254.064-4.4a5.964,5.964,0,0,1,.374-2.02,3.309,3.309,0,0,1,.817-1.25,3.38,3.38,0,0,1,1.25-.812,5.993,5.993,0,0,1,2.02-.374c1.148-.051,1.493-.064,4.4-.064s3.254.013,4.4.064a5.967,5.967,0,0,1,2.02.374,3.348,3.348,0,0,1,1.25.812,3.384,3.384,0,0,1,.812,1.25A5.992,5.992,0,0,1,20.2,6.5c.051,1.148.064,1.493.064,4.4s-.013,3.245-.064,4.393Zm0,0" fill="#fff"/>
      <path id="Path_3777" data-name="Path 3777" d="M130.542,124.5a5.593,5.593,0,1,0,5.593,5.593A5.594,5.594,0,0,0,130.542,124.5Zm0,9.221a3.628,3.628,0,1,1,3.628-3.628,3.628,3.628,0,0,1-3.628,3.628Zm0,0" transform="translate(-119.205 -119.205)" fill="#fff"/>
      <path id="Path_3778" data-name="Path 3778" d="M365.061,89.907a1.306,1.306,0,1,1-1.306-1.306A1.306,1.306,0,0,1,365.061,89.907Zm0,0" transform="translate(-346.605 -84.833)" fill="#fff"/>
    </g>
  </g>
</svg>
