<svg xmlns="http://www.w3.org/2000/svg" xmlns:xlink="http://www.w3.org/1999/xlink" width="38.216" height="29.433" viewBox="0 0 38.216 29.433">
  <defs>
    <linearGradient id="linear-gradient" x1="-0.575" y1="0.501" x2="2.324" y2="0.501" gradientUnits="objectBoundingBox">
      <stop offset="0" stop-color="#007940"/>
      <stop offset="0.229" stop-color="#00873f"/>
      <stop offset="0.743" stop-color="#40a737"/>
      <stop offset="1" stop-color="#5cb531"/>
    </linearGradient>
    <linearGradient id="linear-gradient-2" x1="0.002" y1="0.5" x2="1.003" y2="0.5" xlink:href="#linear-gradient"/>
    <linearGradient id="linear-gradient-3" x1="-0.628" y1="0.499" x2="2.537" y2="0.499" xlink:href="#linear-gradient"/>
    <linearGradient id="linear-gradient-4" x1="0.002" y1="0.5" x2="1.018" y2="0.5" gradientUnits="objectBoundingBox">
      <stop offset="0" stop-color="#1f286f"/>
      <stop offset="0.475" stop-color="#004e94"/>
      <stop offset="0.826" stop-color="#0066b1"/>
      <stop offset="1" stop-color="#006fbc"/>
    </linearGradient>
    <linearGradient id="linear-gradient-5" x1="-0.006" y1="0.499" x2="0.981" y2="0.499" gradientUnits="objectBoundingBox">
      <stop offset="0" stop-color="#6c2c2f"/>
      <stop offset="0.173" stop-color="#882730"/>
      <stop offset="0.573" stop-color="#be1833"/>
      <stop offset="0.859" stop-color="#dc0436"/>
      <stop offset="1" stop-color="#e60039"/>
    </linearGradient>
  </defs>
  <g id="jcb-emblem-logo" transform="translate(-10.4 -7.7)">
    <path id="Path_6004" data-name="Path 6004" d="M48.616,31.2a5.942,5.942,0,0,1-5.933,5.933H10.4v-23.5A5.942,5.942,0,0,1,16.333,7.7H48.616Z" transform="translate(0)" fill="#fff"/>
    <path id="Path_6005" data-name="Path 6005" d="M129,75.143h2.453c.07,0,.234-.023.3-.023a1.094,1.094,0,0,0,.864-1.1,1.134,1.134,0,0,0-.864-1.1,1.234,1.234,0,0,0-.3-.023H129Z" transform="translate(-90.896 -49.97)" fill="url(#linear-gradient)"/>
    <path id="Path_6006" data-name="Path 6006" d="M124.275,16.2a4.252,4.252,0,0,0-4.251,4.251v4.415h6a2.4,2.4,0,0,1,.42.023c1.355.07,2.359.771,2.359,1.986a1.986,1.986,0,0,1-1.939,1.939v.047c1.378.093,2.429.864,2.429,2.056,0,1.285-1.168,2.126-2.71,2.126H120v8.643h6.237a4.252,4.252,0,0,0,4.251-4.251V16.2Z" transform="translate(-83.998 -6.514)" fill="url(#linear-gradient-2)"/>
    <path id="Path_6007" data-name="Path 6007" d="M132.317,59.728a.994.994,0,0,0-.864-1c-.047,0-.163-.023-.234-.023H129v2.056h2.219a.651.651,0,0,0,.234-.023A.994.994,0,0,0,132.317,59.728Z" transform="translate(-90.896 -39.087)" fill="url(#linear-gradient-3)"/>
    <path id="Path_6008" data-name="Path 6008" d="M23.675,16.2a4.252,4.252,0,0,0-4.251,4.251V30.94a8.407,8.407,0,0,0,3.667.958,2.034,2.034,0,0,0,2.266-2.1V24.843H29v4.929c0,1.915-1.191,3.481-5.233,3.481a17.932,17.932,0,0,1-4.368-.537v8.947h6.237a4.252,4.252,0,0,0,4.251-4.251V16.2Z" transform="translate(-6.898 -6.514)" fill="url(#linear-gradient-4)"/>
    <path id="Path_6009" data-name="Path 6009" d="M74.051,16.2A4.252,4.252,0,0,0,69.8,20.451v5.56c1.075-.911,2.943-1.5,5.957-1.355a18.955,18.955,0,0,1,3.34.514v1.8a8.086,8.086,0,0,0-3.224-.934c-2.289-.164-3.667.958-3.667,2.92,0,1.986,1.378,3.107,3.667,2.92A8.484,8.484,0,0,0,79.1,30.94v1.8a18.5,18.5,0,0,1-3.34.514c-3.013.14-4.882-.444-5.957-1.355v9.811h6.237a4.252,4.252,0,0,0,4.251-4.251V16.2Z" transform="translate(-45.524 -6.514)" fill="url(#linear-gradient-5)"/>
  </g>
</svg>
