<svg xmlns="http://www.w3.org/2000/svg" width="39.64" height="39.64" viewBox="0 0 39.64 39.64">
  <path id="Path_2262" data-name="Path 2262" d="M118.762,98.941a19.82,19.82,0,1,0,19.82,19.82A19.842,19.842,0,0,0,118.762,98.941Zm-5.175,28.471h-4.064V115.187h4.064Zm-2.031-13.894h-.028a2.322,2.322,0,1,1,.028,0Zm16.684,13.894h-4.063v-6.541c0-1.644-.589-2.764-2.059-2.764a2.224,2.224,0,0,0-2.085,1.486,2.757,2.757,0,0,0-.134.99v6.827h-4.064s.054-11.078,0-12.225H119.9v1.731a4.035,4.035,0,0,1,3.663-2.019c2.674,0,4.677,1.747,4.677,5.5v7.01Z" transform="translate(-98.942 -98.941)" fill="#1dc468"/>
</svg>
