<svg xmlns="http://www.w3.org/2000/svg" width="29.05" height="15.612" viewBox="0 0 29.05 15.612">
  <g id="Group_2" data-name="Group 2" transform="translate(-576.099 -468.019)">
    <g id="Logo_Ay" data-name="Logo Ay" transform="translate(576.099 468.019)">
      <g id="Layer_1" data-name="Layer 1" transform="translate(0 0)">
        <g id="Group_2021" data-name="Group 2021">
          <path id="Path_2256" data-name="Path 2256" d="M29.05,3.642c-4.463,1.306-8.919,2.623-13.389,3.9a3.009,3.009,0,0,1-1.5-.014C9.447,6.285,4.749,5,0,3.373,2.1,2.824,4.256,2.432,6.285,1.7A24.62,24.62,0,0,1,24.7,1.881a35.638,35.638,0,0,0,4.34,1.191c0,.19,0,.38.005.57" transform="translate(0 -0.003)" fill="#fff" fill-rule="evenodd"/>
          <path id="Path_2257" data-name="Path 2257" d="M59.206,82.014c-2.689.246-5.277-.53-7.851-1.317-1.385-.421-2.429-4.76-1.418-5.822a1.14,1.14,0,0,1,.768-.236,2.171,2.171,0,0,1,.833.236c5.059,2.323,10.141,2.029,15.218.1,1.729-.658,2.122.014,2.114,1.67-.021,3.784-.015,3.9-3.757,4.766a20.507,20.507,0,0,1-5.91.6" transform="translate(-44.098 -66.448)" fill="#fff" fill-rule="evenodd"/>
          <path id="Path_2258" data-name="Path 2258" d="M9.819,61.79c.417.168.371.534.389.847.138,2.195.259,4.378.4,6.565.048.736-.035,1.433-.945,1.419-.887-.015-1.192-.6-1.076-1.473.274-2.077.5-4.16.768-6.239.05-.407.013-.878.469-1.119" transform="translate(-7.624 -55.009)" fill="#fff" fill-rule="evenodd"/>
        </g>
      </g>
    </g>
  </g>
</svg>
