<svg xmlns="http://www.w3.org/2000/svg" width="38.997" height="24.998" viewBox="0 0 38.997 24.998">
  <g id="Group_7885" data-name="Group 7885" transform="translate(-106.5 -891.5)">
    <path id="Path_5995" data-name="Path 5995" d="M2,0H37a2,2,0,0,1,2,2V23a2,2,0,0,1-2,2H2a2,2,0,0,1-2-2V2A2,2,0,0,1,2,0Z" transform="translate(106.5 891.5)"/>
    <g id="Mastercard-Logo.wine" transform="translate(113.64 896.361)">
      <path id="rect887" d="M224.833,42.3h7.354V54.309h-7.354Z" transform="translate(-216.149 -40.666)" fill="#ff5f00"/>
      <path id="path889" d="M9.441,7.712a7.625,7.625,0,0,1,2.917-6,7.638,7.638,0,1,0,0,12.011A7.625,7.625,0,0,1,9.441,7.712Z" transform="translate(0 -0.074)" fill="#eb001b"/>
      <path id="path891" d="M617.457,313v-.246h.106V312.7h-.252v.051h.1V313Zm.49,0v-.3h-.076l-.089.212-.089-.212h-.076v.3h.055v-.225l.083.193h.057l.083-.193V313Z" transform="translate(-593.47 -300.628)" fill="#f79e1b"/>
      <path id="path893" d="M332.344,7.638a7.638,7.638,0,0,1-12.359,6,7.638,7.638,0,0,0,0-12.011,7.638,7.638,0,0,1,12.359,6Z" transform="translate(-307.627 0)" fill="#f79e1b"/>
    </g>
  </g>
</svg>
