<svg xmlns="http://www.w3.org/2000/svg" width="7.634" height="14.888" viewBox="0 0 7.634 14.888">
  <path id="Path_5215" data-name="Path 5215" d="M270.546,475.013q0,2.678,0,5.355c0,.444,0,.889,0,1.333a.693.693,0,0,1-.744.749q-2.281,0-4.562,0H263.68a.7.7,0,0,1-.767-.763q0-6.7,0-13.4a.685.685,0,0,1,.711-.723c.836,0,1.673,0,2.509,0q1.842,0,3.683,0a.678.678,0,0,1,.708.524,1.011,1.011,0,0,1,.021.237q0,2.6,0,5.207v1.481Zm-.627.457v-.134q0-3.122,0-6.243c0-.147,0-.147-.149-.147h-6.225v6.526Zm-5.667,3.852h0c.178,0,.357,0,.536,0,.143,0,.2-.059.2-.2,0-.122,0-.243,0-.364s-.059-.192-.2-.193q-.53,0-1.06,0c-.134,0-.191.061-.193.2s0,.25,0,.376.06.185.19.186C263.9,479.324,264.077,479.322,264.252,479.322Zm0-2.5h0c.182,0,.365,0,.547,0a.164.164,0,0,0,.186-.181c0-.137,0-.273,0-.41a.157.157,0,0,0-.165-.167c-.372,0-.745,0-1.117,0a.158.158,0,0,0-.167.175q0,.2,0,.4c0,.126.062.184.193.185C263.905,476.821,264.08,476.819,264.255,476.819Zm2.475,2.5v0c.182,0,.364,0,.546,0a.156.156,0,0,0,.176-.174q0-.2,0-.409a.157.157,0,0,0-.168-.173q-.552,0-1.1,0a.154.154,0,0,0-.171.17c0,.136,0,.273,0,.409s.06.177.186.178C266.373,479.324,266.552,479.322,266.73,479.322Zm2.468-2.5h0c.182,0,.364,0,.546,0a.155.155,0,0,0,.174-.176c0-.136,0-.273,0-.409a.15.15,0,0,0-.158-.17q-.557-.007-1.115,0a.151.151,0,0,0-.163.165c0,.136,0,.273,0,.409s.058.18.192.182C268.849,476.82,269.024,476.819,269.2,476.819Zm0,2.5c.178,0,.357,0,.535,0,.125,0,.181-.056.183-.179s0-.273,0-.41a.15.15,0,0,0-.158-.169q-.558-.007-1.116,0a.151.151,0,0,0-.162.166c0,.133,0,.265,0,.4s.057.192.194.193C268.851,479.324,269.026,479.323,269.2,479.322Zm-2.464.515h-.559a.152.152,0,0,0-.169.159c-.005.14,0,.281,0,.421a.15.15,0,0,0,.171.167q.552,0,1.1,0c.116,0,.165-.054.167-.17,0-.133,0-.266,0-.4s-.052-.178-.18-.18C267.094,479.836,266.915,479.837,266.737,479.837Zm-2.483,2.019h0c.182,0,.365,0,.547,0,.126,0,.183-.054.186-.178s0-.266,0-.4a.153.153,0,0,0-.168-.17q-.553,0-1.105,0c-.119,0-.172.056-.174.175s0,.258,0,.387.056.181.179.183C263.9,481.858,264.075,481.856,264.253,481.856Zm.01-3.805h0c.182,0,.364,0,.547,0a.158.158,0,0,0,.176-.165c0-.14,0-.281,0-.421a.151.151,0,0,0-.163-.165c-.372,0-.744,0-1.116,0-.121,0-.168.056-.17.179s0,.25,0,.375c0,.141.058.2.2.2Zm2.469,0h0c.178,0,.357,0,.535,0,.129,0,.184-.058.185-.189s0-.258,0-.387-.05-.173-.175-.173q-.547,0-1.094,0c-.122,0-.171.053-.175.175s0,.258,0,.387.056.185.189.186C266.375,478.051,266.554,478.05,266.732,478.05Zm-2.463,1.787h0c-.182,0-.365,0-.547,0a.16.16,0,0,0-.183.18c0,.129,0,.258,0,.387s.05.179.17.18q.553,0,1.106,0c.116,0,.17-.06.172-.179s0-.251,0-.376-.056-.193-.193-.194C264.619,479.836,264.444,479.837,264.269,479.837Zm2.466,1.273c-.182,0-.364,0-.546,0a.151.151,0,0,0-.177.16c-.005.144-.009.288,0,.431a.153.153,0,0,0,.172.157c.368,0,.736,0,1.1,0a.153.153,0,0,0,.167-.171c0-.129,0-.258,0-.387s-.048-.187-.194-.188C267.084,481.109,266.91,481.109,266.735,481.11Zm2.47,0h-.558a.145.145,0,0,0-.164.16q0,.216,0,.432a.142.142,0,0,0,.157.155q.558,0,1.116,0a.142.142,0,0,0,.162-.161c0-.136,0-.273,0-.409s-.045-.175-.179-.177C269.561,481.108,269.383,481.109,269.2,481.109Zm-.01-3.06h.558c.1,0,.162-.045.165-.147,0-.152,0-.3,0-.455a.137.137,0,0,0-.152-.147c-.376,0-.751,0-1.127,0a.141.141,0,0,0-.156.156c0,.14,0,.281,0,.421,0,.121.054.171.176.172C268.837,478.051,269.016,478.05,269.194,478.05Zm.007,1.787h0c-.182,0-.365,0-.547,0-.116,0-.168.051-.171.165,0,.14,0,.281,0,.421a.145.145,0,0,0,.161.163q.558,0,1.116,0a.144.144,0,0,0,.159-.164c0-.137,0-.273,0-.41s-.051-.175-.182-.176C269.558,479.835,269.379,479.837,269.2,479.837Zm-2.973-3.4a.5.5,0,0,0,.5.512.513.513,0,0,0,.514-.514.507.507,0,0,0-.5-.5A.492.492,0,0,0,266.228,476.435Zm.5-8.358h-1.31c-.085,0-.171.006-.172.115s.078.123.167.118.151,0,.227,0h2.369a.328.328,0,0,0,.124-.008c.037-.016.087-.054.088-.084a.175.175,0,0,0-.064-.118.182.182,0,0,0-.108-.019Zm-2.211.279c.053-.072.1-.109.109-.154a.091.091,0,0,0-.1-.116.173.173,0,0,0-.11.114C264.405,468.233,264.464,468.281,264.516,468.356Z" transform="translate(-262.913 -467.564)" fill="#fff"/>
</svg>
