<svg xmlns="http://www.w3.org/2000/svg" width="24.903" height="33.71" viewBox="0 0 24.903 33.71">
  <g id="Group_2688" data-name="Group 2688" transform="translate(0)">
    <path id="Path_2720" data-name="Path 2720" d="M218.611,304.342c-.373-.159-.432-.475-.449-.836q-.223-4.537-.46-9.073c0-.086-.015-.172-.027-.3H216.1c-.572,0-.7-.163-.558-.725.725-2.9,1.473-5.8,2.161-8.709a12.887,12.887,0,0,0,.156-2.086l-.106-.037c-.086.136-.183.266-.258.408a16.147,16.147,0,0,0-1.586,4.683,1.271,1.271,0,0,1-.89,1.114,1.18,1.18,0,0,1-1.538-1.24,11.957,11.957,0,0,1,.392-1.9,14.885,14.885,0,0,1,2.554-5.439,6.394,6.394,0,0,1,3.563-2.453,5.92,5.92,0,0,1,5.893,1.737,12.19,12.19,0,0,1,2.859,5.084c.32,1.03.5,2.1.741,3.158a.424.424,0,0,0,.071.179c.394.454.784.912,1.2,1.348a.416.416,0,0,0,.366.06,4.745,4.745,0,0,1,5.584,1.53,8.058,8.058,0,0,1,1.671,4.155.757.757,0,0,1-.52.852.77.77,0,0,1-.906-.279,1.1,1.1,0,0,1-.157-.423,7.772,7.772,0,0,0-.961-2.779c-.145-.238-.32-.457-.481-.685l-.09.029c0,.465.026.931-.007,1.393a3.776,3.776,0,0,0,.344,1.782c.453,1.057.863,2.132,1.289,3.2.157.4.112.465-.311.47s-.874,0-1.341,0c-.023.343-.049.656-.065.969-.073,1.4-.137,2.806-.223,4.208a2.487,2.487,0,0,1-.193.6h-1.119a2.165,2.165,0,0,1-.2-.559c-.082-1.324-.141-2.649-.21-3.974-.021-.4-.05-.8-.076-1.214h-.434c-.01.1-.02.178-.024.254-.084,1.631-.159,3.263-.261,4.893a2.037,2.037,0,0,1-.247.6h-1.054a1.839,1.839,0,0,1-.214-.518c-.058-.722-.082-1.446-.119-2.169-.047-.932-.1-1.863-.136-2.795-.009-.226-.087-.308-.315-.3-.329.016-.658,0-.987,0-.516,0-.553-.057-.366-.524q.758-1.891,1.512-3.784a1.1,1.1,0,0,0,.1-.377c.009-.746.011-1.492,0-2.238a.412.412,0,0,0-.148-.29,8.206,8.206,0,0,1-2.151-2.288.589.589,0,0,0-.279-.25,1.3,1.3,0,0,1-.98-1.146,16.419,16.419,0,0,0-1.636-4.734c-.063-.116-.138-.225-.207-.338l-.1.035a12.836,12.836,0,0,0,.155,2.086c.69,2.921,1.441,5.828,2.168,8.74.124.5-.016.676-.524.678-.535,0-1.071,0-1.615,0-.015.118-.03.2-.035.289q-.089,1.692-.176,3.385c-.1,1.929-.2,3.857-.29,5.786a.774.774,0,0,1-.431.747h-1.514a.751.751,0,0,1-.444-.737q-.165-3.464-.344-6.927c-.043-.839-.089-1.678-.135-2.521h-.869c-.063,1.212-.125,2.4-.186,3.6-.1,1.959-.205,3.917-.3,5.877a.758.758,0,0,1-.426.712Z" transform="translate(-213.472 -270.632)" fill="#1dc468"/>
    <path id="Path_2721" data-name="Path 2721" d="M230.246,257.086a3.054,3.054,0,1,1,3.036,3.073A3.054,3.054,0,0,1,230.246,257.086Z" transform="translate(-225.299 -254.049)" fill="#1dc468"/>
    <path id="Path_2722" data-name="Path 2722" d="M274.116,299.8a2.216,2.216,0,1,1-2.21,2.215A2.2,2.2,0,0,1,274.116,299.8Z" transform="translate(-254.674 -286.311)" fill="#1dc468"/>
  </g>
</svg>
