<svg id="School_Icon_5" data-name="School Icon 5" xmlns="http://www.w3.org/2000/svg" width="26.904" height="25.405" viewBox="0 0 26.904 25.405">
  <g id="objects">
    <path id="Path_835" data-name="Path 835" d="M26.371,12.935l.534-.078V11.185H19.232V9.012l.975.19V7.5l-.071-.017L13.993,6.1c-.36,0-.259-.444-.259-.444V2.924c.192-.519,1.186-.135,1.186-.135a2.54,2.54,0,0,0,2.016.564V1.115A1.765,1.765,0,0,1,15.1.685C14.683.315,13.787.55,13.787.55l-.1.081V0l-.42.043v5.6c0,.486-.344.441-.344.441L6.731,7.5V9.2l1-.185v2.2H0v1.66l.534.038V23.461H0v1.945H26.9V23.461h-.534ZM20.16,14.491h3.856V18.35H20.16ZM9.167,8.8h8.569v2.436H9.167ZM2.372,14.491H6.219V18.35H2.372Zm6.807,8.97v-8.97h8.557v8.97Z" fill="#c2c2c2"/>
  </g>
</svg>
