<svg xmlns="http://www.w3.org/2000/svg" width="31.705" height="17.047" viewBox="0 0 31.705 17.047">
  <g id="Hat_black" data-name="Hat black" transform="translate(0 -0.002)">
    <g id="objects" transform="translate(0 0.002)">
      <path id="Path_842" data-name="Path 842" d="M6.455,36.77c.453.183.4.584.423.926.151,2.389.284,4.776.437,7.171.052.805-.038,1.564-1.03,1.55s-1.3-.654-1.173-1.61c.3-2.272.547-4.547.831-6.817.056-.443.014-.954.513-1.22" transform="translate(-4.06 -29.37)" fill="#c2c2c2"/>
      <path id="Path_843" data-name="Path 843" d="M31.705,3.972C26.833,5.4,21.97,6.845,17.087,8.229a3.275,3.275,0,0,1-1.638-.014C10.313,6.861,5.185,5.46,0,3.681c2.292-.6,4.647-1.026,6.863-1.827a26.847,26.847,0,0,1,20.1.2,38.788,38.788,0,0,0,4.738,1.3v.62" transform="translate(0 -0.002)" fill="#c2c2c2"/>
      <path id="Path_844" data-name="Path 844" d="M40.053,52.468c-2.932.268-5.758-.58-8.568-1.441-1.511-.453-2.643-5.191-1.548-6.352a1.261,1.261,0,0,1,.839-.256,2.345,2.345,0,0,1,.908.256c5.525,2.538,11.07,2.214,16.612.109,1.886-.714,2.319.016,2.306,1.823-.024,4.13-.016,4.255-4.1,5.2a21.977,21.977,0,0,1-6.44.658" transform="translate(-23.563 -35.48)" fill="#c2c2c2"/>
    </g>
  </g>
</svg>
