<svg xmlns="http://www.w3.org/2000/svg" width="27.867" height="25.541" viewBox="0 0 27.867 25.541">
  <g id="ID_Card" data-name="ID Card" transform="translate(0.009)">
    <g id="PRINT" transform="translate(-0.009)">
      <path id="Path_865" data-name="Path 865" d="M13.253,0h1.094c.018.019.032.047.055.055a1.255,1.255,0,0,1,.87,1.329c-.013,1.513,0,3.027,0,4.541v.35H25.23a2.626,2.626,0,0,1,2.537,1.573.921.921,0,0,1,.085.392q.009,7.659,0,15.318a.985.985,0,0,1-.1.417,2.641,2.641,0,0,1-2.545,1.564q-11.228,0-22.456,0a2.674,2.674,0,0,1-2.77-2.757q0-6.852.015-13.7A3.035,3.035,0,0,1,.232,7.885,2.612,2.612,0,0,1,2.846,6.273q4.472.008,8.943,0h.489V5.885q0-2.283,0-4.567A1.823,1.823,0,0,1,12.319.94,1.314,1.314,0,0,1,13.253,0Zm-.428,17.075h0V13.737a.955.955,0,0,0-1.047-1.053H5.136a.953.953,0,0,0-1.053,1.024q-.009,3.362,0,6.723a.946.946,0,0,0,1.036,1.012q3.337,0,6.669,0A.952.952,0,0,0,12.822,20.4Q12.827,18.743,12.825,17.075Zm-.57-9.64c-.848,0-1.677,0-2.505,0a.387.387,0,0,0-.412.415c-.012.261-.009.528-.006.793,0,.419.14.553.561.553H17.82c.828,0,.852-.028.857-.858,0-.881-.024-.908-.893-.906h-2.49a1.235,1.235,0,0,1-.867,1.162,2.559,2.559,0,0,1-.728.074A1.28,1.28,0,0,1,12.255,7.434Zm8.162,7.589c1.2,0,2.407,0,3.607-.006.142,0,.393-.063.4-.129a2.407,2.407,0,0,0,.007-.879c-.017-.082-.328-.144-.5-.144-2.314-.009-4.628-.007-6.942-.006-.647,0-.656.011-.656.656,0,.451.055.507.5.508Q18.627,15.026,20.417,15.024Zm0,6.423h3.392c.689,0,.7-.007.69-.705,0-.4-.06-.456-.462-.456h-7c-.707,0-.707,0-.7.708,0,.373.076.45.448.451h3.636Zm.034-4.662h0c-1.138,0-2.276,0-3.414,0-.656,0-.721-.066-.7.7.009.386.078.458.467.458H23.77c.741,0,.759-.017.732-.766-.011-.323-.084-.394-.414-.394Q22.272,16.784,20.455,16.785ZM13.789,2.767a.833.833,0,0,0,.826-.836.861.861,0,0,0-.838-.836.847.847,0,0,0-.837.833.826.826,0,0,0,.849.84Z" transform="translate(0.009)" fill="#c2c2c2"/>
      <path id="Path_866" data-name="Path 866" d="M95.536,322.4c.365.524.684,1.01,1.032,1.477.478.637.556.632.991-.049.283-.443.538-.9.817-1.374a5.458,5.458,0,0,1,1.575,1.242,1.058,1.058,0,0,1,.114,1.181.671.671,0,0,1-.671.416c-1.576-.012-3.152-.005-4.727-.005a.908.908,0,0,1-.821-1.382,2.555,2.555,0,0,1,.578-.68C94.77,322.93,95.153,322.681,95.536,322.4Z" transform="translate(-88.588 -304.763)" fill="#c2c2c2"/>
      <path id="Path_867" data-name="Path 867" d="M123.191,252.98a2.163,2.163,0,0,1-.635,1.527,1.736,1.736,0,0,1-2.532-.055,2.191,2.191,0,0,1,.028-2.974,1.655,1.655,0,0,1,1.721-.487,1.889,1.889,0,0,1,1.333,1.422A4.811,4.811,0,0,1,123.191,252.98Z" transform="translate(-112.919 -237.193)" fill="#c2c2c2"/>
    </g>
  </g>
</svg>
