<svg xmlns="http://www.w3.org/2000/svg" width="18.209" height="17.44" viewBox="0 0 18.209 17.44">
  <path id="home-svgrepo-com_1_" data-name="home-svgrepo-com (1)" d="M17.889,13.739,15.61,11.882V8.913A.607.607,0,0,0,15,8.306H13.57a.607.607,0,0,0-.607.607v.813L9.92,7.244a1.337,1.337,0,0,0-1.631,0L.32,13.739c-.362.3-.34.552-.3.679s.19.339.655.339H1.771V23.3a1.105,1.105,0,0,0,1.1,1.106H6.32A1.079,1.079,0,0,0,7.395,23.3V19.8a.6.6,0,0,1,.579-.574H10.29a.551.551,0,0,1,.524.574v3.5a1.133,1.133,0,0,0,1.13,1.106h3.391a1.105,1.105,0,0,0,1.1-1.106V14.757h1.091c.465,0,.61-.212.655-.339S18.251,14.034,17.889,13.739Z" transform="translate(0 -6.966)" fill="#1dc468"/>
</svg>
