<svg xmlns="http://www.w3.org/2000/svg" width="518" height="294" viewBox="0 0 518 294">
  <g id="Group_3082" data-name="Group 3082" transform="translate(-701 -369)">
    <rect id="Rectangle_3882" data-name="Rectangle 3882" width="518" height="294" rx="17" transform="translate(701 369)" fill="#f5f5f5"/>
    <rect id="Rectangle_3867" data-name="Rectangle 3867" width="487" height="76" rx="9" transform="translate(717 391)" fill="#fff"/>
    <rect id="Rectangle_3868" data-name="Rectangle 3868" width="487" height="75" rx="9" transform="translate(717 482)" fill="#fff"/>
    <rect id="Rectangle_3869" data-name="Rectangle 3869" width="487" height="76" rx="9" transform="translate(717 569)" fill="#fff"/>
    <rect id="Rectangle_3870" data-name="Rectangle 3870" width="72" height="16" transform="translate(744 409)" fill="#1dc468"/>
    <rect id="Rectangle_3873" data-name="Rectangle 3873" width="72" height="16" transform="translate(744 500)" fill="#1dc468"/>
    <rect id="Rectangle_3876" data-name="Rectangle 3876" width="72" height="16" transform="translate(744 587)" fill="#1dc468"/>
    <rect id="Rectangle_3871" data-name="Rectangle 3871" width="198" height="16" transform="translate(744 433)" fill="#f5f5f5"/>
    <rect id="Rectangle_3884" data-name="Rectangle 3884" width="38" height="16" transform="translate(1143 433)" fill="#f5f5f5"/>
    <rect id="Rectangle_3885" data-name="Rectangle 3885" width="38" height="16" transform="translate(1143 524)" fill="#f5f5f5"/>
    <rect id="Rectangle_3886" data-name="Rectangle 3886" width="38" height="16" transform="translate(1143 611)" fill="#f5f5f5"/>
    <rect id="Rectangle_3874" data-name="Rectangle 3874" width="198" height="16" transform="translate(744 524)" fill="#f5f5f5"/>
    <rect id="Rectangle_3877" data-name="Rectangle 3877" width="198" height="16" transform="translate(744 611)" fill="#f5f5f5"/>
  </g>
</svg>
