<svg xmlns="http://www.w3.org/2000/svg" width="36.623" height="36.623" viewBox="0 0 36.623 36.623">
  <g id="phone-call_1_" data-name="phone-call (1)" transform="translate(0 0)">
    <g id="Group_6926" data-name="Group 6926" transform="translate(0 0)">
      <path id="Path_5172" data-name="Path 5172" d="M31.257,5.361a18.311,18.311,0,1,0,5.365,12.946A18.311,18.311,0,0,0,31.257,5.361ZM27.732,25.507l0,0V25.5l-.928.922a4.883,4.883,0,0,1-4.608,1.318,16.225,16.225,0,0,1-4.712-2.112,21.771,21.771,0,0,1-3.717-3,21.939,21.939,0,0,1-2.777-3.369A17.089,17.089,0,0,1,8.9,15.042a4.883,4.883,0,0,1,1.221-4.987l1.086-1.086a.775.775,0,0,1,1.1,0l0,0,3.43,3.43a.775.775,0,0,1,0,1.1l0,0-2.014,2.014a1.642,1.642,0,0,0-.171,2.136,23.557,23.557,0,0,0,2.411,2.814,23.412,23.412,0,0,0,3.174,2.667,1.654,1.654,0,0,0,2.112-.183l1.947-1.978a.775.775,0,0,1,1.1,0l0,0,3.436,3.443A.775.775,0,0,1,27.732,25.507Z" transform="translate(0 0)" fill="#1dc468"/>
    </g>
  </g>
</svg>
