<svg id="prize" xmlns="http://www.w3.org/2000/svg" width="30.238" height="36.202" viewBox="0 0 30.238 36.202">
  <g id="Group_1133" data-name="Group 1133" transform="translate(11.927 23.203)">
    <path id="Path_2260" data-name="Path 2260" d="M128.694,190.832a.444.444,0,0,0-.583-.451,8.922,8.922,0,0,1-5.219,0,.443.443,0,0,0-.583.451v1.747a.6.6,0,0,0,.6.6h5.18a.6.6,0,0,0,.6-.6Z" transform="translate(-122.309 -190.362)" fill="#fcdb36"/>
  </g>
  <g id="Group_1134" data-name="Group 1134" transform="translate(5.963 0)">
    <path id="Path_2261" data-name="Path 2261" d="M91.7,1.2a1.2,1.2,0,0,0-1.2-1.2H74.59a1.2,1.2,0,0,0-1.2,1.2v9.939a12.477,12.477,0,0,0,2.605,7.973,8.353,8.353,0,0,0,13.1,0A12.477,12.477,0,0,0,91.7,11.144Z" transform="translate(-73.385)" fill="#fcdb36"/>
  </g>
  <g id="Group_1135" data-name="Group 1135" transform="translate(0 1.365)">
    <path id="Path_2262" data-name="Path 2262" d="M29.279,23.394c-1.649-.613-2.408-2.036-2.408-4.4V13.611H29.1V11.2H25.667a1.2,1.2,0,0,0-1.2,1.2v6.586c0,4.018,1.924,6.465,5.463,7.037A14.629,14.629,0,0,1,29.279,23.394Z" transform="translate(-24.462 -11.202)" fill="#fcdb36"/>
  </g>
  <g id="Group_1136" data-name="Group 1136" transform="translate(5.963 27.829)">
    <path id="Path_2263" data-name="Path 2263" d="M74.59,228.31a1.2,1.2,0,0,0-1.2,1.2v5.963a1.2,1.2,0,0,0,1.2,1.2h15.9a1.2,1.2,0,0,0,1.2-1.2v-5.963a1.2,1.2,0,0,0-1.2-1.2Z" transform="translate(-73.385 -228.31)" fill="#fcdb36"/>
  </g>
  <g id="Group_1137" data-name="Group 1137" transform="translate(24.775 1.365)">
    <path id="Path_2264" data-name="Path 2264" d="M231.977,11.2h-3.433v2.409h2.229v5.381c0,2.365-.759,3.788-2.408,4.4a14.623,14.623,0,0,1-.646,2.635c3.538-.572,5.463-3.019,5.463-7.037V12.407A1.2,1.2,0,0,0,231.977,11.2Z" transform="translate(-227.719 -11.202)" fill="#fcdb36"/>
  </g>
</svg>
