<svg xmlns="http://www.w3.org/2000/svg" width="31.887" height="26.63" viewBox="0 0 31.887 26.63">
  <g id="left-quote" transform="translate(0)">
    <g id="Group_2220" data-name="Group 2220" transform="translate(0 0)">
      <path id="Path_3103" data-name="Path 3103" d="M10.206,19.926a8.449,8.449,0,0,0-2.335-.341,7.337,7.337,0,0,0-2.927.6c.736-2.694,2.5-7.342,6.025-7.866a.837.837,0,0,0,.682-.6l.77-2.753a.836.836,0,0,0-.692-1.054,5.846,5.846,0,0,0-.787-.054C6.715,7.858,2.529,12.27.762,18.587-.274,22.293-.578,27.865,1.976,31.372a7.625,7.625,0,0,0,6.2,3.115h.033a7.418,7.418,0,0,0,2-14.561Z" transform="translate(0 -7.858)" fill="#1dc468"/>
      <path id="Path_3104" data-name="Path 3104" d="M63.292,23.43a7.436,7.436,0,0,0-4.46-3.5,8.449,8.449,0,0,0-2.334-.341,7.339,7.339,0,0,0-2.928.6c.736-2.694,2.5-7.342,6.025-7.866a.837.837,0,0,0,.682-.6l.77-2.753a.836.836,0,0,0-.692-1.054,5.838,5.838,0,0,0-.787-.054c-4.227,0-8.413,4.412-10.18,10.729-1.037,3.706-1.341,9.278,1.214,12.786a7.624,7.624,0,0,0,6.2,3.115h.033A7.418,7.418,0,0,0,63.292,23.43Z" transform="translate(-32.362 -7.858)" fill="#1dc468"/>
    </g>
  </g>
</svg>
