<svg id="Hat_black" data-name="Hat black" xmlns="http://www.w3.org/2000/svg" width="225.339" height="121.156" viewBox="0 0 225.339 121.156">
  <g id="objects" transform="translate(0 0)">
    <path id="Path_842" data-name="Path 842" d="M14.835,36.77c3.219,1.3,2.861,4.148,3,6.58,1.073,16.979,2.017,33.944,3.1,50.966.372,5.722-.272,11.114-7.324,11.014s-9.255-4.649-8.34-11.443C7.41,77.737,9.17,61.574,11.187,45.438c.4-3.147.1-6.78,3.648-8.668" transform="translate(2.188 15.824)" fill="#fff"/>
    <path id="Path_843" data-name="Path 843" d="M225.339,28.222c-34.631,10.127-69.191,20.412-103.894,30.254a23.274,23.274,0,0,1-11.644-.1C73.3,48.748,36.848,38.792,0,26.147c16.293-4.291,33.029-7.3,48.778-12.988C96.742-4.192,144.047-5.05,191.624,14.59c10.686,4.391,22.415,6.222,33.673,9.241v4.406" transform="translate(0 -0.002)" fill="#fff"/>
    <path id="Path_844" data-name="Path 844" d="M104.5,101.623c-20.842,1.9-40.925-4.12-60.894-10.242-10.743-3.218-18.782-36.891-11-45.144,1.287-1.33,3.977-1.831,5.965-1.817a16.665,16.665,0,0,1,6.451,1.817c39.266,18.038,78.675,15.735,118.07.772,13.4-5.078,16.479.114,16.393,12.96-.172,29.352-.114,30.239-29.138,36.977-14.862,3.433-30.04,5.722-45.775,4.677" transform="translate(12.699 19.117)" fill="#fff"/>
  </g>
</svg>
