<svg id="School_Icon_5" data-name="School Icon 5" xmlns="http://www.w3.org/2000/svg" width="57.204" height="54.016" viewBox="0 0 57.204 54.016">
  <g id="objects">
    <path id="Path_835" data-name="Path 835" d="M56.069,27.5l1.135-.166V23.781H40.891V19.162l2.073.4V15.939l-.151-.035-13.06-2.945c-.766,0-.55-.943-.55-.943v-5.8c.408-1.1,2.521-.287,2.521-.287,1.417,1.609,4.286,1.2,4.286,1.2V2.37A3.752,3.752,0,0,1,32.1,1.457c-.882-.787-2.789-.287-2.789-.287l-.212.171V0l-.893.091V12.006c0,1.034-.731.938-.731.938l-13.166,3v3.61l2.123-.393v4.685H0v3.53l1.135.081V49.881H0v4.135H57.2V49.881H56.069ZM42.862,30.81h8.2v8.2h-8.2ZM19.49,18.708H37.709v5.179H19.49ZM5.043,30.81h8.179v8.2H5.043ZM19.515,49.881V30.81H37.709V49.881Z" fill="#fff"/>
  </g>
</svg>
