<svg xmlns="http://www.w3.org/2000/svg" width="55" height="55" viewBox="0 0 55 55">
  <g id="Science" transform="translate(-28 -1078.549)">
    <rect id="Rectangle_3709" data-name="Rectangle 3709" width="55" height="55" rx="5" transform="translate(28 1078.549)" fill="#1dc468"/>
    <g id="Asset_33" data-name="Asset 33" transform="translate(43.145 1092.897)">
      <g id="Layer_1" data-name="Layer 1" transform="translate(0 0)">
        <path id="Path_518" data-name="Path 518" d="M101.935,0a4.189,4.189,0,0,1,2.478,1.337,8,8,0,0,1,1.382,2.026c.294.614.533,1.254.8,1.882.042.1.079.2.117.3.625-.089,1.232-.194,1.844-.259a7.555,7.555,0,0,1,3.679.366A3.323,3.323,0,0,1,114.255,9.9a9.212,9.212,0,0,1-1.728,3.28,21.9,21.9,0,0,1-4.121,4,1.3,1.3,0,0,1-.146.081c.123-.836.234-1.638.366-2.437a.627.627,0,0,1,.211-.3,16.649,16.649,0,0,0,2.827-3.174,5.227,5.227,0,0,0,.971-2.383,1.425,1.425,0,0,0-.955-1.6,4.681,4.681,0,0,0-1.169-.31,10.247,10.247,0,0,0-3.322.229,33.364,33.364,0,0,1,.167,13.047l-1.79-.09c.07-.4.134-.767.195-1.137a31.061,31.061,0,0,0,.26-7.752,21.781,21.781,0,0,0-1.431-6.4,7.724,7.724,0,0,0-1.39-2.343,3.858,3.858,0,0,0-.317-.309,1.614,1.614,0,0,0-2.357.018A6.582,6.582,0,0,0,98.994,4.6a17.408,17.408,0,0,0-1.107,3.5.684.684,0,0,1-.184.352c-.587.52-1.187,1.024-1.785,1.533-.032.028-.07.049-.169.117.094-.589.167-1.114.262-1.636A17.672,17.672,0,0,1,97.5,3.645a12.94,12.94,0,0,1,1.225-1.965A4.039,4.039,0,0,1,101.547,0Z" transform="translate(-89.017)" fill="#fff"/>
        <path id="Path_519" data-name="Path 519" d="M12.2,90.47c-.82.295-1.555.58-2.3.823a15.134,15.134,0,0,1-5.728.9,6.943,6.943,0,0,1-1.859-.376A3.257,3.257,0,0,1,.132,87.84a9.171,9.171,0,0,1,1.9-3.706c.227-.29.468-.57.709-.861-.362-.461-.739-.914-1.083-1.386A8.259,8.259,0,0,1,.154,78.774a3.352,3.352,0,0,1,2.589-4.23A9.31,9.31,0,0,1,6.369,74.4c.326.041.65.1,1.008.158-.272.537-.524,1.048-.8,1.548-.031.057-.188.076-.281.064a8.806,8.806,0,0,0-2.646-.018,3.885,3.885,0,0,0-.744.2A1.554,1.554,0,0,0,1.843,78.31,5.15,5.15,0,0,0,2.656,80.2c.41.611.862,1.2,1.31,1.806A33.03,33.03,0,0,1,15.51,75.232c.077.589.155,1.142.211,1.7,0,.048-.1.136-.175.16a30.379,30.379,0,0,0-6.026,2.94,24.808,24.808,0,0,0-5.855,4.9,9.125,9.125,0,0,0-1.517,2.334,5.314,5.314,0,0,0-.289.891,1.6,1.6,0,0,0,1.2,2.067,6.587,6.587,0,0,0,2.6.191,17.254,17.254,0,0,0,3.8-.827.828.828,0,0,1,.492.015c.642.228,1.275.48,1.912.726C11.954,90.359,12.034,90.4,12.2,90.47Z" transform="translate(-0.037 -69.066)" fill="#fff"/>
        <path id="Path_520" data-name="Path 520" d="M73.481,218.43c-.207.518-.4,1.055-.633,1.574a9.02,9.02,0,0,1-1.745,2.7,3.38,3.38,0,0,1-5.156.087,9.892,9.892,0,0,1-2.181-3.606l1.594-.748c.156.364.278.725.459,1.055a18.762,18.762,0,0,0,1,1.651,3.105,3.105,0,0,0,.734.7,1.485,1.485,0,0,0,1.873,0,4.639,4.639,0,0,0,1.427-1.772c.34-.672.621-1.373.943-2.095A33.009,33.009,0,0,1,60,211.287c.53-.312,1.023-.611,1.528-.888.058-.032.2.037.275.1a28.734,28.734,0,0,0,3.633,2.618,27.536,27.536,0,0,0,8.305,3.529,10.249,10.249,0,0,0,3.678.255,4.011,4.011,0,0,0,.932-.243,1.515,1.515,0,0,0,1.01-1.9,6.46,6.46,0,0,0-1.17-2.451c-.238-.338-.5-.661-.774-1.025l1.531-.9a11.476,11.476,0,0,1,1.673,2.581,5.344,5.344,0,0,1,.538,1.961,3.266,3.266,0,0,1-2.371,3.476,7.826,7.826,0,0,1-3.227.31C74.874,218.648,74.193,218.526,73.481,218.43Z" transform="translate(-55.782 -195.581)" fill="#fff"/>
        <path id="Path_521" data-name="Path 521" d="M145.383,169.3a2.649,2.649,0,1,1,2.679-2.6A2.655,2.655,0,0,1,145.383,169.3Z" transform="translate(-132.71 -152.451)" fill="#fff"/>
      </g>
    </g>
  </g>
</svg>
