<svg xmlns="http://www.w3.org/2000/svg" xmlns:xlink="http://www.w3.org/1999/xlink" width="38" height="34" viewBox="0 0 38 34">
  <defs>
    <clipPath id="clip-path">
      <rect id="Rectangle_3651" data-name="Rectangle 3651" width="38" height="34" rx="3" transform="translate(-0.098 0.425)" fill="#1dc468"/>
    </clipPath>
  </defs>
  <g id="Mask_Group_3" data-name="Mask Group 3" transform="translate(0.098 -0.425)" clip-path="url(#clip-path)">
    <g id="basketball" transform="translate(1.353 0.665)">
      <g id="Group_2690" data-name="Group 2690" transform="translate(17.3 8.566)">
        <g id="Group_2689" data-name="Group 2689">
          <path id="Path_3343" data-name="Path 3343" d="M308.57,156.063a1.026,1.026,0,0,0-1.449-.054l-2.074,1.926-.1-.051a.883.883,0,0,0-.914.017l.041-.1a.3.3,0,0,0-.522-.3,2.552,2.552,0,1,0-5.071,0,.3.3,0,0,0-.522.3l.041.1a.883.883,0,0,0-.914-.017,2.994,2.994,0,0,0-.822.6l-3.528-2.343a1.026,1.026,0,0,0-1.135,1.709c7.315,4.859,6.906,4.589,6.957,4.619-.247,2.017.056.292-1.61,8.892a.571.571,0,0,0,.559.679h.507l-1.245,6.346a1.231,1.231,0,1,0,2.415.474l1.338-6.82h1.232l1.009,6.764a1.231,1.231,0,1,0,2.434-.363l-.955-6.4h.284a.57.57,0,0,0,.559-.679c-1.666-8.6-1.355-6.8-1.641-9.141l2.611-2.425a2.96,2.96,0,0,1,.319.084.16.16,0,0,0,.193-.222c-.039-.08-.078-.156-.118-.229l2.064-1.916A1.026,1.026,0,0,0,308.57,156.063Zm-6.346,4.493h-2.841l-1.355-.9.025-.01a.886.886,0,0,0,.457-.551l.044.1a.3.3,0,0,0,.557-.238l-.038-.089a2.55,2.55,0,0,0,3.89,0l-.038.089a.3.3,0,1,0,.557.238l.044-.1a.879.879,0,0,0,.074.182Z" transform="translate(-291.145 -154.669)" fill="#1dc468"/>
        </g>
      </g>
      <g id="Group_2692" data-name="Group 2692" transform="translate(5.582 7.956)">
        <g id="Group_2691" data-name="Group 2691">
          <ellipse id="Ellipse_5" data-name="Ellipse 5" cx="2.559" cy="2.559" rx="2.559" ry="2.559" fill="#1dc468"/>
        </g>
      </g>
      <g id="Group_2694" data-name="Group 2694" transform="translate(0 6.292)">
        <g id="Group_2693" data-name="Group 2693">
          <path id="Path_3344" data-name="Path 3344" d="M16.465,118.04a1.034,1.034,0,0,0-1.659-1.234l-5.34,7.179H6.707l-4.874-5.932a1.034,1.034,0,0,0-1.6,1.313l5.156,6.275v6.866l-2.956,9.74a1.241,1.241,0,0,0,2.375.721l2.754-9.074h.961l.894,8.838a1.241,1.241,0,1,0,2.469-.25c-1.077-10.645-1-9.932-1.02-10.024v-6.892Z" transform="translate(0 -116.389)" fill="#1dc468"/>
        </g>
      </g>
      <g id="Group_2696" data-name="Group 2696" transform="translate(17.263 0)">
        <g id="Group_2695" data-name="Group 2695">
          <ellipse id="Ellipse_6" data-name="Ellipse 6" cx="2.916" cy="2.916" rx="2.916" ry="2.916" fill="#1dc468"/>
        </g>
      </g>
    </g>
  </g>
</svg>
