<svg xmlns="http://www.w3.org/2000/svg" width="10.659" height="14.212" viewBox="0 0 10.659 14.212">
  <g id="sim" transform="translate(-0.001)">
    <g id="Group_6945" data-name="Group 6945" transform="translate(0.001)">
      <path id="Path_5211" data-name="Path 5211" d="M74.572,3.048,71.61.087A.3.3,0,0,0,71.4,0H65.184A1.185,1.185,0,0,0,64,1.184V13.028a1.185,1.185,0,0,0,1.184,1.184h8.29a1.185,1.185,0,0,0,1.184-1.184V3.257A.3.3,0,0,0,74.572,3.048ZM68.441,5.626a.3.3,0,0,1,.3-.3h1.184a.3.3,0,0,1,.3.3V6.81a.3.3,0,0,1-.3.3H68.737a.3.3,0,0,1-.3-.3Zm-2.665.592a.889.889,0,0,1,.888-.888h.888a.3.3,0,0,1,.3.3V6.81a.3.3,0,0,1-.3.3h-1.48a.3.3,0,0,1-.3-.3Zm1.776,5.922a.3.3,0,0,1-.3.3h-.592a.889.889,0,0,1-.888-.888v-.592a.3.3,0,0,1,.3-.3h1.184a.3.3,0,0,1,.3.3v1.184Zm2.369,0a.3.3,0,0,1-.3.3H68.441a.3.3,0,0,1-.3-.3V10.955a.3.3,0,0,1,.3-.3h1.184a.3.3,0,0,1,.3.3v1.184Zm2.961-.592a.889.889,0,0,1-.888.888H70.81a.3.3,0,0,1-.3-.3V10.363a.3.3,0,0,0-.3-.3H66.073a.3.3,0,0,1-.3-.3V7.994a.3.3,0,0,1,.3-.3h6.514a.3.3,0,0,1,.3.3v3.553Zm0-4.737a.3.3,0,0,1-.3.3h-1.48a.3.3,0,0,1-.3-.3V5.625a.3.3,0,0,1,.3-.3h.888a.889.889,0,0,1,.888.888Z" transform="translate(-64)" fill="#fff"/>
    </g>
  </g>
</svg>
