<svg xmlns="http://www.w3.org/2000/svg" width="38.607" height="38.607" viewBox="0 0 38.607 38.607">
  <g id="Group_7369" data-name="Group 7369" transform="translate(-172 -112)">
    <g id="Path_5781" data-name="Path 5781" transform="translate(172 112)" fill="none">
      <path d="M19.3,0A19.3,19.3,0,1,1,0,19.3,19.3,19.3,0,0,1,19.3,0Z" stroke="none"/>
      <path d="M 19.3037109375 2 C 14.68172073364258 2 10.33638000488281 3.799900054931641 7.068140029907227 7.068140029907227 C 3.799900054931641 10.33638000488281 2 14.68172073364258 2 19.3037109375 C 2 23.92570114135742 3.799900054931641 28.27104187011719 7.068140029907227 31.53927993774414 C 10.33638000488281 34.80752182006836 14.68172073364258 36.607421875 19.3037109375 36.607421875 C 23.92570114135742 36.607421875 28.27104187011719 34.80752182006836 31.53927993774414 31.53927993774414 C 34.80752182006836 28.27104187011719 36.607421875 23.92570114135742 36.607421875 19.3037109375 C 36.607421875 14.68172073364258 34.80752182006836 10.33638000488281 31.53927993774414 7.068140029907227 C 28.27104187011719 3.799900054931641 23.92570114135742 2 19.3037109375 2 M 19.3037109375 0 C 29.9648609161377 0 38.607421875 8.642570495605469 38.607421875 19.3037109375 C 38.607421875 29.9648609161377 29.9648609161377 38.607421875 19.3037109375 38.607421875 C 8.642570495605469 38.607421875 0 29.9648609161377 0 19.3037109375 C 0 8.642570495605469 8.642570495605469 0 19.3037109375 0 Z" stroke="none" fill="#1dc468"/>
    </g>
    <path id="tick-svgrepo-com_1_" data-name="tick-svgrepo-com (1)" d="M20.488,6.2a.736.736,0,0,1,0,.983L10.226,18.3a.607.607,0,0,1-.907,0L4.188,12.745a.736.736,0,0,1,0-.983.607.607,0,0,1,.907,0l4.677,5.067L19.581,6.2A.607.607,0,0,1,20.488,6.2Z" transform="translate(178.966 119.05)" fill="#1dc468" stroke="#1dc468" stroke-width="1" fill-rule="evenodd"/>
  </g>
</svg>
