<svg xmlns="http://www.w3.org/2000/svg" width="465.2" height="461.825" viewBox="0 0 465.2 461.825">
  <g id="time-left" transform="translate(0 -1.688)">
    <g id="Layer_2_16_">
      <g id="Group_2762" data-name="Group 2762">
        <path id="Path_3450" data-name="Path 3450" d="M279.591,423.714c-3.836.956-7.747,1.8-11.629,2.52a18.7,18.7,0,0,0,6.813,36.779c4.623-.858,9.282-1.867,13.854-3.008a18.7,18.7,0,0,0-9.038-36.291Z" fill="#1dc468"/>
        <path id="Path_3451" data-name="Path 3451" d="M417.887,173.047a18.7,18.7,0,0,0,35.507-11.758c-1.478-4.468-3.118-8.95-4.865-13.314A18.7,18.7,0,1,0,413.8,161.86C415.271,165.528,416.646,169.293,417.887,173.047Z" fill="#1dc468"/>
        <path id="Path_3452" data-name="Path 3452" d="M340.36,397.013c-3.3,2.178-6.7,4.286-10.134,6.261a18.7,18.7,0,1,0,18.689,32.4c4.078-2.352,8.133-4.854,12.062-7.452a18.7,18.7,0,0,0-20.617-31.206Z" fill="#1dc468"/>
        <path id="Path_3453" data-name="Path 3453" d="M465.022,225.279a18.7,18.7,0,1,0-37.373,1.469c.155,3.945.2,7.949.1,11.89a18.7,18.7,0,1,0,37.391.827C465.247,234.756,465.208,229.985,465.022,225.279Z" fill="#1dc468"/>
        <path id="Path_3454" data-name="Path 3454" d="M414.835,347.816a18.693,18.693,0,0,0-26.186,3.738c-2.374,3.164-4.874,6.289-7.434,9.3a18.708,18.708,0,0,0,2.115,26.361c.448.38.9.729,1.371,1.057a18.7,18.7,0,0,0,24.992-3.171c3.057-3.59,6.037-7.323,8.874-11.1A18.7,18.7,0,0,0,414.835,347.816Z" fill="#1dc468"/>
        <path id="Path_3455" data-name="Path 3455" d="M442.325,280.213a18.7,18.7,0,0,0-23.438,12.251c-1.182,3.765-2.492,7.548-3.906,11.253a18.7,18.7,0,0,0,34.948,13.317c1.679-4.4,3.237-8.906,4.646-13.382A18.706,18.706,0,0,0,442.325,280.213Z" fill="#1dc468"/>
        <path id="Path_3456" data-name="Path 3456" d="M198,426.4a193.1,193.1,0,0,1-47.968-15.244c-.18-.094-.341-.2-.53-.287-3.584-1.687-7.162-3.494-10.63-5.382a.145.145,0,0,0-.053-.031,199.5,199.5,0,0,1-18.606-11.628C32.24,331.86,11.088,209.872,73.062,121.9a194.339,194.339,0,0,1,47.965-47.719c.224-.156.448-.311.67-.468,64.067-44.144,151.06-47.119,219.089-1.757L326.175,93.068c-4.062,5.876-1.563,10.158,5.548,9.518L395.19,96.9c7.12-.64,11.378-6.8,9.463-13.675L387.61,21.823c-1.908-6.884-6.793-7.708-10.859-1.833L362.106,41.151A230.953,230.953,0,0,0,192.87,5.165q-8.979,1.554-17.709,3.78c-.045.008-.081.013-.117.021-.225.055-.453.128-.672.189A230.6,230.6,0,0,0,46.5,94.855c-.269.319-.546.631-.8.978-1.061,1.429-2.114,2.891-3.145,4.353-1.686,2.4-3.348,4.852-4.938,7.308-.2.3-.351.6-.525.9A230.56,230.56,0,0,0,.24,244.383c0,.158,0,.317,0,.479.211,4.691.583,9.447,1.088,14.129.027.3.094.588.145.89.522,4.708,1.177,9.427,2,14.145A230.8,230.8,0,0,0,68.55,399.186c.079.079.161.165.241.247.028.031.059.047.086.076a235.639,235.639,0,0,0,29.793,24.9A230.584,230.584,0,0,0,191.4,463.215,18.7,18.7,0,0,0,198,426.4Z" fill="#1dc468"/>
        <path id="Path_3457" data-name="Path 3457" d="M221.124,83.2a15.136,15.136,0,0,0-15.137,15.131V249.076l137.87,71.271a15.129,15.129,0,0,0,13.894-26.879L236.244,230.65V98.329A15.128,15.128,0,0,0,221.124,83.2Z" fill="#1dc468"/>
      </g>
    </g>
  </g>
</svg>
