<svg id="group" xmlns="http://www.w3.org/2000/svg" width="46.732" height="40.892" viewBox="0 0 46.732 40.892">
  <path id="Path_3178" data-name="Path 3178" d="M352.478,295.358a27.742,27.742,0,0,0-13.334-4.174,29.035,29.035,0,0,1,3.21,1.7,8.766,8.766,0,0,1,4.019,7.379V308.6h8.762v-8.335a5.827,5.827,0,0,0-2.657-4.909Z" transform="translate(-308.402 -267.71)" fill="#fff"/>
  <path id="Path_3179" data-name="Path 3179" d="M32.393,295.083a28.4,28.4,0,0,0-29.734,0A5.822,5.822,0,0,0,0,299.992v8.335H35.05v-8.335A5.824,5.824,0,0,0,32.393,295.083Z" transform="translate(0 -267.435)" fill="#fff"/>
  <path id="Path_3180" data-name="Path 3180" d="M289.815,52.184a10.1,10.1,0,0,0,2.938.484,10.223,10.223,0,0,0,0-20.446,10.1,10.1,0,0,0-2.938.484,12.982,12.982,0,0,1,0,19.478Z" transform="translate(-263.545 -32.222)" fill="#fff"/>
  <path id="Path_3181" data-name="Path 3181" d="M98.008,35.216a10.223,10.223,0,1,1-14.457,0,10.223,10.223,0,0,1,14.457,0" transform="translate(-73.255 -32.222)" fill="#fff"/>
</svg>
