<svg xmlns="http://www.w3.org/2000/svg" width="38.997" height="24.998" viewBox="0 0 38.997 24.998">
  <g id="Group_7888" data-name="Group 7888" transform="translate(-57.5 -891.5)">
    <g id="Group_7884" data-name="Group 7884">
      <path id="Path_5992" data-name="Path 5992" d="M2,0H37a2,2,0,0,1,2,2V23a2,2,0,0,1-2,2H2a2,2,0,0,1-2-2V2A2,2,0,0,1,2,0Z" transform="translate(57.5 891.5)" fill="#0e4595"/>
      <path id="Path_5993" data-name="Path 5993" d="M125.046,158.955l1.668-9.787h2.668l-1.669,9.787Zm12.3-9.576a6.89,6.89,0,0,0-2.391-.411c-2.636,0-4.493,1.327-4.509,3.23-.015,1.406,1.326,2.191,2.337,2.659,1.038.48,1.387.786,1.383,1.214-.007.656-.829.956-1.6.956a5.593,5.593,0,0,1-2.511-.514l-.344-.156-.374,2.191a8.446,8.446,0,0,0,2.972.522c2.8,0,4.625-1.312,4.645-3.344.01-1.113-.7-1.961-2.24-2.659-.932-.453-1.5-.755-1.5-1.213,0-.407.483-.842,1.528-.842a4.924,4.924,0,0,1,2,.375l.239.113.362-2.121m6.865-.211h-2.061a1.327,1.327,0,0,0-1.4.812l-3.962,8.969h2.8s.458-1.206.562-1.471l3.417,0c.08.343.324,1.467.324,1.467h2.476l-2.159-9.781Zm-3.271,6.32c.221-.564,1.063-2.736,1.063-2.736-.016.026.219-.567.354-.934l.18.844s.511,2.336.618,2.826Zm-18.164-6.32-2.612,6.674-.278-1.356a7.638,7.638,0,0,0-3.695-4.106l2.388,8.559,2.823,0,4.2-9.769h-2.826" transform="translate(-52.888 749.979)" fill="#fff"/>
    </g>
    <path id="Path_5994" data-name="Path 5994" d="M64.534,152.956h-4.3l-.034.2a8.83,8.83,0,0,1,6.48,5.12l-.935-4.5a1.117,1.117,0,0,0-1.209-.826" transform="translate(0.312 746.191)" fill="#f2ae14"/>
  </g>
</svg>
