<svg xmlns="http://www.w3.org/2000/svg" width="14.883" height="14.954" viewBox="0 0 14.883 14.954">
  <path id="whatsapp" d="M12.964,2.173A7.412,7.412,0,0,0,1.3,11.114L.25,14.954l3.928-1.03a7.4,7.4,0,0,0,3.541.9h0A7.413,7.413,0,0,0,12.964,2.173Zm-5.242,11.4h0a6.151,6.151,0,0,1-3.135-.859l-.225-.134-2.331.612.622-2.273L2.5,10.688a6.159,6.159,0,1,1,5.217,2.886ZM11.1,8.961c-.185-.093-1.1-.541-1.265-.6s-.293-.093-.416.093-.478.6-.586.726-.216.139-.4.046A5.057,5.057,0,0,1,6.942,8.3a5.585,5.585,0,0,1-1.03-1.283c-.108-.185,0-.276.081-.378a5.237,5.237,0,0,0,.463-.633.341.341,0,0,0-.016-.324c-.046-.093-.416-1-.571-1.375s-.3-.312-.417-.318-.231-.006-.355-.006a.68.68,0,0,0-.494.232,2.077,2.077,0,0,0-.648,1.545,3.6,3.6,0,0,0,.756,1.915,8.253,8.253,0,0,0,3.163,2.8,10.6,10.6,0,0,0,1.056.39,2.538,2.538,0,0,0,1.166.073,1.907,1.907,0,0,0,1.25-.88,1.547,1.547,0,0,0,.108-.881c-.046-.077-.17-.123-.355-.216Zm0,0" transform="translate(-0.25)" fill="#030303" fill-rule="evenodd"/>
</svg>
