<svg xmlns="http://www.w3.org/2000/svg" width="238.827" height="39" viewBox="0 0 238.827 39">
  <g id="Group_7418" data-name="Group 7418" transform="translate(0 -12.955)">
    <g id="Group_2" data-name="Group 2" transform="translate(0 14.957)">
      <g id="Logo_Ay" data-name="Logo Ay" transform="translate(0 0)">
        <g id="Layer_1" data-name="Layer 1">
          <g id="Group_2021" data-name="Group 2021">
            <path id="Path_2256" data-name="Path 2256" d="M53.955,6.761c-8.29,2.426-16.566,4.872-24.868,7.244a5.589,5.589,0,0,1-2.793-.026C17.546,11.672,8.82,9.291,0,6.262,3.9,5.243,7.9,4.515,11.674,3.154,23.164-1,34.5-1.206,45.883,3.492A66.191,66.191,0,0,0,53.945,5.7c0,.353,0,.705.01,1.058" transform="translate(0 -0.003)" fill-rule="evenodd"/>
            <path id="Path_2257" data-name="Path 2257" d="M67.5,88.337c-4.994.457-9.8-.985-14.582-2.446-2.572-.783-4.511-8.84-2.634-10.813a2.117,2.117,0,0,1,1.427-.438,4.032,4.032,0,0,1,1.547.438c9.4,4.315,18.834,3.769,28.266.183,3.21-1.223,3.942.027,3.926,3.1-.039,7.028-.029,7.238-6.977,8.853a38.09,38.09,0,0,1-10.976,1.121" transform="translate(-39.437 -59.426)" fill-rule="evenodd"/>
            <path id="Path_2258" data-name="Path 2258" d="M10.9,61.79c.775.312.689.993.722,1.574.257,4.077.481,8.131.744,12.193.09,1.368-.065,2.662-1.755,2.636-1.647-.029-2.214-1.111-2-2.735.51-3.859.932-7.727,1.427-11.588.094-.756.024-1.631.87-2.079" transform="translate(-6.819 -49.196)" fill-rule="evenodd"/>
          </g>
        </g>
      </g>
    </g>
    <text id="alteryouth" transform="translate(59.827 41.955)"  font-size="40" font-family="Gilroy-Bold, Gilroy ☞" font-weight="700" letter-spacing="-0.04em"><tspan x="0" y="0">alteryouth</tspan></text>
  </g>
</svg>
